<svg id="svg" version="1.1" xmlns="http://www.w3.org/2000/svg" xmlns:xlink="http://www.w3.org/1999/xlink" width="400" height="400" viewBox="0, 0, 400,400"><g id="svgg"><path id="path0" d="M175.600 128.018 C 173.290 128.174,168.211 128.324,164.313 128.351 C 159.101 128.387,155.343 128.667,150.113 129.409 L 143.000 130.418 140.200 132.350 C 138.660 133.412,136.140 134.770,134.600 135.366 C 133.060 135.963,129.820 137.329,127.400 138.402 C 124.980 139.475,121.998 140.725,120.774 141.178 C 118.317 142.088,117.253 143.072,115.017 146.505 C 113.258 149.206,111.127 151.133,107.800 153.032 C 104.990 154.635,104.471 155.280,102.987 159.011 C 101.381 163.048,96.145 173.143,94.733 174.923 C 91.669 178.787,90.390 186.232,90.412 200.083 C 90.433 213.586,91.711 220.660,94.944 225.165 C 96.701 227.613,101.627 237.451,102.973 241.200 C 104.223 244.682,105.312 245.969,108.200 247.382 C 110.686 248.599,113.930 251.903,115.320 254.633 C 116.741 257.426,117.728 258.185,121.800 259.622 C 123.780 260.320,127.110 261.744,129.200 262.787 C 131.290 263.830,133.630 264.918,134.400 265.206 C 135.170 265.494,136.864 266.442,138.165 267.312 C 142.827 270.432,144.151 270.650,161.800 271.202 C 168.400 271.409,175.549 271.697,177.686 271.843 L 181.572 272.108 183.558 270.593 C 185.799 268.884,185.642 269.305,186.799 261.883 L 187.660 256.365 186.596 250.483 C 185.416 243.961,185.202 243.465,182.875 241.852 L 181.253 240.728 175.704 241.164 C 155.234 242.772,139.571 239.325,136.004 232.427 C 135.114 230.706,132.391 228.065,130.200 226.798 C 126.919 224.900,124.925 222.328,123.814 218.557 C 118.297 199.836,121.223 180.014,130.380 174.085 C 132.525 172.695,135.565 169.780,138.486 166.308 C 142.832 161.144,158.391 158.253,174.538 159.608 C 181.318 160.178,181.635 160.126,184.274 158.024 L 186.273 156.433 187.183 150.226 C 187.773 146.207,187.999 143.346,187.825 142.110 C 187.061 136.679,185.867 131.322,185.268 130.639 C 184.283 129.518,181.139 127.590,180.422 127.667 C 180.080 127.704,177.910 127.862,175.600 128.018 " stroke="none" fill="#29d47c" fill-rule="evenodd"></path><path id="path1" d="M217.574 127.908 C 217.010 128.288,215.869 129.165,215.037 129.855 L 213.526 131.111 212.549 137.255 L 211.573 143.400 212.433 149.800 C 213.374 156.800,213.372 156.795,216.567 158.995 L 218.639 160.422 226.019 159.941 C 244.172 158.760,258.018 161.757,262.365 167.811 C 263.630 169.572,267.452 172.983,270.885 175.414 C 273.621 177.352,274.929 179.785,276.864 186.541 L 278.600 192.600 278.600 200.400 C 278.600 208.160,278.592 208.230,277.072 213.997 C 274.879 222.321,273.970 223.742,268.295 227.715 C 267.105 228.548,265.607 229.965,264.966 230.865 C 258.765 239.564,246.158 242.600,223.783 240.783 L 218.649 240.366 217.025 241.542 C 214.497 243.372,214.135 244.174,213.027 250.400 L 211.995 256.200 212.959 262.338 C 214.441 271.769,215.590 272.689,225.063 272.033 C 228.507 271.795,234.455 271.600,238.281 271.600 C 250.433 271.600,258.511 270.281,261.820 267.757 C 262.560 267.193,264.478 266.152,266.082 265.443 C 267.687 264.735,270.162 263.559,271.582 262.830 C 273.002 262.102,275.792 260.880,277.782 260.115 C 282.273 258.389,283.730 257.306,285.039 254.723 C 286.352 252.131,289.195 249.320,292.000 247.838 C 294.901 246.305,296.337 244.519,297.805 240.618 C 298.472 238.848,299.699 236.230,300.533 234.800 C 301.366 233.370,302.344 231.660,302.706 231.000 C 303.068 230.340,304.132 228.621,305.070 227.180 C 309.893 219.772,311.747 202.929,309.626 185.800 C 308.654 177.944,308.169 176.744,302.172 167.357 C 300.587 164.874,298.101 159.986,297.368 157.909 C 296.519 155.503,294.964 153.788,292.071 152.070 C 289.289 150.417,285.753 147.021,284.686 144.977 C 283.648 142.989,281.873 141.635,278.707 140.416 C 277.040 139.774,273.903 138.453,271.738 137.481 C 269.572 136.509,266.971 135.413,265.959 135.046 C 264.946 134.679,263.056 133.727,261.759 132.930 C 257.667 130.418,256.705 130.085,250.986 129.204 C 246.995 128.590,242.112 128.241,233.887 127.984 C 227.555 127.786,221.525 127.532,220.487 127.420 C 219.100 127.269,218.329 127.398,217.574 127.908 " stroke="none" fill="#0d58ce" fill-rule="evenodd"></path><path id="path2" d="M0.000 200.000 L 0.000 400.000 200.000 400.000 L 400.000 400.000 400.000 200.000 L 400.000 0.000 200.000 0.000 L 0.000 0.000 0.000 200.000 M237.200 121.383 C 259.339 121.899,270.338 124.466,274.208 130.019 C 275.244 131.506,278.868 133.451,283.898 135.218 C 287.252 136.397,289.755 138.659,291.344 141.947 C 292.541 144.425,292.742 144.620,295.481 145.975 C 299.754 148.089,302.227 150.854,303.267 154.681 C 303.953 157.203,306.199 160.523,307.798 161.377 C 315.263 165.366,319.441 191.062,316.388 214.212 C 314.207 230.754,312.468 235.713,307.817 238.654 C 305.942 239.840,304.238 242.474,303.194 245.800 C 301.985 249.654,299.877 252.133,296.400 253.792 C 295.190 254.370,293.930 254.980,293.600 255.148 C 293.270 255.317,292.460 256.561,291.800 257.914 C 289.869 261.872,287.143 264.262,283.065 265.571 C 279.932 266.576,276.090 268.687,275.815 269.554 C 273.883 275.639,260.602 278.458,231.359 278.988 C 214.360 279.296,210.851 278.421,207.390 273.012 C 205.484 270.032,200.502 268.275,197.537 269.535 C 196.582 269.942,195.328 270.390,194.751 270.532 C 194.102 270.691,193.516 271.238,193.215 271.964 C 192.590 273.473,190.194 275.877,188.400 276.795 C 180.478 280.850,139.666 279.033,129.722 274.182 C 127.168 272.936,124.000 270.154,124.000 269.157 C 124.000 268.674,119.859 266.446,117.366 265.588 C 112.599 263.948,110.863 262.500,108.514 258.204 C 107.131 255.672,106.760 255.300,104.397 254.082 C 100.347 251.993,98.684 250.090,97.013 245.631 C 95.507 241.612,94.133 239.394,92.463 238.289 C 83.139 232.119,79.943 191.617,87.057 169.800 C 88.123 166.531,92.047 161.600,93.582 161.600 C 93.883 161.600,96.133 157.245,97.922 153.200 C 99.523 149.581,100.818 148.218,104.160 146.632 C 107.478 145.057,107.591 144.947,109.233 141.659 C 110.698 138.729,112.868 136.768,115.934 135.607 C 121.596 133.462,124.976 131.544,126.917 129.375 C 131.935 123.770,143.778 121.584,169.800 121.462 C 186.458 121.384,189.287 122.122,192.719 127.446 C 193.945 129.347,194.223 129.542,196.650 130.198 L 199.261 130.905 202.815 129.773 C 205.829 128.813,206.439 128.472,206.831 127.525 C 208.618 123.211,215.031 120.756,223.800 121.029 C 226.660 121.118,232.690 121.277,237.200 121.383 M196.000 158.064 C 194.248 158.738,193.556 159.283,192.600 160.744 C 189.371 165.678,186.406 166.421,169.521 166.525 C 154.372 166.618,151.828 167.022,148.718 169.828 C 147.903 170.564,146.542 171.519,145.694 171.952 C 144.845 172.385,142.812 174.065,141.176 175.685 C 139.539 177.306,137.165 179.309,135.900 180.137 C 134.635 180.965,133.599 181.768,133.598 181.921 C 133.597 182.075,133.062 182.771,132.408 183.468 C 130.101 185.929,128.494 192.279,128.277 199.799 L 128.091 206.197 129.599 211.298 C 131.468 217.618,131.573 217.776,135.788 220.581 C 138.712 222.526,141.930 225.670,143.475 228.090 C 144.446 229.612,147.623 231.427,151.554 232.705 L 155.800 234.086 169.400 234.176 C 178.939 234.240,183.537 234.419,184.798 234.775 C 188.694 235.877,191.719 238.065,193.007 240.713 C 193.634 242.002,194.077 242.362,195.507 242.744 C 196.463 243.000,197.693 243.657,198.241 244.205 C 199.428 245.392,199.841 245.449,200.099 244.464 C 200.234 243.950,201.207 243.447,203.325 242.797 C 205.869 242.016,206.434 241.683,206.828 240.733 C 209.076 235.305,213.681 234.016,230.809 234.018 L 243.766 234.020 248.183 232.738 C 253.335 231.243,255.366 229.900,258.187 226.119 C 260.053 223.620,263.972 220.326,266.208 219.378 C 271.133 217.291,273.485 199.215,270.159 189.018 C 269.366 186.588,268.571 184.509,268.392 184.397 C 268.213 184.285,267.531 183.519,266.875 182.694 C 266.220 181.870,264.625 180.488,263.332 179.625 C 262.039 178.761,259.871 176.971,258.513 175.647 C 257.155 174.323,255.331 172.875,254.459 172.430 C 253.586 171.985,252.043 170.903,251.029 170.025 C 247.570 167.031,245.557 166.702,230.000 166.585 C 216.132 166.481,215.007 166.362,211.689 164.646 C 209.897 163.719,208.034 162.038,207.021 160.433 C 205.430 157.913,199.635 156.668,196.000 158.064 " stroke="none" fill="#060c0c" fill-rule="evenodd"></path><path id="path3" d="M215.730 121.608 C 211.227 122.770,207.878 124.997,206.831 127.525 C 206.439 128.473,205.829 128.813,202.790 129.781 L 199.212 130.921 199.382 132.561 C 199.818 136.760,199.975 145.948,199.702 151.236 L 199.400 157.071 202.244 157.936 C 203.808 158.411,205.291 158.800,205.539 158.800 C 205.787 158.800,206.425 159.490,206.958 160.333 C 208.028 162.029,209.864 163.702,211.689 164.646 C 215.007 166.362,216.132 166.481,230.000 166.585 C 245.557 166.702,247.570 167.031,251.029 170.025 C 252.043 170.903,253.586 171.985,254.459 172.430 C 255.331 172.875,257.155 174.323,258.513 175.647 C 259.871 176.971,262.039 178.761,263.332 179.625 C 264.625 180.488,266.220 181.870,266.875 182.694 C 267.531 183.519,268.213 184.285,268.392 184.397 C 268.571 184.509,269.366 186.588,270.159 189.018 C 273.485 199.215,271.133 217.291,266.208 219.378 C 263.972 220.326,260.053 223.620,258.187 226.119 C 255.366 229.900,253.335 231.243,248.183 232.738 L 243.766 234.020 230.809 234.018 C 213.681 234.016,209.076 235.305,206.828 240.733 C 206.434 241.683,205.869 242.016,203.325 242.797 C 201.207 243.447,200.234 243.950,200.099 244.464 C 199.993 244.869,199.740 245.200,199.535 245.200 C 199.323 245.200,199.263 246.185,199.396 247.500 C 199.704 250.552,199.683 265.752,199.368 267.430 L 199.120 268.750 202.564 269.800 C 205.924 270.825,206.042 270.904,207.390 273.012 C 210.851 278.421,214.360 279.296,231.359 278.988 C 260.602 278.458,273.883 275.639,275.815 269.554 C 276.090 268.687,279.932 266.576,283.065 265.571 C 287.143 264.262,289.869 261.872,291.800 257.914 C 292.460 256.561,293.270 255.317,293.600 255.148 C 293.930 254.980,295.190 254.370,296.400 253.792 C 299.877 252.133,301.985 249.654,303.194 245.800 C 304.238 242.474,305.942 239.840,307.817 238.654 C 315.328 233.904,319.381 208.828,316.393 185.589 C 314.249 168.910,312.458 163.867,307.798 161.377 C 306.199 160.523,303.953 157.203,303.267 154.681 C 302.227 150.854,299.754 148.089,295.481 145.975 C 292.742 144.620,292.541 144.425,291.344 141.947 C 289.755 138.659,287.252 136.397,283.898 135.218 C 278.868 133.451,275.244 131.506,274.208 130.019 C 270.338 124.466,259.339 121.899,237.200 121.383 C 232.690 121.277,226.660 121.118,223.800 121.029 C 219.644 120.899,218.024 121.016,215.730 121.608 M233.887 127.984 C 242.112 128.241,246.995 128.590,250.986 129.204 C 256.705 130.085,257.667 130.418,261.759 132.930 C 263.056 133.727,264.946 134.679,265.959 135.046 C 266.971 135.413,269.572 136.509,271.738 137.481 C 273.903 138.453,277.040 139.774,278.707 140.416 C 281.873 141.635,283.648 142.989,284.686 144.977 C 285.753 147.021,289.289 150.417,292.071 152.070 C 294.964 153.788,296.519 155.503,297.368 157.909 C 298.101 159.986,300.587 164.874,302.172 167.357 C 308.169 176.744,308.654 177.944,309.626 185.800 C 311.747 202.929,309.893 219.772,305.070 227.180 C 304.132 228.621,303.068 230.340,302.706 231.000 C 302.344 231.660,301.366 233.370,300.533 234.800 C 299.699 236.230,298.472 238.848,297.805 240.618 C 296.337 244.519,294.901 246.305,292.000 247.838 C 289.195 249.320,286.352 252.131,285.039 254.723 C 283.730 257.306,282.273 258.389,277.782 260.115 C 275.792 260.880,273.002 262.102,271.582 262.830 C 270.162 263.559,267.687 264.735,266.082 265.443 C 264.478 266.152,262.560 267.193,261.820 267.757 C 258.511 270.281,250.433 271.600,238.281 271.600 C 234.455 271.600,228.507 271.795,225.063 272.033 C 215.590 272.689,214.441 271.769,212.959 262.338 L 211.995 256.200 213.027 250.400 C 214.135 244.174,214.497 243.372,217.025 241.542 L 218.649 240.366 223.783 240.783 C 246.158 242.600,258.765 239.564,264.966 230.865 C 265.607 229.965,267.105 228.548,268.295 227.715 C 273.970 223.742,274.879 222.321,277.072 213.997 C 278.592 208.230,278.600 208.160,278.600 200.400 L 278.600 192.600 276.864 186.541 C 274.929 179.785,273.621 177.352,270.885 175.414 C 267.452 172.983,263.630 169.572,262.365 167.811 C 258.018 161.757,244.172 158.760,226.019 159.941 L 218.639 160.422 216.567 158.995 C 213.372 156.795,213.374 156.800,212.433 149.800 L 211.573 143.400 212.549 137.255 L 213.526 131.111 215.037 129.855 C 217.956 127.431,218.471 127.201,220.487 127.420 C 221.525 127.532,227.555 127.786,233.887 127.984 " stroke="none" fill="#08245c" fill-rule="evenodd"></path><path id="path4" d="M158.200 121.603 C 139.943 122.473,131.138 124.660,126.917 129.375 C 124.976 131.544,121.596 133.462,115.934 135.607 C 112.868 136.768,110.698 138.729,109.233 141.659 C 107.591 144.947,107.478 145.057,104.160 146.632 C 100.818 148.218,99.523 149.581,97.922 153.200 C 96.133 157.245,93.883 161.600,93.582 161.600 C 92.047 161.600,88.123 166.531,87.057 169.800 C 79.943 191.617,83.139 232.119,92.463 238.289 C 94.133 239.394,95.507 241.612,97.013 245.631 C 98.684 250.090,100.347 251.993,104.397 254.082 C 106.760 255.300,107.131 255.672,108.514 258.204 C 110.863 262.500,112.599 263.948,117.366 265.588 C 119.859 266.446,124.000 268.674,124.000 269.157 C 124.000 271.607,130.556 275.182,137.600 276.574 C 148.443 278.716,179.695 279.792,184.800 278.198 C 189.036 276.876,192.130 274.584,193.215 271.964 C 193.516 271.238,194.102 270.691,194.751 270.532 C 199.645 269.329,199.620 269.394,199.613 257.748 C 199.605 244.469,198.938 242.505,194.400 242.404 C 194.070 242.397,193.450 241.661,193.023 240.769 C 191.731 238.074,188.731 235.887,184.798 234.775 C 183.537 234.419,178.939 234.240,169.400 234.176 L 155.800 234.086 151.554 232.705 C 147.623 231.427,144.446 229.612,143.475 228.090 C 141.930 225.670,138.712 222.526,135.788 220.581 C 131.573 217.776,131.468 217.618,129.599 211.298 L 128.091 206.197 128.277 199.799 C 128.494 192.279,130.101 185.929,132.408 183.468 C 133.062 182.771,133.597 182.075,133.598 181.921 C 133.599 181.768,134.635 180.965,135.900 180.137 C 137.165 179.309,139.539 177.306,141.176 175.685 C 142.812 174.065,144.845 172.385,145.694 171.952 C 146.542 171.519,147.903 170.564,148.718 169.828 C 151.828 167.022,154.372 166.618,169.521 166.525 C 186.409 166.421,189.376 165.677,192.600 160.740 C 193.647 159.138,194.158 158.775,196.600 157.907 L 199.400 156.912 199.689 151.356 C 199.917 146.960,199.719 134.641,199.387 132.600 C 199.351 132.380,199.294 131.905,199.261 131.544 C 199.219 131.094,198.393 130.670,196.619 130.190 C 194.233 129.544,193.938 129.338,192.719 127.459 C 188.924 121.610,182.157 120.462,158.200 121.603 M182.822 128.739 C 185.565 130.498,185.871 131.047,186.746 135.800 C 188.142 143.380,188.150 143.636,187.183 150.226 L 186.273 156.433 184.274 158.024 C 181.635 160.126,181.318 160.178,174.538 159.608 C 158.391 158.253,142.832 161.144,138.486 166.308 C 135.565 169.780,132.525 172.695,130.380 174.085 C 122.723 179.043,118.789 196.532,122.035 211.178 C 124.426 221.965,125.546 224.107,130.200 226.798 C 132.391 228.065,135.114 230.706,136.004 232.427 C 139.571 239.325,155.234 242.772,175.704 241.164 L 181.253 240.728 182.875 241.852 C 185.202 243.465,185.416 243.961,186.596 250.483 L 187.660 256.365 186.799 261.883 C 185.642 269.305,185.799 268.884,183.558 270.593 L 181.572 272.108 177.686 271.843 C 175.549 271.697,168.400 271.409,161.800 271.202 C 144.151 270.650,142.827 270.432,138.165 267.312 C 136.864 266.442,135.170 265.494,134.400 265.206 C 133.630 264.918,131.290 263.830,129.200 262.787 C 127.110 261.744,123.780 260.320,121.800 259.622 C 117.728 258.185,116.741 257.426,115.320 254.633 C 113.930 251.903,110.686 248.599,108.200 247.382 C 105.312 245.969,104.223 244.682,102.973 241.200 C 101.627 237.451,96.701 227.613,94.944 225.165 C 88.734 216.511,88.592 182.668,94.733 174.923 C 96.145 173.143,101.381 163.048,102.987 159.011 C 104.471 155.280,104.990 154.635,107.800 153.032 C 111.127 151.133,113.258 149.206,115.017 146.505 C 117.253 143.072,118.317 142.088,120.774 141.178 C 121.998 140.725,124.980 139.475,127.400 138.402 C 129.820 137.329,133.060 135.963,134.600 135.366 C 136.140 134.770,138.660 133.412,140.200 132.350 L 143.000 130.418 150.113 129.409 C 155.343 128.667,159.101 128.387,164.313 128.351 C 170.140 128.311,177.258 128.008,180.422 127.667 C 180.764 127.630,181.844 128.113,182.822 128.739 " stroke="none" fill="#145c3c" fill-rule="evenodd"></path></g></svg>