<svg id="svg" version="1.1" xmlns="http://www.w3.org/2000/svg" xmlns:xlink="http://www.w3.org/1999/xlink" width="400" height="80.93385214007782" viewBox="0, 0, 400,80.93385214007782"><g id="svgg"><path id="path0" d="M205.472 30.967 C 205.043 30.995,204.608 31.120,204.503 31.246 C 204.245 31.557,204.243 45.970,204.501 46.753 C 204.737 47.467,204.879 47.495,208.289 47.498 L 211.162 47.500 211.425 46.875 C 211.893 45.762,211.818 31.744,211.341 31.268 C 210.991 30.918,208.339 30.782,205.472 30.967 M221.479 31.314 C 221.092 31.807,221.015 45.495,221.393 46.750 L 221.594 47.417 224.873 47.462 L 228.152 47.507 228.409 46.640 C 228.820 45.255,228.789 32.121,228.373 31.436 L 228.080 30.954 224.936 30.936 C 221.811 30.917,221.790 30.919,221.479 31.314 M239.500 31.151 C 235.460 31.685,237.119 32.580,241.917 32.454 C 244.830 32.378,245.751 32.179,245.296 31.725 C 244.818 31.246,241.363 30.904,239.500 31.151 M316.386 31.153 C 315.398 31.231,314.928 31.347,314.678 31.573 L 314.333 31.885 314.708 32.151 C 315.227 32.518,321.292 32.547,321.729 32.184 C 321.988 31.969,321.989 31.930,321.735 31.650 C 321.327 31.199,318.793 30.964,316.386 31.153 M136.329 35.917 C 132.329 36.172,131.791 36.255,130.785 36.769 C 130.346 36.994,129.521 37.296,128.951 37.441 C 127.646 37.774,127.121 38.043,126.675 38.611 C 126.480 38.859,126.072 39.230,125.768 39.437 C 124.738 40.136,124.511 42.672,125.425 43.271 C 125.640 43.412,125.962 43.774,126.140 44.075 C 126.370 44.466,126.690 44.700,127.254 44.892 C 127.690 45.041,128.284 45.344,128.576 45.566 C 129.215 46.054,129.914 46.246,132.000 46.506 C 132.871 46.615,134.219 46.888,134.996 47.112 C 138.303 48.068,147.560 48.101,150.332 47.167 C 150.912 46.972,152.396 46.666,153.631 46.487 C 156.759 46.034,156.609 46.092,156.739 45.283 C 156.799 44.904,156.939 44.535,157.050 44.465 C 157.160 44.394,156.012 44.382,154.500 44.438 C 152.671 44.505,151.632 44.613,151.396 44.760 C 150.987 45.014,149.452 45.417,148.260 45.582 C 147.807 45.645,147.057 45.848,146.593 46.033 C 145.072 46.639,139.826 46.616,139.084 46.000 C 138.989 45.922,138.200 45.736,137.331 45.588 C 134.916 45.178,134.692 45.076,133.540 43.855 C 131.901 42.118,131.770 41.158,132.990 39.818 C 133.133 39.660,133.378 39.346,133.535 39.118 C 133.692 38.891,134.198 38.569,134.660 38.403 C 135.122 38.237,135.500 38.043,135.500 37.971 C 135.500 36.832,147.799 36.562,149.167 37.671 C 150.129 38.452,150.629 38.563,153.497 38.634 C 156.168 38.701,158.000 38.508,158.000 38.161 C 158.000 38.028,156.022 37.333,155.642 37.333 C 155.556 37.333,155.020 37.116,154.451 36.850 C 152.275 35.834,144.174 35.417,136.329 35.917 M173.401 35.916 C 169.588 36.174,169.362 36.217,167.750 36.990 C 167.017 37.342,166.199 37.716,165.933 37.823 C 165.025 38.186,165.699 38.412,167.883 38.477 C 170.039 38.542,172.086 38.283,172.222 37.930 C 172.524 37.142,180.310 36.633,185.150 37.085 C 186.879 37.246,188.875 39.070,188.312 39.973 C 187.837 40.733,187.788 40.739,180.167 40.850 C 173.466 40.948,172.835 40.982,171.833 41.300 C 170.608 41.691,169.457 41.907,167.167 42.179 C 162.846 42.692,162.565 45.817,166.779 46.493 C 167.497 46.607,168.646 46.876,169.333 47.089 C 172.335 48.021,183.739 48.085,183.168 47.167 C 183.042 46.964,182.241 46.883,178.936 46.737 L 174.860 46.557 173.745 45.987 C 173.131 45.673,172.357 45.181,172.023 44.893 L 171.417 44.370 171.750 44.000 C 172.305 43.382,174.022 42.139,174.569 41.957 C 175.504 41.647,186.821 41.588,187.542 41.889 C 189.380 42.656,187.878 45.078,185.272 45.550 C 182.764 46.004,183.177 46.594,185.894 46.439 C 187.690 46.336,188.471 46.524,188.864 47.154 C 189.071 47.485,189.223 47.500,192.270 47.500 L 195.460 47.500 195.647 46.760 C 195.907 45.725,195.885 39.692,195.619 39.236 C 195.072 38.298,193.863 37.333,193.234 37.333 C 193.131 37.333,192.775 37.149,192.443 36.924 C 190.858 35.848,181.637 35.360,173.401 35.916 M268.333 35.927 C 266.821 36.045,265.451 36.148,265.290 36.154 C 265.129 36.161,264.762 36.391,264.476 36.665 C 263.837 37.275,263.070 37.222,261.737 36.475 C 260.810 35.955,256.445 35.762,254.958 36.175 L 254.333 36.349 254.333 41.360 L 254.333 46.372 254.949 46.936 L 255.565 47.500 258.280 47.500 L 260.996 47.500 261.289 46.875 C 261.528 46.367,261.586 45.761,261.600 43.628 C 261.616 41.077,261.629 40.989,262.058 40.369 C 262.301 40.019,262.500 39.655,262.500 39.562 C 262.500 39.265,263.222 38.732,264.024 38.437 C 264.468 38.274,264.832 38.024,264.877 37.852 C 265.057 37.161,273.847 36.658,277.312 37.141 C 280.248 37.549,281.411 39.323,281.428 43.417 C 281.437 45.828,281.474 46.151,281.806 46.792 L 282.173 47.500 284.868 47.500 C 287.769 47.500,288.479 47.303,288.780 46.417 C 288.993 45.790,288.833 39.433,288.600 39.250 C 288.484 39.158,288.192 38.772,287.952 38.390 C 287.642 37.898,287.332 37.639,286.883 37.496 C 286.535 37.385,285.871 37.081,285.408 36.820 C 283.602 35.804,275.382 35.374,268.333 35.927 M341.333 35.847 C 337.119 36.075,335.585 36.296,334.529 36.825 C 334.009 37.086,333.184 37.382,332.696 37.484 C 331.583 37.715,331.237 37.893,330.474 38.621 C 330.139 38.942,329.691 39.290,329.479 39.396 C 328.549 39.860,328.368 42.425,329.209 43.230 C 329.508 43.516,329.884 43.955,330.045 44.207 C 330.245 44.517,330.579 44.724,331.090 44.852 C 331.503 44.956,332.146 45.262,332.519 45.533 C 333.212 46.035,333.961 46.218,337.153 46.663 C 337.925 46.771,338.938 47.001,339.403 47.174 C 341.816 48.071,352.151 48.070,354.815 47.173 C 355.378 46.983,356.418 46.747,357.127 46.647 C 360.201 46.216,360.990 46.023,361.713 45.525 C 362.108 45.254,362.750 44.946,363.140 44.841 C 363.625 44.710,363.942 44.497,364.143 44.165 C 364.306 43.898,364.633 43.527,364.870 43.340 C 365.642 42.733,365.640 40.395,364.866 39.745 C 364.711 39.614,364.208 39.178,363.750 38.777 C 362.699 37.856,362.487 37.748,361.075 37.421 C 360.441 37.274,359.665 37.002,359.353 36.818 C 357.857 35.935,348.750 35.444,341.333 35.847 M238.292 36.262 L 237.833 36.511 237.833 41.251 C 237.833 45.794,237.849 46.022,238.200 46.746 L 238.566 47.500 241.262 47.500 C 244.679 47.500,244.971 47.444,245.269 46.731 C 245.581 45.984,245.609 36.509,245.300 36.200 C 244.983 35.883,238.892 35.936,238.292 36.262 M314.708 36.203 L 314.333 36.384 314.333 41.228 C 314.333 45.311,314.376 46.184,314.606 46.786 L 314.879 47.500 317.981 47.497 C 321.380 47.495,321.433 47.483,321.670 46.656 C 321.917 45.794,321.884 36.451,321.633 36.200 C 321.371 35.938,315.253 35.941,314.708 36.203 M353.583 37.327 C 353.950 37.440,354.400 37.669,354.583 37.835 C 354.767 38.002,355.348 38.328,355.875 38.560 C 356.402 38.792,356.833 39.061,356.833 39.157 C 356.833 39.253,357.086 39.614,357.395 39.958 C 358.590 41.290,358.434 42.383,356.818 44.016 C 356.191 44.649,355.613 45.167,355.534 45.167 C 354.886 45.167,351.766 45.863,351.317 46.108 C 350.482 46.563,343.888 46.573,343.008 46.121 C 342.550 45.886,339.253 45.167,338.632 45.167 C 338.553 45.167,337.971 44.644,337.339 44.005 C 335.720 42.371,335.546 41.091,336.759 39.729 C 337.075 39.374,337.333 39.037,337.333 38.980 C 337.333 38.923,337.765 38.678,338.292 38.435 C 338.819 38.193,339.480 37.846,339.761 37.666 C 340.762 37.024,351.719 36.756,353.583 37.327 M297.761 45.588 C 297.453 45.821,297.451 45.859,297.714 46.412 C 298.170 47.368,298.835 47.559,301.754 47.572 L 304.258 47.583 305.129 46.849 C 306.214 45.934,306.218 45.741,305.158 45.514 C 303.830 45.229,298.160 45.286,297.761 45.588 " stroke="none" fill="#ededee" fill-rule="evenodd"></path><path id="path1" d="M0.000 40.417 L 0.000 80.833 200.000 80.833 L 400.000 80.833 400.000 40.417 L 400.000 0.000 200.000 0.000 L 0.000 0.000 0.000 40.417 M211.846 29.879 C 212.156 30.087,212.583 30.516,212.795 30.831 L 213.182 31.405 213.133 39.244 C 213.070 49.247,213.536 48.423,207.952 48.406 L 204.487 48.396 204.035 47.944 L 203.583 47.493 203.533 39.705 C 203.476 30.946,203.496 30.645,204.168 29.973 L 204.641 29.500 207.963 29.500 C 211.141 29.500,211.308 29.516,211.846 29.879 M228.486 29.743 C 229.523 30.279,229.533 30.370,229.518 39.209 C 229.501 49.373,229.978 48.459,224.714 48.428 C 219.664 48.397,220.008 49.094,220.003 38.889 C 219.999 28.994,219.741 29.500,224.781 29.500 C 227.288 29.500,228.122 29.555,228.486 29.743 M244.167 30.125 C 244.579 30.313,245.119 30.546,245.367 30.643 C 246.747 31.183,246.449 32.656,244.873 33.086 C 244.347 33.230,243.804 33.418,243.667 33.505 C 242.679 34.127,242.390 34.206,241.184 34.182 C 240.294 34.165,239.811 34.075,239.524 33.871 C 238.869 33.405,238.796 33.371,237.753 33.054 C 236.253 32.597,235.860 31.427,237.000 30.816 C 239.261 29.603,242.366 29.304,244.167 30.125 M321.000 30.193 C 323.017 31.078,323.431 31.636,322.681 32.457 C 322.263 32.915,321.321 33.330,320.693 33.332 C 320.571 33.333,320.343 33.490,320.187 33.683 C 319.593 34.417,316.922 34.459,316.259 33.745 C 316.071 33.542,315.604 33.323,315.221 33.259 C 313.430 32.957,312.561 31.846,313.542 31.111 C 315.545 29.612,318.769 29.215,321.000 30.193 M70.292 31.550 C 70.619 31.848,70.667 32.056,70.667 33.185 C 70.667 35.942,70.993 35.833,62.681 35.833 C 55.449 35.833,53.292 35.980,51.299 36.606 C 50.592 36.828,49.440 37.157,48.738 37.336 C 47.492 37.655,47.105 37.888,45.660 39.196 C 44.858 39.920,45.149 41.994,46.054 42.002 C 46.162 42.003,46.574 42.261,46.971 42.576 C 47.508 43.003,48.018 43.219,48.971 43.421 C 49.674 43.571,50.887 43.874,51.667 44.096 C 53.974 44.753,55.232 44.851,62.638 44.949 L 69.693 45.043 70.180 45.453 C 70.961 46.111,70.928 48.750,70.130 49.422 L 69.593 49.874 60.005 49.781 C 50.346 49.688,48.757 49.599,46.167 49.009 C 45.387 48.831,43.700 48.529,42.417 48.338 C 39.811 47.949,39.710 47.925,38.692 47.468 C 38.293 47.289,37.339 46.990,36.573 46.803 C 35.753 46.602,34.839 46.242,34.351 45.928 C 33.895 45.634,33.214 45.292,32.837 45.168 C 32.460 45.043,31.886 44.691,31.561 44.384 C 31.236 44.078,30.716 43.634,30.407 43.398 C 27.858 41.454,29.080 37.164,32.613 35.655 C 33.055 35.466,33.754 35.100,34.167 34.842 C 34.579 34.583,35.329 34.279,35.833 34.165 C 36.337 34.051,37.387 33.712,38.167 33.412 C 39.098 33.053,40.382 32.743,41.917 32.508 C 43.200 32.310,44.832 32.002,45.542 31.823 C 47.854 31.240,49.923 31.123,59.667 31.019 C 69.357 30.916,69.609 30.928,70.292 31.550 M94.333 31.326 C 95.204 31.419,96.817 31.680,97.917 31.906 C 99.017 32.132,100.880 32.470,102.058 32.658 C 103.236 32.845,104.548 33.156,104.975 33.349 C 105.401 33.542,106.425 33.883,107.250 34.107 C 108.075 34.331,109.013 34.693,109.333 34.912 C 109.654 35.131,110.329 35.492,110.833 35.714 C 111.337 35.937,111.895 36.282,112.072 36.481 C 112.250 36.681,112.646 36.999,112.953 37.189 C 113.273 37.387,113.687 37.879,113.919 38.339 C 114.144 38.781,114.403 39.190,114.497 39.248 C 114.798 39.434,114.698 41.154,114.357 41.641 C 114.186 41.884,113.916 42.363,113.756 42.706 C 113.596 43.048,113.224 43.477,112.930 43.659 C 112.635 43.840,112.266 44.131,112.109 44.305 C 111.657 44.804,108.221 46.438,106.667 46.892 C 105.888 47.120,104.837 47.456,104.333 47.639 C 103.829 47.822,102.357 48.126,101.062 48.314 C 99.767 48.503,98.038 48.806,97.220 48.988 C 94.860 49.514,92.140 49.669,83.480 49.772 L 75.378 49.868 74.863 49.392 C 74.445 49.006,74.344 48.775,74.325 48.167 C 74.222 44.778,73.729 45.002,81.333 45.000 C 87.461 44.999,90.425 44.830,92.000 44.393 C 92.504 44.253,93.614 43.961,94.466 43.745 C 96.847 43.140,98.498 41.825,98.750 40.332 C 98.947 39.165,97.224 37.788,94.900 37.256 C 94.268 37.111,93.188 36.810,92.500 36.587 C 90.611 35.974,88.690 35.820,81.607 35.715 C 73.752 35.599,74.313 35.782,74.317 33.333 C 74.318 31.805,74.335 31.737,74.784 31.362 L 75.250 30.974 84.000 31.065 C 88.813 31.115,93.462 31.232,94.333 31.326 M144.929 34.329 C 146.128 34.412,147.615 34.597,148.234 34.740 C 148.853 34.884,150.645 35.158,152.216 35.349 C 154.926 35.679,155.471 35.825,156.500 36.501 C 156.637 36.591,157.184 36.822,157.714 37.013 C 158.911 37.446,159.224 37.861,158.990 38.707 C 158.743 39.603,158.162 40.003,157.375 39.820 C 157.031 39.740,155.625 39.671,154.250 39.667 C 151.370 39.658,148.635 39.077,147.333 38.198 C 146.612 37.711,138.669 37.782,137.731 38.283 C 137.354 38.485,136.471 38.801,135.768 38.985 C 134.219 39.390,134.218 39.391,134.090 39.960 C 134.034 40.211,133.854 40.592,133.691 40.806 C 133.067 41.624,134.214 43.542,135.851 44.418 C 137.737 45.427,149.259 45.095,150.248 44.003 C 150.982 43.191,157.885 42.963,158.766 43.721 C 159.946 44.737,158.174 46.561,155.522 47.060 C 154.756 47.204,153.813 47.475,153.428 47.661 C 151.997 48.354,151.132 48.416,142.833 48.416 C 134.509 48.417,133.381 48.338,131.921 47.651 C 131.533 47.469,130.530 47.182,129.694 47.014 C 128.247 46.724,127.333 46.335,127.333 46.010 C 127.333 45.928,127.015 45.739,126.625 45.590 C 122.824 44.138,123.493 38.099,127.587 36.909 C 128.076 36.766,128.660 36.505,128.885 36.328 C 129.548 35.807,130.043 35.685,132.919 35.333 C 134.421 35.149,136.161 34.879,136.784 34.733 C 137.732 34.510,140.077 34.280,142.250 34.197 C 142.525 34.187,143.731 34.246,144.929 34.329 M183.543 34.334 C 184.621 34.424,186.009 34.610,186.627 34.749 C 187.244 34.888,188.873 35.152,190.245 35.336 C 192.370 35.621,192.839 35.738,193.411 36.127 C 193.781 36.378,194.496 36.808,195.000 37.083 C 196.510 37.907,196.655 38.458,196.662 43.372 L 196.667 47.328 196.181 47.872 L 195.695 48.417 193.222 48.472 C 189.675 48.552,188.734 48.427,188.096 47.788 C 187.527 47.220,186.351 47.115,185.830 47.587 C 184.982 48.354,184.562 48.401,178.048 48.468 C 170.548 48.544,168.396 48.392,166.930 47.686 C 166.373 47.417,165.649 47.147,165.322 47.086 C 164.155 46.867,163.467 46.329,163.022 45.288 L 162.613 44.327 163.009 43.482 C 163.562 42.300,164.100 41.907,165.624 41.573 C 166.335 41.416,167.182 41.156,167.505 40.993 C 168.770 40.357,174.010 40.030,183.281 40.007 C 184.955 40.003,186.516 39.922,186.767 39.827 L 187.223 39.653 186.491 38.908 C 185.515 37.913,185.148 37.831,181.167 37.719 C 176.670 37.593,174.770 37.793,173.414 38.537 L 172.417 39.083 168.864 39.137 C 165.914 39.182,165.246 39.148,164.928 38.939 C 164.066 38.375,164.421 37.441,165.717 36.861 C 166.102 36.689,166.556 36.391,166.727 36.199 C 167.087 35.793,167.891 35.610,170.913 35.247 C 172.103 35.104,173.476 34.871,173.965 34.729 C 175.707 34.222,180.039 34.044,183.543 34.334 M279.510 34.598 C 281.419 34.959,284.328 35.460,285.215 35.581 C 285.733 35.651,286.202 35.851,286.549 36.148 C 286.843 36.400,287.325 36.703,287.621 36.822 C 289.485 37.568,289.888 38.817,289.803 43.583 C 289.713 48.691,289.997 48.396,285.167 48.398 C 279.954 48.399,280.141 48.583,280.102 43.417 C 280.072 39.517,280.023 39.309,279.043 38.988 C 278.698 38.875,278.127 38.600,277.772 38.377 C 276.512 37.584,267.800 37.529,266.700 38.308 C 266.452 38.483,265.800 38.755,265.250 38.911 C 263.109 39.522,263.162 39.401,263.018 43.944 C 262.873 48.520,262.891 48.505,257.639 48.432 C 253.216 48.370,253.500 48.846,253.500 41.498 L 253.500 36.019 253.902 35.551 L 254.304 35.083 257.522 35.028 C 260.449 34.978,260.851 35.006,261.977 35.340 C 262.852 35.600,263.438 35.679,263.982 35.609 C 266.134 35.334,268.109 34.976,268.805 34.735 C 270.465 34.161,276.772 34.080,279.510 34.598 M349.788 34.331 C 351.001 34.414,352.463 34.598,353.038 34.739 C 353.613 34.880,355.378 35.146,356.960 35.329 C 359.706 35.648,360.761 35.908,361.327 36.404 C 361.468 36.527,362.027 36.755,362.569 36.910 C 363.278 37.113,363.754 37.387,364.267 37.888 C 364.659 38.270,365.175 38.733,365.413 38.917 C 367.209 40.299,366.198 44.434,363.807 45.492 C 363.398 45.673,362.931 45.967,362.769 46.145 C 362.387 46.568,361.876 46.755,360.226 47.074 C 359.480 47.218,358.542 47.480,358.143 47.657 C 355.551 48.800,338.438 48.800,336.065 47.656 C 335.688 47.475,334.788 47.214,334.065 47.077 C 332.320 46.746,331.767 46.554,331.406 46.154 C 331.240 45.971,330.772 45.674,330.365 45.494 C 327.884 44.397,326.850 39.924,328.798 38.720 C 329.047 38.566,329.517 38.160,329.843 37.818 C 330.266 37.374,330.721 37.112,331.426 36.907 C 331.971 36.749,332.649 36.442,332.934 36.225 C 333.515 35.783,334.280 35.618,337.445 35.253 C 338.652 35.114,340.097 34.883,340.655 34.740 C 342.481 34.272,346.398 34.097,349.788 34.331 M322.218 35.686 L 322.687 36.194 322.635 41.844 L 322.583 47.493 322.128 47.948 L 321.672 48.404 318.128 48.409 C 312.636 48.416,312.935 48.799,312.865 41.668 C 312.796 34.681,312.487 35.049,318.355 35.131 L 321.750 35.178 322.218 35.686 M245.846 35.597 L 246.250 36.027 246.250 41.472 C 246.250 48.955,246.615 48.365,241.951 48.418 C 236.270 48.484,236.598 48.882,236.531 41.841 L 236.480 36.383 236.912 35.869 C 237.467 35.210,237.422 35.216,241.763 35.189 L 245.442 35.167 245.846 35.597 M342.500 37.982 C 342.179 38.051,341.691 38.226,341.414 38.371 C 340.949 38.615,339.726 38.995,338.614 39.241 C 338.283 39.315,338.073 39.516,337.902 39.926 C 337.768 40.246,337.506 40.660,337.320 40.847 C 336.647 41.520,338.056 43.740,339.583 44.415 C 341.390 45.214,352.685 45.235,354.525 44.444 C 356.023 43.799,357.421 41.563,356.746 40.889 C 356.585 40.728,356.350 40.347,356.222 40.043 C 355.976 39.454,355.741 39.316,354.417 38.988 C 353.958 38.874,353.208 38.587,352.750 38.350 C 351.884 37.903,344.167 37.626,342.500 37.982 M182.833 42.675 C 174.302 43.180,170.355 44.295,174.556 45.012 C 176.932 45.418,185.618 45.019,186.281 44.473 C 186.476 44.312,186.868 42.813,186.746 42.691 C 186.602 42.547,185.107 42.541,182.833 42.675 M305.405 44.725 C 306.927 45.102,307.275 45.858,306.606 47.333 C 306.005 48.657,298.622 49.075,297.334 47.859 C 296.283 46.866,296.228 45.512,297.217 44.968 C 298.352 44.343,303.274 44.197,305.405 44.725 " stroke="none" fill="#040404" fill-rule="evenodd"></path><path id="path2" d="M59.500 31.342 C 50.778 31.446,48.637 31.559,46.996 32.001 C 46.645 32.096,44.892 32.394,43.100 32.664 C 41.016 32.978,39.609 33.274,39.196 33.485 C 38.840 33.667,37.769 34.010,36.816 34.249 C 35.863 34.487,34.893 34.819,34.661 34.986 C 34.429 35.153,33.667 35.554,32.968 35.877 C 32.269 36.200,31.617 36.615,31.518 36.800 C 31.419 36.985,31.065 37.306,30.731 37.512 C 28.919 38.632,28.995 41.991,30.862 43.308 C 31.259 43.588,31.756 44.004,31.968 44.233 C 32.179 44.462,32.760 44.802,33.259 44.989 C 33.759 45.176,34.448 45.514,34.792 45.740 C 35.135 45.967,36.242 46.373,37.250 46.644 C 38.258 46.915,39.496 47.286,40.000 47.468 C 40.504 47.651,42.079 47.961,43.500 48.158 C 44.921 48.354,46.771 48.661,47.612 48.839 C 49.918 49.327,53.639 49.499,61.921 49.499 C 70.904 49.500,70.167 49.685,70.167 47.433 C 70.167 45.169,70.866 45.368,62.581 45.277 C 55.086 45.195,53.133 45.048,51.167 44.418 C 50.479 44.198,49.598 43.939,49.208 43.842 C 47.484 43.415,47.222 43.315,46.750 42.904 C 46.475 42.664,46.045 42.362,45.794 42.231 C 44.614 41.617,44.515 39.283,45.644 38.679 C 45.813 38.588,46.258 38.258,46.633 37.945 C 47.082 37.569,47.701 37.274,48.449 37.077 C 49.073 36.913,49.774 36.684,50.007 36.569 C 51.653 35.758,54.614 35.510,62.872 35.491 L 69.495 35.476 69.831 35.049 C 70.705 33.937,70.100 31.069,69.019 31.199 C 68.871 31.217,64.587 31.281,59.500 31.342 " stroke="none" fill="#34e988" fill-rule="evenodd"></path><path id="path3" d="M74.960 31.248 C 74.386 31.576,74.283 31.994,74.359 33.682 C 74.453 35.754,73.912 35.604,81.699 35.715 C 88.563 35.812,90.780 35.979,92.383 36.517 C 92.914 36.696,93.926 36.982,94.633 37.154 C 96.484 37.603,96.783 37.749,97.934 38.759 L 98.969 39.668 98.743 40.542 C 98.399 41.871,96.710 43.281,95.115 43.570 C 94.765 43.634,93.789 43.898,92.945 44.158 C 90.780 44.824,88.369 45.000,81.383 45.000 C 73.978 45.000,74.340 44.875,74.336 47.444 C 74.333 48.949,74.341 48.976,74.852 49.407 L 75.371 49.844 83.311 49.762 C 91.463 49.678,94.772 49.510,96.667 49.084 C 97.263 48.950,98.987 48.648,100.500 48.414 C 103.522 47.946,104.334 47.761,105.083 47.372 C 105.358 47.229,106.245 46.944,107.053 46.738 C 107.861 46.531,108.818 46.167,109.178 45.929 C 109.539 45.690,110.216 45.344,110.682 45.161 C 111.791 44.723,113.423 43.287,113.927 42.303 C 114.147 41.875,114.403 41.476,114.497 41.419 C 114.799 41.232,114.698 39.585,114.358 39.147 C 114.188 38.929,113.919 38.473,113.760 38.135 C 113.601 37.796,113.271 37.393,113.027 37.238 C 112.783 37.083,112.396 36.783,112.167 36.571 C 111.501 35.955,108.353 34.419,107.126 34.112 C 106.508 33.957,105.571 33.639,105.043 33.405 C 104.414 33.126,103.171 32.836,101.434 32.564 C 99.977 32.336,98.177 32.005,97.434 31.828 C 94.426 31.114,76.029 30.639,74.960 31.248 " stroke="none" fill="#0467ef" fill-rule="evenodd"></path><path id="path4" d="M204.168 29.973 C 203.496 30.645,203.476 30.946,203.533 39.705 L 203.583 47.493 204.035 47.944 L 204.487 48.396 207.952 48.406 C 213.536 48.423,213.070 49.247,213.133 39.244 L 213.182 31.405 212.795 30.831 C 211.947 29.573,211.683 29.500,207.963 29.500 L 204.641 29.500 204.168 29.973 M221.089 29.859 C 220.030 30.692,220.000 30.943,220.003 38.889 C 220.008 49.094,219.664 48.397,224.714 48.428 C 229.978 48.459,229.501 49.373,229.518 39.209 C 229.535 28.680,229.935 29.500,224.781 29.500 C 221.721 29.500,221.520 29.520,221.089 29.859 M239.417 29.811 C 238.967 29.920,237.651 30.467,237.000 30.816 C 235.860 31.427,236.253 32.597,237.753 33.054 C 238.796 33.371,238.869 33.405,239.524 33.871 C 239.811 34.075,240.294 34.165,241.184 34.182 C 242.390 34.206,242.679 34.127,243.667 33.505 C 243.804 33.418,244.347 33.230,244.873 33.086 C 246.449 32.656,246.747 31.183,245.367 30.643 C 245.119 30.546,244.579 30.313,244.167 30.125 C 243.365 29.760,240.434 29.566,239.417 29.811 M315.917 29.891 C 314.411 30.387,313.000 31.333,313.000 31.845 C 313.000 32.275,314.302 33.104,315.221 33.259 C 315.604 33.323,316.071 33.542,316.259 33.745 C 316.922 34.459,319.593 34.417,320.187 33.683 C 320.343 33.490,320.571 33.333,320.693 33.332 C 322.052 33.327,323.321 32.232,322.867 31.456 C 322.080 30.110,318.024 29.196,315.917 29.891 M59.667 31.019 C 49.923 31.123,47.854 31.240,45.542 31.823 C 44.832 32.002,43.200 32.310,41.917 32.508 C 40.382 32.743,39.098 33.053,38.167 33.412 C 37.387 33.712,36.337 34.051,35.833 34.165 C 35.329 34.279,34.579 34.583,34.167 34.842 C 33.754 35.100,33.055 35.466,32.613 35.655 C 29.080 37.164,27.858 41.454,30.407 43.398 C 30.716 43.634,31.236 44.078,31.561 44.384 C 31.886 44.691,32.460 45.043,32.837 45.168 C 33.214 45.292,33.895 45.634,34.351 45.928 C 34.839 46.242,35.753 46.602,36.573 46.803 C 37.339 46.990,38.293 47.289,38.692 47.468 C 39.710 47.925,39.811 47.949,42.417 48.338 C 43.700 48.529,45.387 48.831,46.167 49.009 C 48.757 49.599,50.346 49.688,60.005 49.781 L 69.593 49.874 70.130 49.422 C 70.928 48.750,70.961 46.111,70.180 45.453 L 69.693 45.043 62.638 44.949 C 55.232 44.851,53.974 44.753,51.667 44.096 C 50.887 43.874,49.674 43.571,48.971 43.421 C 48.018 43.219,47.508 43.003,46.971 42.576 C 46.574 42.261,46.162 42.003,46.054 42.002 C 45.149 41.994,44.858 39.920,45.660 39.196 C 47.105 37.888,47.492 37.655,48.738 37.336 C 49.440 37.157,50.592 36.828,51.299 36.606 C 53.292 35.980,55.449 35.833,62.681 35.833 C 70.993 35.833,70.667 35.942,70.667 33.185 C 70.667 31.821,70.480 31.455,69.583 31.062 C 69.397 30.981,65.036 30.962,59.667 31.019 M211.341 31.268 C 211.818 31.744,211.893 45.762,211.425 46.875 L 211.162 47.500 208.289 47.498 C 204.879 47.495,204.737 47.467,204.501 46.753 C 204.243 45.970,204.245 31.557,204.503 31.246 C 204.926 30.737,210.829 30.756,211.341 31.268 M228.373 31.436 C 228.789 32.121,228.820 45.255,228.409 46.640 L 228.152 47.507 224.873 47.462 L 221.594 47.417 221.393 46.750 C 221.015 45.495,221.092 31.807,221.479 31.314 C 221.790 30.919,221.811 30.917,224.936 30.936 L 228.080 30.954 228.373 31.436 M244.309 31.328 C 245.363 31.525,245.716 31.922,245.071 32.185 C 243.744 32.727,237.409 32.476,237.208 31.873 C 236.986 31.208,241.718 30.845,244.309 31.328 M320.772 31.264 C 321.657 31.372,322.144 31.840,321.729 32.184 C 321.292 32.547,315.227 32.518,314.708 32.151 L 314.333 31.885 314.678 31.573 C 315.215 31.087,318.115 30.940,320.772 31.264 M69.728 31.512 C 70.322 31.980,70.391 34.336,69.831 35.049 L 69.495 35.476 62.872 35.491 C 54.614 35.510,51.653 35.758,50.007 36.569 C 49.774 36.684,49.073 36.913,48.449 37.077 C 47.701 37.274,47.082 37.569,46.633 37.945 C 46.258 38.258,45.813 38.588,45.644 38.679 C 44.515 39.283,44.614 41.617,45.794 42.231 C 46.045 42.362,46.475 42.664,46.750 42.904 C 47.222 43.315,47.484 43.415,49.208 43.842 C 49.598 43.939,50.479 44.198,51.167 44.418 C 53.133 45.048,55.086 45.195,62.581 45.277 C 70.866 45.368,70.167 45.169,70.167 47.433 C 70.167 49.685,70.904 49.500,61.921 49.499 C 53.639 49.499,49.918 49.327,47.612 48.839 C 46.771 48.661,44.921 48.354,43.500 48.158 C 42.079 47.961,40.504 47.651,40.000 47.468 C 39.496 47.286,38.258 46.915,37.250 46.644 C 36.242 46.373,35.135 45.967,34.792 45.740 C 34.448 45.514,33.759 45.176,33.259 44.989 C 32.760 44.802,32.179 44.462,31.968 44.233 C 31.756 44.004,31.259 43.588,30.862 43.308 C 28.995 41.991,28.919 38.632,30.731 37.512 C 31.065 37.306,31.419 36.985,31.518 36.800 C 31.617 36.615,32.269 36.200,32.968 35.877 C 33.667 35.554,34.429 35.153,34.661 34.986 C 34.893 34.819,35.863 34.487,36.816 34.249 C 37.769 34.010,38.840 33.667,39.196 33.485 C 39.609 33.274,41.016 32.978,43.100 32.664 C 44.892 32.394,46.645 32.096,46.996 32.001 C 48.637 31.559,50.778 31.446,59.500 31.342 C 64.587 31.281,68.871 31.217,69.019 31.199 C 69.167 31.181,69.486 31.322,69.728 31.512 M139.833 34.341 C 138.779 34.410,137.407 34.586,136.784 34.733 C 136.161 34.879,134.421 35.149,132.919 35.333 C 130.043 35.685,129.548 35.807,128.885 36.328 C 128.660 36.505,128.076 36.766,127.587 36.909 C 123.493 38.099,122.824 44.138,126.625 45.590 C 127.015 45.739,127.333 45.928,127.333 46.010 C 127.333 46.335,128.247 46.724,129.694 47.014 C 130.530 47.182,131.533 47.469,131.921 47.651 C 133.381 48.338,134.509 48.417,142.833 48.416 C 151.132 48.416,151.997 48.354,153.428 47.661 C 153.813 47.475,154.756 47.204,155.522 47.060 C 158.174 46.561,159.946 44.737,158.766 43.721 C 157.885 42.963,150.982 43.191,150.248 44.003 C 149.259 45.095,137.737 45.427,135.851 44.418 C 134.214 43.542,133.067 41.624,133.691 40.806 C 133.854 40.592,134.034 40.211,134.090 39.960 C 134.218 39.391,134.219 39.390,135.768 38.985 C 136.471 38.801,137.354 38.485,137.731 38.283 C 138.669 37.782,146.612 37.711,147.333 38.198 C 148.635 39.077,151.370 39.658,154.250 39.667 C 155.625 39.671,157.031 39.740,157.375 39.820 C 158.162 40.003,158.743 39.603,158.990 38.707 C 159.224 37.861,158.911 37.446,157.714 37.013 C 157.184 36.822,156.637 36.591,156.500 36.501 C 155.471 35.825,154.926 35.679,152.216 35.349 C 150.645 35.158,148.853 34.884,148.234 34.740 C 147.615 34.597,146.128 34.412,144.929 34.329 C 142.531 34.163,142.567 34.163,139.833 34.341 M176.301 34.342 C 175.504 34.413,174.453 34.587,173.965 34.729 C 173.476 34.871,172.103 35.104,170.913 35.247 C 167.891 35.610,167.087 35.793,166.727 36.199 C 166.556 36.391,166.102 36.689,165.717 36.861 C 164.421 37.441,164.066 38.375,164.928 38.939 C 165.246 39.148,165.914 39.182,168.864 39.137 L 172.417 39.083 173.414 38.537 C 174.770 37.793,176.670 37.593,181.167 37.719 C 185.148 37.831,185.515 37.913,186.491 38.908 L 187.223 39.653 186.767 39.827 C 186.516 39.922,184.955 40.003,183.281 40.007 C 174.010 40.030,168.770 40.357,167.505 40.993 C 167.182 41.156,166.335 41.416,165.624 41.573 C 164.100 41.907,163.562 42.300,163.009 43.482 L 162.613 44.327 163.022 45.288 C 163.467 46.329,164.155 46.867,165.322 47.086 C 165.649 47.147,166.373 47.417,166.930 47.686 C 168.396 48.392,170.548 48.544,178.048 48.468 C 184.562 48.401,184.982 48.354,185.830 47.587 C 186.351 47.115,187.527 47.220,188.096 47.788 C 188.734 48.427,189.675 48.552,193.222 48.472 L 195.695 48.417 196.181 47.872 L 196.667 47.328 196.662 43.372 C 196.655 38.458,196.510 37.907,195.000 37.083 C 194.496 36.808,193.781 36.378,193.411 36.127 C 192.839 35.738,192.370 35.621,190.245 35.336 C 188.873 35.152,187.244 34.888,186.627 34.749 C 184.311 34.229,179.641 34.045,176.301 34.342 M271.167 34.331 C 270.296 34.405,269.233 34.587,268.805 34.735 C 268.109 34.976,266.134 35.334,263.982 35.609 C 263.438 35.679,262.852 35.600,261.977 35.340 C 260.851 35.006,260.449 34.978,257.522 35.028 L 254.304 35.083 253.902 35.551 L 253.500 36.019 253.500 41.498 C 253.500 48.846,253.216 48.370,257.639 48.432 C 262.891 48.505,262.873 48.520,263.018 43.944 C 263.162 39.401,263.109 39.522,265.250 38.911 C 265.800 38.755,266.452 38.483,266.700 38.308 C 267.800 37.529,276.512 37.584,277.772 38.377 C 278.127 38.600,278.698 38.875,279.043 38.988 C 280.023 39.309,280.072 39.517,280.102 43.417 C 280.141 48.583,279.954 48.399,285.167 48.398 C 289.997 48.396,289.713 48.691,289.803 43.583 C 289.888 38.817,289.485 37.568,287.621 36.822 C 287.325 36.703,286.843 36.400,286.549 36.148 C 286.202 35.851,285.733 35.651,285.215 35.581 C 284.328 35.460,281.419 34.959,279.510 34.598 C 277.950 34.303,273.254 34.153,271.167 34.331 M343.627 34.347 C 342.551 34.420,341.214 34.597,340.655 34.740 C 340.097 34.883,338.652 35.114,337.445 35.253 C 334.280 35.618,333.515 35.783,332.934 36.225 C 332.649 36.442,331.971 36.749,331.426 36.907 C 330.721 37.112,330.266 37.374,329.843 37.818 C 329.517 38.160,329.047 38.566,328.798 38.720 C 326.850 39.924,327.884 44.397,330.365 45.494 C 330.772 45.674,331.240 45.971,331.406 46.154 C 331.767 46.554,332.320 46.746,334.065 47.077 C 334.788 47.214,335.688 47.475,336.065 47.656 C 337.446 48.322,338.832 48.417,347.167 48.417 C 355.464 48.417,356.598 48.338,358.143 47.657 C 358.542 47.480,359.480 47.218,360.226 47.074 C 361.876 46.755,362.387 46.568,362.769 46.145 C 362.931 45.967,363.398 45.673,363.807 45.492 C 366.198 44.434,367.209 40.299,365.413 38.917 C 365.175 38.733,364.659 38.270,364.267 37.888 C 363.754 37.387,363.278 37.113,362.569 36.910 C 362.027 36.755,361.468 36.527,361.327 36.404 C 360.761 35.908,359.706 35.648,356.960 35.329 C 355.378 35.146,353.613 34.880,353.038 34.739 C 351.072 34.257,347.290 34.099,343.627 34.347 M314.240 35.294 C 312.794 35.717,312.805 35.663,312.865 41.668 C 312.935 48.799,312.636 48.416,318.128 48.409 L 321.672 48.404 322.128 47.948 L 322.583 47.493 322.635 41.844 L 322.687 36.194 322.218 35.686 L 321.750 35.178 318.355 35.131 C 315.984 35.098,314.742 35.147,314.240 35.294 M237.714 35.284 C 237.511 35.323,237.150 35.586,236.912 35.869 L 236.480 36.383 236.531 41.841 C 236.598 48.882,236.270 48.484,241.951 48.418 C 246.615 48.365,246.250 48.955,246.250 41.472 L 246.250 36.027 245.846 35.597 L 245.442 35.167 241.763 35.189 C 239.739 35.202,237.917 35.244,237.714 35.284 M147.286 35.834 C 151.829 36.090,153.258 36.293,154.451 36.850 C 155.020 37.116,155.556 37.333,155.642 37.333 C 156.022 37.333,158.000 38.028,158.000 38.161 C 158.000 38.508,156.168 38.701,153.497 38.634 C 150.629 38.563,150.129 38.452,149.167 37.671 C 147.799 36.562,135.500 36.832,135.500 37.971 C 135.500 38.043,135.122 38.237,134.660 38.403 C 134.198 38.569,133.692 38.891,133.535 39.118 C 133.378 39.346,133.133 39.660,132.990 39.818 C 131.770 41.158,131.901 42.118,133.540 43.855 C 134.692 45.076,134.916 45.178,137.331 45.588 C 138.200 45.736,138.989 45.922,139.084 46.000 C 139.826 46.616,145.072 46.639,146.593 46.033 C 147.057 45.848,147.807 45.645,148.260 45.582 C 149.452 45.417,150.987 45.014,151.396 44.760 C 151.632 44.613,152.671 44.505,154.500 44.438 C 156.012 44.382,157.160 44.394,157.050 44.465 C 156.939 44.535,156.799 44.904,156.739 45.283 C 156.609 46.092,156.759 46.034,153.631 46.487 C 152.396 46.666,150.912 46.972,150.332 47.167 C 147.560 48.101,138.303 48.068,134.996 47.112 C 134.219 46.888,132.871 46.615,132.000 46.506 C 129.914 46.246,129.215 46.054,128.576 45.566 C 128.284 45.344,127.690 45.041,127.254 44.892 C 126.690 44.700,126.370 44.466,126.140 44.075 C 125.962 43.774,125.640 43.412,125.425 43.271 C 124.511 42.672,124.738 40.136,125.768 39.437 C 126.072 39.230,126.480 38.859,126.675 38.611 C 127.121 38.043,127.646 37.774,128.951 37.441 C 129.521 37.296,130.346 36.994,130.785 36.769 C 132.478 35.904,140.486 35.450,147.286 35.834 M186.701 35.912 C 190.792 36.169,191.520 36.298,192.443 36.924 C 192.775 37.149,193.131 37.333,193.234 37.333 C 193.863 37.333,195.072 38.298,195.619 39.236 C 195.885 39.692,195.907 45.725,195.647 46.760 L 195.460 47.500 192.270 47.500 C 189.223 47.500,189.071 47.485,188.864 47.154 C 188.471 46.524,187.690 46.336,185.894 46.439 C 183.177 46.594,182.764 46.004,185.272 45.550 C 187.878 45.078,189.380 42.656,187.542 41.889 C 186.821 41.588,175.504 41.647,174.569 41.957 C 174.022 42.139,172.305 43.382,171.750 44.000 L 171.417 44.370 172.023 44.893 C 172.357 45.181,173.131 45.673,173.745 45.987 L 174.860 46.557 178.936 46.737 C 182.241 46.883,183.042 46.964,183.168 47.167 C 183.739 48.085,172.335 48.021,169.333 47.089 C 168.646 46.876,167.497 46.607,166.779 46.493 C 164.210 46.081,163.069 44.649,164.295 43.373 C 165.155 42.478,165.356 42.394,167.167 42.179 C 169.457 41.907,170.608 41.691,171.833 41.300 C 172.835 40.982,173.466 40.948,180.167 40.850 C 187.788 40.739,187.837 40.733,188.312 39.973 C 188.875 39.070,186.879 37.246,185.150 37.085 C 180.310 36.633,172.524 37.142,172.222 37.930 C 172.086 38.283,170.039 38.542,167.883 38.477 C 165.699 38.412,165.025 38.186,165.933 37.823 C 166.199 37.716,167.017 37.342,167.750 36.990 C 170.247 35.792,177.886 35.357,186.701 35.912 M279.273 35.836 C 283.240 36.061,284.384 36.244,285.408 36.820 C 285.871 37.081,286.535 37.385,286.883 37.496 C 287.332 37.639,287.642 37.898,287.952 38.390 C 288.192 38.772,288.484 39.158,288.600 39.250 C 288.833 39.433,288.993 45.790,288.780 46.417 C 288.479 47.303,287.769 47.500,284.868 47.500 L 282.173 47.500 281.806 46.792 C 281.474 46.151,281.437 45.828,281.428 43.417 C 281.411 39.323,280.248 37.549,277.312 37.141 C 273.847 36.658,265.057 37.161,264.877 37.852 C 264.832 38.024,264.468 38.274,264.024 38.437 C 263.222 38.732,262.500 39.265,262.500 39.562 C 262.500 39.655,262.301 40.019,262.058 40.369 C 261.629 40.989,261.616 41.077,261.600 43.628 C 261.586 45.761,261.528 46.367,261.289 46.875 L 260.996 47.500 258.280 47.500 L 255.565 47.500 254.949 46.936 L 254.333 46.372 254.333 41.360 L 254.333 36.349 254.958 36.175 C 256.445 35.762,260.810 35.955,261.737 36.475 C 263.070 37.222,263.837 37.275,264.476 36.665 C 264.762 36.391,265.129 36.161,265.290 36.154 C 265.451 36.148,266.821 36.045,268.333 35.927 C 271.837 35.652,275.501 35.622,279.273 35.836 M353.167 35.913 C 357.508 36.176,358.515 36.324,359.353 36.818 C 359.665 37.002,360.441 37.274,361.075 37.421 C 362.487 37.748,362.699 37.856,363.750 38.777 C 364.208 39.178,364.711 39.614,364.866 39.745 C 365.640 40.395,365.642 42.733,364.870 43.340 C 364.633 43.527,364.306 43.898,364.143 44.165 C 363.942 44.497,363.625 44.710,363.140 44.841 C 362.750 44.946,362.108 45.254,361.713 45.525 C 360.990 46.023,360.201 46.216,357.127 46.647 C 356.418 46.747,355.378 46.983,354.815 47.173 C 352.151 48.070,341.816 48.071,339.403 47.174 C 338.938 47.001,337.925 46.771,337.153 46.663 C 333.961 46.218,333.212 46.035,332.519 45.533 C 332.146 45.262,331.503 44.956,331.090 44.852 C 330.579 44.724,330.245 44.517,330.045 44.207 C 329.884 43.955,329.508 43.516,329.209 43.230 C 328.368 42.425,328.549 39.860,329.479 39.396 C 329.691 39.290,330.139 38.942,330.474 38.621 C 331.237 37.893,331.583 37.715,332.696 37.484 C 333.184 37.382,334.009 37.086,334.529 36.825 C 336.501 35.837,345.028 35.420,353.167 35.913 M245.300 36.200 C 245.609 36.509,245.581 45.984,245.269 46.731 C 244.971 47.444,244.679 47.500,241.262 47.500 L 238.566 47.500 238.200 46.746 C 237.849 46.022,237.833 45.794,237.833 41.251 L 237.833 36.511 238.292 36.262 C 238.892 35.936,244.983 35.883,245.300 36.200 M321.633 36.200 C 321.884 36.451,321.917 45.794,321.670 46.656 C 321.433 47.483,321.380 47.495,317.981 47.497 L 314.879 47.500 314.606 46.786 C 314.376 46.184,314.333 45.311,314.333 41.228 L 314.333 36.384 314.708 36.203 C 315.253 35.941,321.371 35.938,321.633 36.200 M341.428 37.182 C 340.792 37.268,340.042 37.486,339.761 37.666 C 339.480 37.846,338.819 38.193,338.292 38.435 C 337.765 38.678,337.333 38.923,337.333 38.980 C 337.333 39.037,337.075 39.374,336.759 39.729 C 335.546 41.091,335.720 42.371,337.339 44.005 C 337.971 44.644,338.553 45.167,338.632 45.167 C 339.253 45.167,342.550 45.886,343.008 46.121 C 343.888 46.573,350.482 46.563,351.317 46.108 C 351.766 45.863,354.886 45.167,355.534 45.167 C 355.613 45.167,356.191 44.649,356.818 44.016 C 358.434 42.383,358.590 41.290,357.395 39.958 C 357.086 39.614,356.833 39.253,356.833 39.157 C 356.833 39.061,356.402 38.792,355.875 38.560 C 355.348 38.328,354.767 38.002,354.583 37.835 C 353.820 37.141,344.971 36.701,341.428 37.182 M352.750 38.350 C 353.208 38.587,353.958 38.874,354.417 38.988 C 355.741 39.316,355.976 39.454,356.222 40.043 C 356.350 40.347,356.585 40.728,356.746 40.889 C 357.421 41.563,356.023 43.799,354.525 44.444 C 352.685 45.235,341.390 45.214,339.583 44.415 C 338.056 43.740,336.647 41.520,337.320 40.847 C 337.506 40.660,337.768 40.246,337.902 39.926 C 338.073 39.516,338.283 39.315,338.614 39.241 C 339.726 38.995,340.949 38.615,341.414 38.371 C 342.796 37.645,351.354 37.630,352.750 38.350 M97.906 41.875 L 97.417 42.417 97.958 41.927 C 98.256 41.658,98.500 41.414,98.500 41.385 C 98.500 41.257,98.362 41.370,97.906 41.875 M186.746 42.691 C 186.868 42.813,186.476 44.312,186.281 44.473 C 185.952 44.743,180.743 45.222,178.167 45.219 C 174.308 45.214,172.122 44.663,173.203 43.967 C 174.266 43.283,186.213 42.157,186.746 42.691 M298.750 44.557 C 296.308 44.995,295.730 46.343,297.334 47.859 C 298.153 48.632,304.291 48.787,305.758 48.072 C 306.760 47.582,307.268 46.109,306.692 45.360 C 306.073 44.554,301.399 44.081,298.750 44.557 M305.158 45.514 C 306.218 45.741,306.214 45.934,305.129 46.849 L 304.258 47.583 301.754 47.572 C 298.835 47.559,298.170 47.368,297.714 46.412 C 297.246 45.431,297.526 45.345,301.200 45.339 C 302.914 45.336,304.696 45.415,305.158 45.514 " stroke="none" fill="#848484" fill-rule="evenodd"></path></g></svg>