<svg id="svg" version="1.1" xmlns="http://www.w3.org/2000/svg" xmlns:xlink="http://www.w3.org/1999/xlink" width="400" height="101.26582278481013" viewBox="0, 0, 400,101.26582278481013"><g id="svgg"><path id="path0" d="M212.583 20.069 C 211.619 20.512,211.283 20.847,210.912 21.736 C 210.670 22.316,210.646 25.024,210.661 50.378 L 210.678 78.380 211.031 78.876 C 212.204 80.524,216.028 80.640,217.926 79.084 L 218.671 78.474 218.664 50.433 L 218.656 22.392 218.286 21.715 C 217.300 19.909,214.617 19.134,212.583 20.069 M229.606 20.236 C 228.115 21.362,228.256 18.351,228.207 50.267 L 228.164 78.451 228.519 78.903 C 229.865 80.614,234.816 80.693,235.922 79.022 L 236.337 78.395 236.294 50.072 L 236.250 21.750 235.901 21.086 C 235.456 20.237,234.476 19.911,232.023 19.796 L 230.295 19.716 229.606 20.236 M248.022 20.702 C 243.417 22.542,244.710 29.333,249.667 29.333 C 252.454 29.333,254.293 26.712,253.643 23.667 C 253.121 21.225,250.360 19.768,248.022 20.702 M328.963 20.692 C 325.246 21.988,325.449 28.024,329.250 29.206 C 332.562 30.235,335.907 26.780,334.756 23.518 C 333.951 21.237,331.221 19.905,328.963 20.692 M143.167 36.276 C 139.308 37.064,135.692 38.583,133.908 40.164 C 128.011 45.388,125.936 52.408,126.986 63.576 C 127.834 72.590,133.401 79.234,141.235 80.580 C 150.991 82.256,159.829 77.950,161.675 70.621 C 162.621 66.864,155.950 66.760,152.940 70.485 C 150.184 73.897,144.989 75.297,142.019 73.429 C 141.688 73.221,140.882 72.741,140.229 72.363 C 139.018 71.663,138.766 71.412,137.344 69.487 C 133.873 64.787,133.669 52.757,136.990 48.583 C 137.355 48.125,137.902 47.415,138.206 47.006 C 138.530 46.569,139.170 46.026,139.754 45.691 C 140.302 45.377,141.166 44.874,141.674 44.571 C 144.944 42.627,150.176 44.009,152.888 47.533 C 154.786 49.999,157.038 50.809,159.985 50.087 C 163.542 49.215,161.888 44.525,156.409 39.949 C 153.579 37.585,146.446 35.607,143.167 36.276 M181.417 36.492 C 176.335 37.828,174.173 39.071,171.695 42.083 C 167.989 46.589,168.304 48.999,172.574 48.800 C 174.628 48.704,175.197 48.405,177.367 46.280 C 180.071 43.630,181.152 43.233,185.250 43.383 C 189.391 43.534,191.412 44.878,192.906 48.474 C 194.867 53.195,193.291 55.490,188.083 55.499 C 181.428 55.509,174.301 57.034,171.963 58.947 C 170.760 59.931,169.167 61.587,169.167 61.853 C 169.167 61.940,168.832 62.601,168.423 63.322 C 167.079 65.691,166.880 70.912,168.049 73.149 C 169.634 76.181,169.920 76.560,171.847 78.186 C 175.954 81.650,185.448 81.956,189.122 78.742 C 190.955 77.138,192.823 77.018,194.056 78.423 C 195.900 80.526,198.887 80.815,200.910 79.088 L 201.570 78.525 201.525 65.721 C 201.478 52.148,201.432 51.165,200.655 47.274 C 200.005 44.020,198.849 42.087,196.106 39.670 C 193.172 37.085,185.486 35.422,181.417 36.492 M281.750 36.406 C 279.405 37.027,277.633 37.836,275.949 39.057 C 272.923 41.250,272.483 41.255,270.487 39.119 L 269.225 37.768 267.571 37.777 C 265.556 37.788,264.287 38.198,263.660 39.042 L 263.257 39.583 263.263 58.958 C 263.269 81.020,263.111 78.837,264.759 79.663 C 266.744 80.659,269.535 80.306,270.587 78.927 L 271.000 78.385 271.000 67.436 C 271.000 53.565,270.998 53.585,272.816 49.508 C 273.768 47.372,274.085 46.988,276.245 45.352 C 279.536 42.859,284.369 42.785,287.407 45.180 C 291.374 48.308,291.500 48.974,291.500 66.817 L 291.500 78.432 292.125 79.027 C 293.771 80.595,297.230 80.659,298.767 79.150 L 299.500 78.431 299.496 66.174 C 299.492 51.618,299.306 48.208,298.330 44.791 C 297.915 43.340,294.167 39.144,292.507 38.272 C 289.118 36.493,284.471 35.687,281.750 36.406 M358.000 36.360 C 354.837 37.027,350.619 38.723,349.416 39.812 C 349.049 40.145,348.486 40.595,348.166 40.813 C 347.846 41.030,347.283 41.581,346.917 42.036 C 346.550 42.492,345.901 43.273,345.475 43.773 C 344.651 44.738,342.806 49.024,341.969 51.918 C 341.452 53.705,341.383 63.158,341.873 64.952 C 342.341 66.662,344.307 71.701,344.795 72.440 C 346.036 74.321,348.161 76.737,348.911 77.121 C 349.189 77.263,349.965 77.777,350.634 78.264 C 355.421 81.746,366.873 81.845,371.366 78.445 C 371.838 78.087,372.605 77.562,373.071 77.277 C 373.536 76.993,374.067 76.571,374.250 76.341 C 374.433 76.110,375.091 75.358,375.712 74.669 C 376.793 73.469,378.538 70.338,379.260 68.302 C 380.873 63.754,380.486 50.388,378.668 47.835 C 378.494 47.590,378.075 46.759,377.738 45.987 C 376.684 43.575,374.472 41.175,371.417 39.128 C 368.434 37.130,361.316 35.662,358.000 36.360 M248.237 37.778 C 247.282 37.844,247.177 37.894,246.428 38.656 L 245.632 39.463 245.647 59.019 L 245.662 78.574 246.316 79.228 C 247.080 79.991,247.746 80.152,250.083 80.137 C 252.190 80.123,252.477 80.034,253.117 79.195 L 253.667 78.474 253.667 59.062 C 253.667 37.904,253.729 39.256,252.715 38.292 C 252.193 37.797,250.615 37.616,248.237 37.778 M328.561 37.815 C 327.894 37.987,327.108 38.547,326.673 39.157 C 326.291 39.694,326.120 77.957,326.497 78.661 C 327.488 80.513,332.128 80.783,333.824 79.087 L 334.417 78.494 334.417 59.026 L 334.417 39.557 333.954 38.950 C 333.248 38.025,330.214 37.386,328.561 37.815 M364.376 44.012 C 364.948 44.204,365.567 44.495,365.750 44.659 C 365.933 44.823,366.421 45.171,366.833 45.433 C 368.250 46.331,369.002 47.042,369.609 48.062 C 369.944 48.624,370.352 49.234,370.516 49.417 C 372.932 52.124,373.145 64.876,370.829 68.083 C 370.564 68.450,370.045 69.249,369.675 69.860 C 368.959 71.042,368.482 71.476,366.500 72.746 C 363.300 74.797,359.629 74.967,356.514 73.208 C 350.991 70.088,348.899 64.995,349.497 56.122 C 349.749 52.392,351.492 48.296,353.533 46.639 C 357.237 43.632,360.721 42.788,364.376 44.012 M192.172 61.086 C 193.663 61.842,194.074 64.000,193.239 66.700 C 192.141 70.251,191.761 70.836,189.111 73.062 C 186.226 75.485,179.948 75.421,177.937 72.947 C 174.001 68.104,176.083 62.783,182.548 61.159 C 185.142 60.507,190.943 60.463,192.172 61.086 M311.890 70.332 C 309.843 71.242,307.897 74.149,308.152 75.917 C 309.012 81.888,317.335 81.888,318.062 75.917 C 318.462 72.626,314.597 69.128,311.890 70.332 " stroke="none" fill="#dbdbdb" fill-rule="evenodd"></path><path id="path1" d="M54.917 23.006 C 48.488 23.465,42.261 25.566,38.956 28.391 C 34.745 31.992,33.279 33.552,31.416 36.417 C 30.700 37.517,29.981 38.567,29.818 38.750 C 29.655 38.933,29.172 40.058,28.746 41.250 C 28.320 42.442,27.756 44.017,27.493 44.750 C 25.503 50.301,25.675 60.304,27.847 65.263 C 28.044 65.714,28.499 66.981,28.858 68.079 C 29.218 69.176,29.651 70.226,29.822 70.412 C 29.993 70.598,30.670 71.604,31.326 72.647 C 32.862 75.090,35.805 78.427,37.667 79.839 C 37.896 80.013,38.646 80.590,39.333 81.122 C 41.249 82.603,46.440 85.115,48.398 85.507 C 51.799 86.188,53.970 86.364,60.109 86.455 C 66.879 86.555,66.752 86.569,67.742 85.656 C 68.708 84.766,68.723 84.654,68.679 78.583 C 68.637 72.820,68.679 73.035,67.431 72.177 L 66.691 71.667 62.220 71.672 C 56.448 71.679,54.631 71.428,52.500 70.332 C 51.996 70.073,50.946 69.563,50.167 69.199 C 48.637 68.485,45.774 66.019,45.222 64.940 C 45.074 64.652,44.678 64.079,44.341 63.667 C 41.812 60.574,41.105 54.340,42.650 48.766 C 42.924 47.779,43.216 47.231,44.919 44.500 C 45.813 43.067,47.991 40.967,49.295 40.282 C 49.914 39.957,50.869 39.420,51.418 39.089 C 53.636 37.753,55.271 37.498,61.721 37.482 C 69.119 37.463,68.638 37.928,68.684 30.750 C 68.723 24.655,68.691 24.457,67.506 23.520 L 66.691 22.877 61.637 22.882 C 58.858 22.885,55.833 22.941,54.917 23.006 " stroke="none" fill="#31e385" fill-rule="evenodd"></path><path id="path2" d="M0.000 50.583 L 0.000 101.167 200.000 101.167 L 400.000 101.167 400.000 50.583 L 400.000 0.000 200.000 0.000 L 0.000 0.000 0.000 50.583 M217.583 18.029 C 219.177 18.378,219.531 18.691,220.217 20.358 L 220.583 21.250 220.628 49.741 C 220.678 82.077,220.781 79.589,219.348 80.884 C 216.945 83.055,209.758 82.190,208.797 79.614 C 208.376 78.484,208.327 21.938,208.746 20.550 C 209.494 18.072,213.095 17.045,217.583 18.029 M236.188 18.314 C 236.922 18.818,237.403 19.550,237.737 20.675 C 238.077 21.818,238.144 77.946,237.807 79.284 C 237.331 81.177,236.086 81.812,232.583 81.950 C 228.828 82.097,227.280 81.430,226.315 79.248 C 225.940 78.400,225.811 22.610,226.181 21.250 C 226.433 20.325,227.474 18.754,228.067 18.404 C 229.305 17.672,235.157 17.607,236.188 18.314 M251.333 18.506 C 251.654 18.666,252.060 18.956,252.234 19.149 C 252.409 19.342,252.642 19.500,252.752 19.500 C 253.590 19.500,254.994 21.472,255.533 23.406 C 256.797 27.940,252.267 32.435,247.886 30.994 C 245.647 30.258,244.808 29.583,244.238 28.059 C 244.072 27.614,243.759 27.013,243.542 26.722 C 242.516 25.347,243.721 21.108,245.449 20.015 C 245.798 19.795,246.398 19.399,246.784 19.136 C 248.462 17.989,249.904 17.789,251.333 18.506 M332.134 18.400 C 332.381 18.528,332.725 18.788,332.897 18.979 C 333.070 19.169,333.537 19.483,333.937 19.676 C 336.913 21.117,337.583 26.609,335.110 29.292 C 332.369 32.266,327.243 31.783,325.346 28.373 C 325.053 27.847,324.636 27.169,324.418 26.867 C 321.980 23.479,328.378 16.458,332.134 18.400 M68.083 21.705 C 69.054 22.207,69.606 22.764,70.263 23.908 L 70.737 24.733 70.694 30.242 C 70.671 33.271,70.607 35.900,70.552 36.083 C 70.348 36.764,69.285 37.832,68.358 38.288 L 67.417 38.750 61.583 38.848 C 55.391 38.951,54.649 39.040,53.083 39.866 C 52.717 40.059,51.831 40.459,51.116 40.755 C 49.323 41.497,46.357 44.127,45.819 45.451 C 45.625 45.930,45.238 46.681,44.960 47.119 C 42.891 50.379,42.591 57.692,44.386 61.110 C 45.976 64.139,46.417 64.708,48.563 66.500 C 50.413 68.045,50.760 68.225,53.917 69.275 L 56.750 70.218 62.167 70.321 L 67.583 70.423 68.452 70.878 C 69.085 71.209,69.499 71.595,69.979 72.302 L 70.638 73.272 70.677 78.761 C 70.719 84.828,70.712 84.888,69.813 86.109 C 68.292 88.173,68.072 88.219,60.221 88.123 C 53.449 88.040,52.043 87.910,49.823 87.163 C 49.312 86.991,47.910 86.616,46.705 86.330 C 44.838 85.886,44.313 85.684,43.133 84.958 C 42.372 84.490,41.092 83.753,40.288 83.320 C 39.484 82.886,38.539 82.281,38.189 81.974 C 37.840 81.668,36.985 80.947,36.290 80.372 C 34.939 79.254,32.140 76.308,31.483 75.312 C 31.263 74.979,30.561 73.929,29.923 72.978 C 29.284 72.028,28.596 70.792,28.392 70.232 C 28.189 69.672,27.686 68.547,27.274 67.732 C 24.010 61.271,23.949 48.097,27.153 41.583 C 27.694 40.483,28.190 39.396,28.257 39.167 C 28.410 38.635,29.239 37.043,29.646 36.500 C 29.817 36.271,30.445 35.406,31.040 34.577 C 33.119 31.686,37.483 27.585,40.102 26.060 C 44.144 23.709,44.138 23.712,46.049 23.255 C 47.076 23.009,48.179 22.700,48.500 22.568 C 50.863 21.596,52.096 21.442,58.417 21.326 C 66.814 21.173,67.073 21.183,68.083 21.705 M89.274 21.724 C 90.020 21.864,91.203 22.176,91.903 22.417 C 92.603 22.659,93.936 23.041,94.864 23.265 C 96.878 23.753,97.595 24.055,99.200 25.094 C 99.867 25.525,100.888 26.130,101.469 26.438 C 102.050 26.747,102.864 27.280,103.279 27.624 C 105.076 29.116,107.390 31.256,107.963 31.955 C 108.304 32.372,108.821 32.957,109.112 33.255 C 109.403 33.553,110.143 34.574,110.756 35.523 C 111.369 36.473,112.119 37.625,112.424 38.083 C 112.728 38.542,113.201 39.554,113.474 40.333 C 113.748 41.112,114.277 42.397,114.650 43.187 C 117.168 48.516,117.153 60.868,114.622 66.333 C 114.261 67.112,113.751 68.377,113.487 69.144 C 112.042 73.351,105.638 80.827,101.750 82.846 C 101.200 83.132,99.882 83.886,98.822 84.522 C 97.088 85.562,96.685 85.728,94.822 86.172 C 93.682 86.443,92.075 86.850,91.250 87.077 C 88.508 87.831,87.598 87.906,81.136 87.911 L 75.023 87.917 74.494 87.417 C 73.968 86.919,73.020 85.553,72.760 84.917 C 72.685 84.733,72.638 82.006,72.657 78.856 L 72.690 73.129 73.373 72.128 C 74.487 70.496,74.282 70.548,79.973 70.452 C 85.351 70.361,85.117 70.395,89.051 69.144 L 91.686 68.306 93.105 67.069 C 93.885 66.389,94.781 65.636,95.095 65.396 C 95.409 65.157,95.667 64.867,95.667 64.753 C 95.667 64.639,96.077 63.745,96.578 62.767 C 99.329 57.402,99.445 50.869,96.857 47.046 C 96.498 46.516,96.008 45.690,95.766 45.208 C 95.525 44.727,95.262 44.333,95.182 44.333 C 95.102 44.333,94.297 43.659,93.393 42.836 C 92.002 41.568,91.546 41.258,90.421 40.819 C 89.690 40.534,88.673 40.089,88.160 39.830 C 86.484 38.984,85.227 38.814,79.885 38.715 C 74.334 38.612,74.504 38.653,73.357 37.134 L 72.687 36.247 72.649 30.495 L 72.612 24.743 73.254 23.535 C 74.496 21.200,74.125 21.295,81.667 21.390 C 86.278 21.449,88.273 21.536,89.274 21.724 M150.245 34.833 C 151.260 35.035,152.281 35.477,152.967 36.012 C 153.179 36.177,153.854 36.477,154.467 36.678 C 155.862 37.135,157.642 38.294,158.433 39.259 C 158.765 39.664,159.291 40.153,159.603 40.345 C 160.306 40.780,161.555 42.384,162.241 43.732 C 162.525 44.292,162.996 45.074,163.286 45.471 C 164.673 47.361,164.303 51.068,162.647 51.878 C 161.819 52.283,159.413 52.554,157.464 52.461 C 154.745 52.332,152.927 51.215,151.766 48.959 L 151.135 47.732 149.322 46.927 C 146.096 45.493,143.713 45.651,140.072 47.537 C 139.382 47.895,139.191 48.092,139.034 48.613 C 138.928 48.963,138.578 49.625,138.257 50.083 C 136.816 52.141,136.601 53.243,136.595 58.583 C 136.589 63.526,136.928 65.628,137.922 66.809 C 138.137 67.065,138.594 67.858,138.938 68.571 C 139.592 69.930,140.127 70.424,141.477 70.915 C 141.811 71.037,142.308 71.251,142.583 71.392 C 145.158 72.711,150.587 71.473,151.674 69.319 C 152.320 68.038,153.368 67.043,154.890 66.265 L 156.163 65.614 158.351 65.633 C 162.580 65.668,163.643 66.215,164.045 68.560 C 164.274 69.896,163.917 71.411,163.148 72.377 C 162.873 72.721,162.538 73.267,162.403 73.590 C 161.946 74.683,160.653 76.528,159.796 77.307 C 159.327 77.734,158.525 78.465,158.013 78.931 C 156.747 80.087,155.326 80.907,153.833 81.346 C 153.146 81.549,152.283 81.885,151.917 82.093 C 149.372 83.538,142.071 83.583,139.250 82.171 C 138.700 81.896,137.650 81.478,136.917 81.243 C 135.468 80.778,133.735 79.717,132.871 78.767 C 132.571 78.437,132.255 78.167,132.169 78.167 C 131.884 78.167,129.855 76.096,129.466 75.408 C 129.255 75.037,128.637 74.062,128.093 73.242 C 126.874 71.406,126.435 70.352,126.087 68.417 C 125.938 67.592,125.635 66.392,125.414 65.750 C 124.224 62.298,124.264 55.433,125.498 51.333 C 125.678 50.737,126.046 49.332,126.316 48.209 C 126.822 46.109,127.335 45.033,128.654 43.301 C 128.982 42.870,129.438 42.207,129.667 41.827 C 129.896 41.446,130.555 40.752,131.131 40.283 C 131.708 39.815,132.362 39.192,132.586 38.899 C 133.164 38.140,134.810 37.090,136.087 36.665 C 136.689 36.465,137.558 36.048,138.019 35.737 C 139.722 34.591,146.496 34.091,150.245 34.833 M190.750 34.881 C 191.810 35.125,192.701 35.521,193.250 35.991 C 193.433 36.149,194.033 36.444,194.583 36.648 C 196.017 37.180,196.858 37.713,197.555 38.532 C 197.891 38.927,198.282 39.362,198.424 39.500 C 198.565 39.637,199.091 40.148,199.592 40.633 C 200.566 41.579,200.947 42.213,201.417 43.667 C 201.580 44.171,201.859 44.791,202.037 45.045 C 203.426 47.027,203.667 50.154,203.664 66.149 C 203.662 76.804,203.628 78.514,203.403 79.160 C 202.777 80.958,202.241 81.352,199.783 81.822 C 196.942 82.366,195.309 82.101,193.045 80.730 C 191.573 79.839,191.398 79.834,189.812 80.646 C 189.117 81.001,188.257 81.386,187.900 81.502 C 187.542 81.618,187.056 81.849,186.820 82.015 C 184.702 83.499,177.905 83.641,175.593 82.249 C 175.089 81.945,174.206 81.540,173.630 81.348 C 172.609 81.007,172.407 80.899,171.064 79.968 C 170.159 79.341,168.601 77.696,168.254 77.000 C 168.094 76.679,167.751 76.192,167.492 75.917 C 164.842 73.103,164.591 65.053,167.048 61.693 C 169.325 58.579,170.419 57.476,171.807 56.889 C 172.417 56.631,173.320 56.178,173.812 55.883 C 176.232 54.434,179.840 53.856,186.684 53.821 C 191.813 53.796,192.331 53.212,191.125 48.823 C 190.400 46.181,185.363 44.039,182.500 45.154 C 180.422 45.964,178.688 47.215,177.712 48.609 C 176.810 49.896,173.557 50.841,171.089 50.533 C 167.446 50.078,166.020 48.082,167.610 45.661 C 167.822 45.337,168.118 44.662,168.267 44.161 C 168.696 42.714,169.086 42.092,170.405 40.756 C 171.085 40.068,171.794 39.290,171.980 39.028 C 172.561 38.213,174.062 37.185,175.350 36.721 C 176.028 36.476,176.733 36.148,176.917 35.990 C 177.720 35.301,178.903 34.906,181.083 34.598 C 182.230 34.437,189.779 34.658,190.750 34.881 M290.014 34.979 C 290.618 35.172,291.405 35.539,291.764 35.795 C 292.123 36.050,292.904 36.498,293.500 36.789 C 294.634 37.343,295.165 37.805,297.509 40.275 C 298.716 41.546,298.989 41.941,299.289 42.847 C 299.484 43.435,299.883 44.442,300.176 45.083 C 300.469 45.725,300.942 47.112,301.225 48.167 L 301.742 50.083 301.795 64.284 L 301.849 78.485 301.488 79.325 C 300.051 82.666,291.695 83.200,290.144 80.050 L 289.750 79.250 289.667 65.083 L 289.583 50.917 288.781 49.455 C 288.328 48.629,287.785 47.874,287.531 47.717 C 287.285 47.565,286.858 47.232,286.583 46.978 C 283.937 44.533,277.442 45.491,275.360 48.634 C 275.136 48.973,274.811 49.407,274.639 49.598 C 273.619 50.731,273.466 52.765,273.351 66.667 C 273.237 80.457,273.325 79.574,271.943 80.788 C 269.939 82.547,263.629 82.405,262.184 80.567 C 261.413 79.587,261.428 79.981,261.375 59.355 C 261.315 36.123,261.192 37.497,263.416 36.488 C 266.396 35.137,269.946 35.479,272.042 37.319 C 272.650 37.853,274.166 38.072,274.419 37.663 C 274.477 37.569,275.029 37.243,275.646 36.938 C 276.264 36.633,277.165 36.111,277.650 35.777 C 279.538 34.478,286.954 33.999,290.014 34.979 M364.667 34.665 C 366.983 34.931,367.775 35.153,368.790 35.823 C 369.318 36.172,370.249 36.620,370.859 36.820 C 373.474 37.676,377.634 41.550,378.613 44.038 C 378.767 44.430,379.163 45.060,379.493 45.439 C 383.185 49.686,383.130 68.161,379.412 72.323 C 379.121 72.649,378.642 73.424,378.348 74.043 C 377.138 76.598,372.608 80.375,369.667 81.282 C 368.887 81.522,367.950 81.888,367.583 82.096 C 365.079 83.515,357.414 83.554,354.667 82.162 C 354.162 81.906,353.188 81.534,352.500 81.335 C 350.952 80.887,350.189 80.451,348.789 79.216 C 348.187 78.685,347.386 78.043,347.009 77.790 C 346.632 77.537,346.082 76.982,345.787 76.557 C 345.492 76.131,344.961 75.514,344.608 75.183 C 343.876 74.499,342.899 72.919,342.227 71.333 C 341.974 70.737,341.602 70.025,341.400 69.750 C 339.374 66.997,339.445 49.901,341.492 47.298 C 341.664 47.079,342.051 46.342,342.352 45.659 C 342.974 44.249,344.385 42.073,344.832 41.834 C 344.996 41.746,345.329 41.335,345.572 40.920 C 345.815 40.506,346.076 40.167,346.153 40.167 C 346.229 40.167,346.744 39.773,347.296 39.292 C 349.226 37.612,349.712 37.280,350.948 36.800 C 351.632 36.534,352.493 36.099,352.860 35.833 C 354.429 34.697,360.076 34.138,364.667 34.665 M253.102 36.178 C 255.861 37.615,255.667 35.898,255.663 58.905 C 255.658 79.108,255.654 79.237,254.917 80.359 C 253.664 82.264,246.676 82.665,244.942 80.931 C 243.953 79.942,243.989 80.758,243.979 59.036 C 243.968 35.051,243.709 36.934,247.167 35.829 C 248.406 35.432,252.086 35.649,253.102 36.178 M333.912 36.267 C 335.183 36.801,335.692 37.356,336.016 38.559 C 336.342 39.770,336.253 78.729,335.922 79.658 C 334.882 82.580,326.994 83.035,324.841 80.298 C 323.960 79.177,324.000 80.198,324.000 58.995 L 324.000 39.313 324.431 38.402 C 325.629 35.869,330.405 34.794,333.912 36.267 M359.417 45.746 C 358.293 46.033,356.696 46.652,356.575 46.847 C 356.521 46.934,356.164 47.161,355.780 47.353 C 351.521 49.481,350.140 59.853,353.089 67.574 C 353.737 69.271,356.336 71.258,358.795 71.936 C 361.914 72.797,366.769 71.344,367.934 69.202 C 370.954 63.650,370.823 64.104,370.823 59.167 C 370.823 54.414,370.567 53.499,367.902 48.719 C 366.839 46.813,361.948 45.100,359.417 45.746 M189.000 62.672 C 188.679 62.747,187.329 62.897,186.000 63.004 C 179.531 63.527,177.758 64.766,178.045 68.563 C 178.393 73.172,184.594 74.536,188.690 70.905 C 189.024 70.609,189.444 70.321,189.625 70.263 C 189.938 70.164,190.479 69.087,191.066 67.395 C 191.752 65.416,191.482 63.492,190.427 62.840 C 189.828 62.470,189.847 62.472,189.000 62.672 M315.387 68.599 C 318.892 69.793,320.696 74.623,319.165 78.715 C 318.821 79.637,317.271 81.333,316.774 81.333 C 316.664 81.333,316.182 81.628,315.703 81.988 C 314.313 83.032,312.051 83.079,310.865 82.087 C 310.619 81.881,310.113 81.558,309.742 81.370 C 307.358 80.160,306.362 78.140,306.547 74.891 C 306.696 72.278,306.985 71.783,309.879 69.184 C 310.782 68.372,313.786 68.053,315.387 68.599 " stroke="none" fill="#040505" fill-rule="evenodd"></path><path id="path3" d="M75.555 22.647 C 74.103 22.930,73.821 23.999,73.735 29.567 C 73.642 35.648,73.697 36.200,74.483 37.043 L 75.087 37.690 79.752 37.743 C 85.648 37.809,87.602 38.115,89.531 39.275 C 90.053 39.588,90.963 40.064,91.554 40.332 C 92.881 40.934,95.597 43.393,96.593 44.893 C 96.966 45.456,97.582 46.355,97.961 46.891 C 100.394 50.329,100.185 59.177,97.580 63.061 C 97.173 63.668,96.656 64.527,96.432 64.970 C 96.044 65.736,94.963 66.855,93.282 68.233 C 92.863 68.576,91.896 69.106,91.135 69.410 C 90.373 69.714,89.337 70.153,88.833 70.386 C 87.075 71.200,85.820 71.359,80.500 71.442 C 75.068 71.527,74.964 71.546,74.250 72.548 L 73.750 73.250 73.733 78.333 C 73.709 85.454,73.962 86.414,75.925 86.651 C 77.850 86.883,88.170 86.556,90.455 86.191 C 94.593 85.530,95.156 85.352,97.833 83.855 C 98.429 83.522,99.422 83.025,100.040 82.750 C 102.538 81.639,107.993 76.622,109.702 73.865 C 110.003 73.378,110.749 72.215,111.358 71.281 C 112.232 69.943,112.579 69.213,112.998 67.833 C 113.290 66.871,113.783 65.399,114.093 64.563 C 115.885 59.729,115.963 49.766,114.245 45.241 C 114.004 44.604,113.483 43.092,113.087 41.880 C 112.644 40.521,112.181 39.435,111.879 39.047 C 111.610 38.700,111.102 37.929,110.750 37.333 C 109.605 35.392,109.289 34.931,108.430 33.939 C 107.292 32.624,104.760 30.102,103.833 29.360 C 103.421 29.030,102.757 28.468,102.359 28.112 C 101.960 27.755,101.069 27.202,100.379 26.883 C 99.688 26.564,98.627 25.998,98.020 25.625 C 95.609 24.144,91.005 23.000,86.110 22.666 C 83.560 22.492,76.416 22.479,75.555 22.647 " stroke="none" fill="#0465ea" fill-rule="evenodd"></path><path id="path4" d="M212.500 17.832 C 210.349 18.106,209.242 18.907,208.746 20.550 C 208.327 21.938,208.376 78.484,208.797 79.614 C 209.758 82.190,216.945 83.055,219.348 80.884 C 220.781 79.589,220.678 82.077,220.628 49.741 L 220.583 21.250 220.217 20.358 C 219.531 18.691,219.177 18.378,217.583 18.029 C 216.406 17.771,213.779 17.669,212.500 17.832 M229.072 17.982 C 227.839 18.296,226.606 19.690,226.181 21.250 C 225.811 22.610,225.940 78.400,226.315 79.248 C 227.280 81.430,228.828 82.097,232.583 81.950 C 236.086 81.812,237.331 81.177,237.807 79.284 C 238.144 77.946,238.077 21.818,237.737 20.675 C 237.016 18.245,236.426 17.925,232.596 17.884 C 230.939 17.867,229.353 17.911,229.072 17.982 M248.185 18.344 C 247.799 18.516,247.169 18.873,246.784 19.136 C 246.398 19.399,245.798 19.795,245.449 20.015 C 243.721 21.108,242.516 25.347,243.542 26.722 C 243.759 27.013,244.072 27.614,244.238 28.059 C 245.518 31.482,251.035 32.354,253.770 29.566 C 255.883 27.413,256.296 24.368,254.860 21.551 C 254.505 20.857,253.112 19.500,252.752 19.500 C 252.642 19.500,252.409 19.342,252.234 19.149 C 251.378 18.202,249.386 17.806,248.185 18.344 M328.943 18.425 C 325.383 19.731,322.779 24.589,324.418 26.867 C 324.636 27.169,325.053 27.847,325.346 28.373 C 327.243 31.783,332.369 32.266,335.110 29.292 C 337.583 26.609,336.913 21.117,333.937 19.676 C 333.537 19.483,333.070 19.169,332.897 18.979 C 332.154 18.157,330.359 17.906,328.943 18.425 M216.009 19.935 C 217.090 20.256,217.787 20.801,218.286 21.715 L 218.656 22.392 218.664 50.433 L 218.671 78.474 217.926 79.084 C 216.028 80.640,212.204 80.524,211.031 78.876 L 210.678 78.380 210.661 50.378 C 210.646 25.024,210.670 22.316,210.912 21.736 C 211.643 19.987,213.716 19.254,216.009 19.935 M234.651 20.149 C 235.419 20.381,235.605 20.520,235.901 21.086 L 236.250 21.750 236.294 50.072 L 236.337 78.395 235.922 79.022 C 234.816 80.693,229.865 80.614,228.519 78.903 L 228.164 78.451 228.207 50.267 C 228.256 18.351,228.115 21.362,229.606 20.236 L 230.295 19.716 232.023 19.796 C 232.973 19.841,234.156 20.000,234.651 20.149 M251.500 20.937 C 253.709 21.957,254.390 24.617,253.131 27.306 C 251.796 30.155,247.277 30.001,245.757 27.055 C 243.694 23.057,247.443 19.064,251.500 20.937 M332.601 21.097 C 336.480 23.228,335.347 28.783,330.917 29.357 C 329.163 29.584,327.809 28.843,326.934 27.178 C 324.699 22.925,328.502 18.846,332.601 21.097 M58.417 21.326 C 52.096 21.442,50.863 21.596,48.500 22.568 C 48.179 22.700,47.076 23.009,46.049 23.255 C 44.138 23.712,44.144 23.709,40.102 26.060 C 37.483 27.585,33.119 31.686,31.040 34.577 C 30.445 35.406,29.817 36.271,29.646 36.500 C 29.239 37.043,28.410 38.635,28.257 39.167 C 28.190 39.396,27.694 40.483,27.153 41.583 C 23.949 48.097,24.010 61.271,27.274 67.732 C 27.686 68.547,28.189 69.672,28.392 70.232 C 28.596 70.792,29.284 72.028,29.923 72.978 C 30.561 73.929,31.263 74.979,31.483 75.312 C 32.140 76.308,34.939 79.254,36.290 80.372 C 36.985 80.947,37.840 81.668,38.189 81.974 C 38.539 82.281,39.484 82.886,40.288 83.320 C 41.092 83.753,42.372 84.490,43.133 84.958 C 44.313 85.684,44.838 85.886,46.705 86.330 C 47.910 86.616,49.312 86.991,49.823 87.163 C 52.043 87.910,53.449 88.040,60.221 88.123 C 68.072 88.219,68.292 88.173,69.813 86.109 C 70.712 84.888,70.719 84.828,70.677 78.761 L 70.638 73.272 69.979 72.302 C 69.499 71.595,69.085 71.209,68.452 70.878 L 67.583 70.423 62.167 70.321 L 56.750 70.218 53.917 69.275 C 50.760 68.225,50.413 68.045,48.563 66.500 C 46.417 64.708,45.976 64.139,44.386 61.110 C 42.591 57.692,42.891 50.379,44.960 47.119 C 45.238 46.681,45.625 45.930,45.819 45.451 C 46.357 44.127,49.323 41.497,51.116 40.755 C 51.831 40.459,52.717 40.059,53.083 39.866 C 54.649 39.040,55.391 38.951,61.583 38.848 L 67.417 38.750 68.358 38.288 C 69.285 37.832,70.348 36.764,70.552 36.083 C 70.607 35.900,70.671 33.271,70.694 30.242 L 70.737 24.733 70.263 23.908 C 68.681 21.155,68.612 21.140,58.417 21.326 M74.917 21.584 C 74.142 22.007,73.944 22.239,73.254 23.535 L 72.612 24.743 72.649 30.495 L 72.687 36.247 73.357 37.134 C 74.504 38.653,74.334 38.612,79.885 38.715 C 85.227 38.814,86.484 38.984,88.160 39.830 C 88.673 40.089,89.690 40.534,90.421 40.819 C 91.546 41.258,92.002 41.568,93.393 42.836 C 94.297 43.659,95.102 44.333,95.182 44.333 C 95.262 44.333,95.525 44.727,95.766 45.208 C 96.008 45.690,96.498 46.516,96.857 47.046 C 99.445 50.869,99.329 57.402,96.578 62.767 C 96.077 63.745,95.667 64.639,95.667 64.753 C 95.667 64.867,95.409 65.157,95.095 65.396 C 94.781 65.636,93.885 66.389,93.105 67.069 L 91.686 68.306 89.051 69.144 C 85.117 70.395,85.351 70.361,79.973 70.452 C 74.282 70.548,74.487 70.496,73.373 72.128 L 72.690 73.129 72.657 78.856 C 72.638 82.006,72.685 84.733,72.760 84.917 C 73.020 85.553,73.968 86.919,74.494 87.417 L 75.023 87.917 81.136 87.911 C 87.598 87.906,88.508 87.831,91.250 87.077 C 92.075 86.850,93.682 86.443,94.822 86.172 C 96.685 85.728,97.088 85.562,98.822 84.522 C 99.882 83.886,101.200 83.132,101.750 82.846 C 105.638 80.827,112.042 73.351,113.487 69.144 C 113.751 68.377,114.261 67.112,114.622 66.333 C 117.153 60.868,117.168 48.516,114.650 43.187 C 114.277 42.397,113.748 41.112,113.474 40.333 C 113.201 39.554,112.728 38.542,112.424 38.083 C 112.119 37.625,111.369 36.473,110.756 35.523 C 110.143 34.574,109.403 33.553,109.112 33.255 C 108.821 32.957,108.304 32.372,107.963 31.955 C 107.390 31.256,105.076 29.116,103.279 27.624 C 102.864 27.280,102.050 26.747,101.469 26.438 C 100.888 26.130,99.867 25.525,99.200 25.094 C 97.595 24.055,96.878 23.753,94.864 23.265 C 93.936 23.041,92.603 22.659,91.903 22.417 C 89.497 21.587,88.388 21.476,81.667 21.390 C 76.099 21.320,75.362 21.341,74.917 21.584 M86.110 22.666 C 91.005 23.000,95.609 24.144,98.020 25.625 C 98.627 25.998,99.688 26.564,100.379 26.883 C 101.069 27.202,101.960 27.755,102.359 28.112 C 102.757 28.468,103.421 29.030,103.833 29.360 C 104.760 30.102,107.292 32.624,108.430 33.939 C 109.289 34.931,109.605 35.392,110.750 37.333 C 111.102 37.929,111.610 38.700,111.879 39.047 C 112.181 39.435,112.644 40.521,113.087 41.880 C 113.483 43.092,114.004 44.604,114.245 45.241 C 115.963 49.766,115.885 59.729,114.093 64.563 C 113.783 65.399,113.290 66.871,112.998 67.833 C 112.579 69.213,112.232 69.943,111.358 71.281 C 110.749 72.215,110.003 73.378,109.702 73.865 C 107.993 76.622,102.538 81.639,100.040 82.750 C 99.422 83.025,98.429 83.522,97.833 83.855 C 95.156 85.352,94.593 85.530,90.455 86.191 C 88.170 86.556,77.850 86.883,75.925 86.651 C 73.962 86.414,73.709 85.454,73.733 78.333 L 73.750 73.250 74.250 72.548 C 74.964 71.546,75.068 71.527,80.500 71.442 C 85.820 71.359,87.075 71.200,88.833 70.386 C 89.337 70.153,90.373 69.714,91.135 69.410 C 91.896 69.106,92.863 68.576,93.282 68.233 C 94.963 66.855,96.044 65.736,96.432 64.970 C 96.656 64.527,97.173 63.668,97.580 63.061 C 100.185 59.177,100.394 50.329,97.961 46.891 C 97.582 46.355,96.966 45.456,96.593 44.893 C 95.597 43.393,92.881 40.934,91.554 40.332 C 90.963 40.064,90.053 39.588,89.531 39.275 C 87.602 38.115,85.648 37.809,79.752 37.743 L 75.087 37.690 74.483 37.043 C 73.697 36.200,73.642 35.648,73.735 29.567 C 73.821 23.999,74.103 22.930,75.555 22.647 C 76.416 22.479,83.560 22.492,86.110 22.666 M67.506 23.520 C 68.691 24.457,68.723 24.655,68.684 30.750 C 68.638 37.928,69.119 37.463,61.721 37.482 C 55.271 37.498,53.636 37.753,51.418 39.089 C 50.869 39.420,49.914 39.957,49.295 40.282 C 47.991 40.967,45.813 43.067,44.919 44.500 C 43.216 47.231,42.924 47.779,42.650 48.766 C 41.105 54.340,41.812 60.574,44.341 63.667 C 44.678 64.079,45.074 64.652,45.222 64.940 C 45.774 66.019,48.637 68.485,50.167 69.199 C 50.946 69.563,51.996 70.073,52.500 70.332 C 54.631 71.428,56.448 71.679,62.220 71.672 L 66.691 71.667 67.431 72.177 C 68.679 73.035,68.637 72.820,68.679 78.583 C 68.723 84.654,68.708 84.766,67.742 85.656 C 66.752 86.569,66.879 86.555,60.109 86.455 C 53.970 86.364,51.799 86.188,48.398 85.507 C 46.440 85.115,41.249 82.603,39.333 81.122 C 38.646 80.590,37.896 80.013,37.667 79.839 C 35.805 78.427,32.862 75.090,31.326 72.647 C 30.670 71.604,29.993 70.598,29.822 70.412 C 29.651 70.226,29.218 69.176,28.858 68.079 C 28.499 66.981,28.044 65.714,27.847 65.263 C 25.675 60.304,25.503 50.301,27.493 44.750 C 27.756 44.017,28.320 42.442,28.746 41.250 C 29.172 40.058,29.655 38.933,29.818 38.750 C 29.981 38.567,30.700 37.517,31.416 36.417 C 33.279 33.552,34.745 31.992,38.956 28.391 C 40.710 26.892,45.985 24.413,48.417 23.944 C 53.269 23.008,54.753 22.889,61.637 22.882 L 66.691 22.877 67.506 23.520 M141.364 34.674 C 139.617 34.893,138.968 35.099,138.019 35.737 C 137.558 36.048,136.689 36.465,136.087 36.665 C 134.810 37.090,133.164 38.140,132.586 38.899 C 132.362 39.192,131.708 39.815,131.131 40.283 C 130.555 40.752,129.896 41.446,129.667 41.827 C 129.438 42.207,128.982 42.870,128.654 43.301 C 127.335 45.033,126.822 46.109,126.316 48.209 C 126.046 49.332,125.678 50.737,125.498 51.333 C 124.264 55.433,124.224 62.298,125.414 65.750 C 125.635 66.392,125.938 67.592,126.087 68.417 C 126.435 70.352,126.874 71.406,128.093 73.242 C 128.637 74.062,129.255 75.037,129.466 75.408 C 129.855 76.096,131.884 78.167,132.169 78.167 C 132.255 78.167,132.571 78.437,132.871 78.767 C 133.735 79.717,135.468 80.778,136.917 81.243 C 137.650 81.478,138.700 81.896,139.250 82.171 C 142.071 83.583,149.372 83.538,151.917 82.093 C 152.283 81.885,153.146 81.549,153.833 81.346 C 155.326 80.907,156.747 80.087,158.013 78.931 C 158.525 78.465,159.327 77.734,159.796 77.307 C 160.653 76.528,161.946 74.683,162.403 73.590 C 162.538 73.267,162.873 72.721,163.148 72.377 C 163.917 71.411,164.274 69.896,164.045 68.560 C 163.643 66.215,162.580 65.668,158.351 65.633 L 156.163 65.614 154.890 66.265 C 153.368 67.043,152.320 68.038,151.674 69.319 C 150.587 71.473,145.158 72.711,142.583 71.392 C 142.308 71.251,141.811 71.037,141.477 70.915 C 140.127 70.424,139.592 69.930,138.938 68.571 C 138.594 67.858,138.137 67.065,137.922 66.809 C 136.928 65.628,136.589 63.526,136.595 58.583 C 136.601 53.243,136.816 52.141,138.257 50.083 C 138.578 49.625,138.928 48.963,139.034 48.613 C 139.191 48.092,139.382 47.895,140.072 47.537 C 143.713 45.651,146.096 45.493,149.322 46.927 L 151.135 47.732 151.766 48.959 C 152.927 51.215,154.745 52.332,157.464 52.461 C 159.413 52.554,161.819 52.283,162.647 51.878 C 164.303 51.068,164.673 47.361,163.286 45.471 C 162.996 45.074,162.525 44.292,162.241 43.732 C 161.555 42.384,160.306 40.780,159.603 40.345 C 159.291 40.153,158.765 39.664,158.433 39.259 C 157.642 38.294,155.862 37.135,154.467 36.678 C 153.854 36.477,153.179 36.177,152.967 36.012 C 151.362 34.759,145.808 34.118,141.364 34.674 M181.083 34.598 C 178.903 34.906,177.720 35.301,176.917 35.990 C 176.733 36.148,176.028 36.476,175.350 36.721 C 174.062 37.185,172.561 38.213,171.980 39.028 C 171.794 39.290,171.085 40.068,170.405 40.756 C 169.086 42.092,168.696 42.714,168.267 44.161 C 168.118 44.662,167.822 45.337,167.610 45.661 C 166.020 48.082,167.446 50.078,171.089 50.533 C 173.557 50.841,176.810 49.896,177.712 48.609 C 178.688 47.215,180.422 45.964,182.500 45.154 C 185.363 44.039,190.400 46.181,191.125 48.823 C 192.331 53.212,191.813 53.796,186.684 53.821 C 179.840 53.856,176.232 54.434,173.812 55.883 C 173.320 56.178,172.417 56.631,171.807 56.889 C 170.419 57.476,169.325 58.579,167.048 61.693 C 164.591 65.053,164.842 73.103,167.492 75.917 C 167.751 76.192,168.094 76.679,168.254 77.000 C 168.601 77.696,170.159 79.341,171.064 79.968 C 172.407 80.899,172.609 81.007,173.630 81.348 C 174.206 81.540,175.089 81.945,175.593 82.249 C 177.905 83.641,184.702 83.499,186.820 82.015 C 187.056 81.849,187.542 81.618,187.900 81.502 C 188.257 81.386,189.117 81.001,189.812 80.646 C 191.398 79.834,191.573 79.839,193.045 80.730 C 195.309 82.101,196.942 82.366,199.783 81.822 C 202.241 81.352,202.777 80.958,203.403 79.160 C 203.628 78.514,203.662 76.804,203.664 66.149 C 203.667 50.154,203.426 47.027,202.037 45.045 C 201.859 44.791,201.580 44.171,201.417 43.667 C 200.947 42.213,200.566 41.579,199.592 40.633 C 199.091 40.148,198.565 39.637,198.424 39.500 C 198.282 39.362,197.891 38.927,197.555 38.532 C 196.858 37.713,196.017 37.180,194.583 36.648 C 194.033 36.444,193.433 36.149,193.250 35.991 C 192.006 34.925,190.591 34.664,185.667 34.589 C 183.421 34.555,181.358 34.559,181.083 34.598 M280.789 34.671 C 279.200 34.921,278.574 35.141,277.650 35.777 C 277.165 36.111,276.264 36.633,275.646 36.938 C 275.029 37.243,274.477 37.569,274.419 37.663 C 274.166 38.072,272.650 37.853,272.042 37.319 C 268.779 34.454,262.461 35.356,261.576 38.813 C 261.237 40.133,261.290 78.521,261.632 79.522 C 262.797 82.939,271.067 82.995,272.885 79.599 C 273.248 78.920,273.250 78.859,273.351 66.667 C 273.466 52.765,273.619 50.731,274.639 49.598 C 274.811 49.407,275.136 48.973,275.360 48.634 C 277.442 45.491,283.937 44.533,286.583 46.978 C 286.858 47.232,287.285 47.565,287.531 47.717 C 287.785 47.874,288.328 48.629,288.781 49.455 L 289.583 50.917 289.667 65.083 L 289.750 79.250 290.144 80.050 C 290.614 81.005,291.031 81.306,292.298 81.604 C 296.927 82.695,300.410 81.831,301.488 79.325 L 301.849 78.485 301.795 64.284 L 301.742 50.083 301.225 48.167 C 300.942 47.112,300.469 45.725,300.176 45.083 C 299.883 44.442,299.484 43.435,299.289 42.847 C 298.989 41.941,298.716 41.546,297.509 40.275 C 295.165 37.805,294.634 37.343,293.500 36.789 C 292.904 36.498,292.123 36.050,291.764 35.795 C 290.250 34.716,284.344 34.111,280.789 34.671 M356.586 34.695 C 354.813 34.897,353.671 35.246,352.860 35.833 C 352.493 36.099,351.632 36.534,350.948 36.800 C 349.712 37.280,349.226 37.612,347.296 39.292 C 346.744 39.773,346.229 40.167,346.153 40.167 C 346.076 40.167,345.815 40.506,345.572 40.920 C 345.329 41.335,344.996 41.746,344.832 41.834 C 344.385 42.073,342.974 44.249,342.352 45.659 C 342.051 46.342,341.664 47.079,341.492 47.298 C 339.445 49.901,339.374 66.997,341.400 69.750 C 341.602 70.025,341.974 70.737,342.227 71.333 C 342.899 72.919,343.876 74.499,344.608 75.183 C 344.961 75.514,345.492 76.131,345.787 76.557 C 346.082 76.982,346.632 77.537,347.009 77.790 C 347.386 78.043,348.187 78.685,348.789 79.216 C 350.189 80.451,350.952 80.887,352.500 81.335 C 353.188 81.534,354.162 81.906,354.667 82.162 C 357.414 83.554,365.079 83.515,367.583 82.096 C 367.950 81.888,368.887 81.522,369.667 81.282 C 372.608 80.375,377.138 76.598,378.348 74.043 C 378.642 73.424,379.121 72.649,379.412 72.323 C 383.130 68.161,383.185 49.686,379.493 45.439 C 379.163 45.060,378.767 44.430,378.613 44.038 C 377.634 41.550,373.474 37.676,370.859 36.820 C 370.249 36.620,369.318 36.172,368.790 35.823 C 367.013 34.651,361.472 34.139,356.586 34.695 M247.167 35.829 C 243.709 36.934,243.968 35.051,243.979 59.036 C 243.989 80.758,243.953 79.942,244.942 80.931 C 246.676 82.665,253.664 82.264,254.917 80.359 C 255.654 79.237,255.658 79.108,255.663 58.905 C 255.667 37.517,255.710 38.398,254.614 37.247 C 253.284 35.850,249.409 35.112,247.167 35.829 M327.089 36.154 C 325.548 36.801,324.948 37.308,324.431 38.402 L 324.000 39.313 324.000 58.995 C 324.000 80.198,323.960 79.177,324.841 80.298 C 326.511 82.421,333.576 82.703,335.371 80.718 C 336.208 79.792,336.186 80.385,336.192 59.075 C 336.198 38.294,336.203 38.431,335.454 37.320 C 334.413 35.775,329.590 35.103,327.089 36.154 M150.500 37.163 C 155.774 38.816,158.879 41.203,160.884 45.146 C 162.491 48.306,162.269 49.527,159.985 50.087 C 157.038 50.809,154.786 49.999,152.888 47.533 C 150.176 44.009,144.944 42.627,141.674 44.571 C 141.166 44.874,140.302 45.377,139.754 45.691 C 139.170 46.026,138.530 46.569,138.206 47.006 C 137.902 47.415,137.355 48.125,136.990 48.583 C 135.347 50.648,134.794 53.059,134.772 58.250 C 134.747 64.271,135.310 66.733,137.344 69.487 C 138.766 71.412,139.018 71.663,140.229 72.363 C 140.882 72.741,141.688 73.221,142.019 73.429 C 144.989 75.297,150.184 73.897,152.940 70.485 C 154.950 67.998,157.900 67.118,160.536 68.219 C 164.558 69.900,158.000 78.548,151.417 80.247 C 138.688 83.532,128.189 76.368,126.986 63.576 C 126.554 58.977,126.967 52.030,127.837 49.250 C 130.049 42.189,135.085 37.927,143.167 36.276 C 144.803 35.942,147.739 36.297,150.500 37.163 M188.361 36.493 C 193.187 37.560,195.228 38.615,197.721 41.329 C 199.567 43.339,200.075 44.368,200.655 47.274 C 201.432 51.165,201.478 52.148,201.525 65.721 L 201.570 78.525 200.910 79.088 C 198.887 80.815,195.900 80.526,194.056 78.423 C 192.823 77.018,190.955 77.138,189.122 78.742 C 185.448 81.956,175.954 81.650,171.847 78.186 C 169.920 76.560,169.634 76.181,168.049 73.149 C 166.880 70.912,167.079 65.691,168.423 63.322 C 168.832 62.601,169.167 61.940,169.167 61.853 C 169.167 61.587,170.760 59.931,171.963 58.947 C 174.301 57.034,181.428 55.509,188.083 55.499 C 193.291 55.490,194.867 53.195,192.906 48.474 C 191.412 44.878,189.391 43.534,185.250 43.383 C 181.152 43.233,180.071 43.630,177.367 46.280 C 174.788 48.806,172.542 49.506,170.219 48.507 C 166.760 47.019,172.207 39.561,178.274 37.477 C 182.414 36.055,185.166 35.787,188.361 36.493 M289.507 37.037 C 290.657 37.454,292.007 38.010,292.507 38.272 C 294.167 39.144,297.915 43.340,298.330 44.791 C 299.306 48.208,299.492 51.618,299.496 66.174 L 299.500 78.431 298.767 79.150 C 297.230 80.659,293.771 80.595,292.125 79.027 L 291.500 78.432 291.500 66.817 C 291.500 48.974,291.374 48.308,287.407 45.180 C 284.369 42.785,279.536 42.859,276.245 45.352 C 274.085 46.988,273.768 47.372,272.816 49.508 C 270.998 53.585,271.000 53.565,271.000 67.436 L 271.000 78.385 270.587 78.927 C 269.535 80.306,266.744 80.659,264.759 79.663 C 263.111 78.837,263.269 81.020,263.263 58.958 L 263.257 39.583 263.660 39.042 C 264.287 38.198,265.556 37.788,267.571 37.777 L 269.225 37.768 270.487 39.119 C 272.483 41.255,272.923 41.250,275.949 39.057 C 280.034 36.096,284.908 35.370,289.507 37.037 M363.630 36.432 C 365.121 36.740,368.344 37.688,369.667 38.209 C 371.256 38.834,373.675 40.595,375.001 42.090 C 376.644 43.944,377.177 44.703,377.738 45.987 C 378.075 46.759,378.494 47.590,378.668 47.835 C 380.486 50.388,380.873 63.754,379.260 68.302 C 378.538 70.338,376.793 73.469,375.712 74.669 C 375.091 75.358,374.433 76.110,374.250 76.341 C 374.067 76.571,373.536 76.993,373.071 77.277 C 372.605 77.562,371.838 78.087,371.366 78.445 C 366.873 81.845,355.421 81.746,350.634 78.264 C 349.965 77.777,349.189 77.263,348.911 77.121 C 348.161 76.737,346.036 74.321,344.795 72.440 C 344.307 71.701,342.341 66.662,341.873 64.952 C 341.383 63.158,341.452 53.705,341.969 51.918 C 342.806 49.024,344.651 44.738,345.475 43.773 C 345.901 43.273,346.550 42.492,346.917 42.036 C 347.283 41.581,347.846 41.030,348.166 40.813 C 348.486 40.595,349.049 40.145,349.416 39.812 C 350.619 38.723,354.837 37.027,358.000 36.360 C 359.222 36.103,362.222 36.141,363.630 36.432 M252.715 38.292 C 253.729 39.256,253.667 37.904,253.667 59.062 L 253.667 78.474 253.117 79.195 C 252.477 80.034,252.190 80.123,250.083 80.137 C 247.746 80.152,247.080 79.991,246.316 79.228 L 245.662 78.574 245.647 59.019 L 245.632 39.463 246.428 38.656 C 247.331 37.738,247.776 37.647,250.741 37.772 C 252.097 37.829,252.277 37.876,252.715 38.292 M332.626 38.087 C 333.260 38.275,333.614 38.505,333.954 38.950 L 334.417 39.557 334.417 59.026 L 334.417 78.494 333.824 79.087 C 332.128 80.783,327.488 80.513,326.497 78.661 C 326.120 77.957,326.291 39.694,326.673 39.157 C 327.699 37.717,329.993 37.305,332.626 38.087 M359.083 43.660 C 356.776 44.052,353.397 46.272,352.247 48.152 C 349.492 52.653,348.751 57.084,349.694 63.417 C 350.993 72.141,359.809 77.035,366.500 72.746 C 368.482 71.476,368.959 71.042,369.675 69.860 C 370.045 69.249,370.564 68.450,370.829 68.083 C 373.145 64.876,372.932 52.124,370.516 49.417 C 370.352 49.234,369.944 48.624,369.609 48.062 C 369.002 47.042,368.250 46.331,366.833 45.433 C 366.421 45.171,365.933 44.823,365.750 44.659 C 364.836 43.841,361.213 43.298,359.083 43.660 M363.000 45.854 C 364.676 46.192,367.372 47.768,367.902 48.719 C 370.567 53.499,370.823 54.414,370.823 59.167 C 370.823 63.495,370.718 64.058,369.485 66.339 C 367.183 70.598,367.631 70.049,365.678 71.004 C 361.475 73.058,357.281 72.423,354.311 69.282 C 353.263 68.174,353.031 67.682,352.397 65.230 C 351.000 59.829,351.212 55.271,353.089 50.325 C 353.555 49.099,354.603 47.941,355.780 47.353 C 356.164 47.161,356.521 46.934,356.575 46.847 C 356.696 46.652,358.293 46.033,359.417 45.746 C 360.259 45.531,361.605 45.571,363.000 45.854 M186.167 60.755 C 179.332 61.287,175.966 63.703,175.928 68.104 C 175.899 71.495,178.375 74.275,181.810 74.708 C 186.440 75.293,190.938 72.961,192.368 69.235 C 195.199 61.864,193.945 60.151,186.167 60.755 M190.427 62.840 C 191.482 63.492,191.752 65.416,191.066 67.395 C 190.479 69.087,189.938 70.164,189.625 70.263 C 189.444 70.321,189.024 70.609,188.690 70.905 C 184.594 74.536,178.393 73.172,178.045 68.563 C 177.758 64.766,179.531 63.527,186.000 63.004 C 187.329 62.897,188.679 62.747,189.000 62.672 C 189.847 62.472,189.828 62.470,190.427 62.840 M311.120 68.570 C 310.271 68.798,310.090 68.936,308.252 70.750 C 305.218 73.744,306.023 79.483,309.742 81.370 C 310.113 81.558,310.619 81.881,310.865 82.087 C 312.051 83.079,314.313 83.032,315.703 81.988 C 316.182 81.628,316.664 81.333,316.774 81.333 C 317.271 81.333,318.821 79.637,319.165 78.715 C 321.439 72.639,316.965 66.998,311.120 68.570 M314.183 70.195 C 319.330 71.967,319.135 79.502,313.917 80.483 C 311.446 80.948,308.546 78.651,308.152 75.917 C 307.740 73.055,311.667 69.329,314.183 70.195 " stroke="none" fill="#5d5d5e" fill-rule="evenodd"></path></g></svg>