<svg id="svg" version="1.1" xmlns="http://www.w3.org/2000/svg" xmlns:xlink="http://www.w3.org/1999/xlink" width="400" height="113.61867704280156" viewBox="0, 0, 400,113.61867704280156"><g id="svgg"><path id="path0" d="M212.210 27.458 L 209.337 27.508 208.752 28.093 L 208.167 28.678 208.167 54.434 L 208.167 80.190 208.675 80.928 C 209.153 81.623,209.229 81.667,209.966 81.672 C 210.397 81.675,211.875 81.700,213.250 81.728 L 215.750 81.779 216.542 80.997 L 217.333 80.214 217.333 54.369 C 217.333 30.871,217.309 28.500,217.066 28.256 C 216.705 27.896,215.565 27.324,215.298 27.371 C 215.180 27.391,213.790 27.431,212.210 27.458 M227.045 27.721 C 225.961 28.115,226.042 26.088,225.983 54.502 C 225.923 83.761,225.814 81.332,227.205 81.618 C 227.597 81.698,229.362 81.733,231.129 81.697 L 234.340 81.631 234.795 80.857 L 235.250 80.083 235.296 54.392 L 235.342 28.700 234.777 28.100 L 234.211 27.500 230.897 27.513 C 228.809 27.521,227.384 27.598,227.045 27.721 M247.007 27.612 C 240.718 28.950,241.788 37.200,248.250 37.200 C 252.659 37.200,255.288 32.639,252.597 29.659 C 252.268 29.296,252.000 28.928,252.000 28.841 C 252.000 28.199,248.406 27.314,247.007 27.612 M326.250 27.648 C 320.147 29.300,321.382 37.209,327.740 37.192 C 331.184 37.182,333.218 35.142,332.962 31.955 C 332.719 28.929,329.396 26.797,326.250 27.648 M140.000 41.847 C 136.639 42.132,133.659 43.198,131.295 44.961 C 129.307 46.443,126.877 49.254,126.185 50.872 C 126.000 51.306,125.696 51.868,125.511 52.122 C 125.326 52.376,124.981 53.333,124.744 54.250 C 124.507 55.167,124.149 56.404,123.948 57.000 C 123.611 58.000,123.583 58.405,123.583 62.250 L 123.583 66.417 124.137 68.333 C 124.441 69.387,124.836 70.752,125.014 71.367 C 125.192 71.981,125.415 72.531,125.509 72.589 C 125.603 72.647,125.907 73.175,126.184 73.761 C 126.461 74.347,126.949 75.140,127.268 75.521 C 127.587 75.903,127.925 76.360,128.019 76.536 C 128.415 77.276,131.313 79.713,132.583 80.374 C 138.392 83.398,146.903 83.819,151.653 81.318 C 152.333 80.960,152.962 80.667,153.050 80.667 C 153.811 80.667,157.992 76.659,158.702 75.250 C 158.887 74.883,159.179 74.428,159.353 74.239 C 159.526 74.049,159.898 73.262,160.180 72.490 C 160.462 71.718,160.764 71.000,160.852 70.894 C 160.940 70.788,161.056 70.325,161.111 69.865 L 161.210 69.028 160.563 68.848 C 160.198 68.747,158.422 68.668,156.483 68.668 C 152.324 68.666,152.307 68.673,151.222 70.750 C 150.833 71.496,150.057 72.593,149.456 73.248 C 148.431 74.366,148.122 74.572,145.981 75.568 C 142.036 77.402,137.130 75.285,134.701 70.700 C 132.392 66.342,132.430 58.153,134.780 53.891 C 138.812 46.580,147.179 46.541,151.156 53.816 C 152.116 55.573,152.368 55.663,156.333 55.655 C 160.346 55.646,160.728 55.551,160.801 54.540 C 160.857 53.768,159.697 50.538,159.222 50.144 C 159.086 50.030,158.800 49.595,158.587 49.177 C 158.121 48.262,155.966 46.004,154.583 44.984 C 150.934 42.290,146.368 41.308,140.000 41.847 M180.833 41.838 C 175.026 42.242,169.813 45.376,168.430 49.296 C 168.306 49.647,167.971 50.397,167.686 50.962 C 167.293 51.741,167.167 52.213,167.167 52.905 L 167.167 53.820 168.030 54.077 C 169.243 54.437,173.315 54.433,174.378 54.071 C 175.035 53.847,175.225 53.673,175.663 52.898 C 177.513 49.619,179.849 48.112,183.431 47.884 C 188.181 47.582,191.476 50.425,191.497 54.845 C 191.509 57.293,190.719 57.832,186.833 58.026 C 181.732 58.281,175.739 59.255,173.550 60.183 C 172.707 60.541,171.943 60.833,171.852 60.833 C 171.235 60.833,167.001 64.361,167.000 64.877 C 167.000 64.946,166.708 65.595,166.351 66.318 C 164.379 70.311,165.242 76.331,168.216 79.333 C 170.121 81.256,171.670 81.995,175.250 82.687 C 179.312 83.472,186.162 81.955,188.500 79.752 C 190.423 77.941,191.976 77.781,192.500 79.339 C 192.638 79.749,192.960 80.440,193.216 80.875 L 193.681 81.667 197.065 81.667 C 200.735 81.667,200.644 81.688,201.162 80.688 C 201.328 80.367,201.316 80.134,201.098 79.438 C 200.625 77.932,200.478 74.831,200.343 63.417 L 200.210 52.250 199.418 49.917 C 198.893 48.371,198.450 47.367,198.105 46.944 C 197.114 45.729,195.415 44.119,194.887 43.896 C 194.596 43.773,193.962 43.439,193.478 43.154 C 191.588 42.039,186.125 41.471,180.833 41.838 M280.579 41.824 C 278.941 42.013,276.848 42.616,276.252 43.070 C 275.976 43.280,275.450 43.609,275.083 43.802 C 274.426 44.146,273.059 45.409,272.083 46.573 C 270.810 48.092,269.525 47.359,269.178 44.914 C 268.969 43.445,268.720 42.728,268.363 42.567 C 267.882 42.351,262.499 42.281,261.826 42.483 C 260.607 42.848,260.667 41.830,260.667 62.172 L 260.668 80.250 261.314 81.000 L 261.960 81.749 265.355 81.696 L 268.750 81.643 269.417 80.986 L 270.083 80.329 270.183 68.706 C 270.299 55.118,270.221 55.871,271.820 52.917 C 274.914 47.201,283.653 46.287,286.963 51.333 C 288.499 53.674,288.497 53.647,288.499 68.484 L 288.500 80.385 289.194 81.026 L 289.889 81.667 292.569 81.669 C 294.044 81.670,295.535 81.717,295.883 81.775 C 296.479 81.873,296.562 81.831,297.269 81.072 L 298.021 80.264 297.918 67.424 C 297.811 54.170,297.748 52.903,297.055 50.000 C 296.478 47.586,294.381 44.795,292.307 43.683 C 291.726 43.372,291.137 43.023,291.000 42.908 C 290.005 42.079,283.884 41.442,280.579 41.824 M355.667 41.826 C 347.182 42.548,341.457 47.456,339.224 55.923 L 338.610 58.250 338.597 62.000 L 338.584 65.750 339.209 68.135 C 340.656 73.655,344.866 79.299,348.493 80.581 C 348.818 80.696,349.646 81.059,350.333 81.388 C 351.525 81.959,352.321 82.147,356.500 82.845 C 358.031 83.101,359.455 83.022,362.503 82.515 C 365.875 81.954,365.653 82.025,369.000 80.429 C 381.061 74.676,382.449 53.195,371.276 45.187 C 367.251 42.302,362.384 41.254,355.667 41.826 M244.532 42.544 C 243.400 42.906,243.437 42.412,243.559 55.499 C 243.619 61.962,243.717 70.197,243.776 73.799 L 243.884 80.348 244.484 81.000 L 245.083 81.653 248.167 81.679 C 249.862 81.693,251.378 81.696,251.534 81.686 C 251.690 81.675,252.093 81.310,252.428 80.875 L 253.039 80.083 252.952 62.167 C 252.857 42.528,252.881 42.970,251.901 42.523 C 251.368 42.280,245.302 42.297,244.532 42.544 M324.133 42.524 C 322.990 42.943,323.021 42.319,323.125 62.387 L 323.218 80.349 323.817 81.002 L 324.417 81.656 327.766 81.700 C 333.089 81.771,332.673 82.697,332.647 70.850 C 332.588 44.390,332.520 42.939,331.314 42.518 C 330.653 42.288,324.765 42.293,324.133 42.524 M360.833 48.199 C 365.389 48.970,368.983 53.787,369.452 59.750 C 369.723 63.194,369.256 67.401,368.427 68.978 C 368.204 69.403,367.831 70.167,367.597 70.676 C 365.708 74.799,359.425 77.491,355.750 75.752 C 355.292 75.535,354.489 75.171,353.967 74.942 C 351.618 73.913,348.874 69.973,348.291 66.792 C 348.029 65.366,348.044 58.878,348.312 57.500 C 349.221 52.832,352.891 48.816,356.833 48.174 C 357.521 48.062,358.196 47.948,358.333 47.921 C 358.624 47.865,359.317 47.942,360.833 48.199 M189.866 63.529 C 193.202 64.529,191.091 72.412,186.785 75.035 C 184.711 76.298,184.439 76.382,182.122 76.466 C 179.215 76.573,178.320 76.368,176.888 75.269 C 172.906 72.210,174.223 66.471,179.250 64.973 C 179.892 64.782,180.866 64.478,181.415 64.297 C 183.689 63.550,188.482 63.115,189.866 63.529 M309.500 71.783 C 306.501 72.069,304.706 74.108,304.867 77.045 C 305.228 83.594,315.335 83.842,315.941 77.317 C 316.084 75.777,315.543 73.998,314.769 73.469 C 314.484 73.274,314.025 72.910,313.750 72.660 C 312.997 71.976,311.251 71.616,309.500 71.783 " stroke="none" fill="#172641" fill-rule="evenodd"></path><path id="path1" d="M44.833 29.615 C 42.191 29.896,40.246 30.215,39.409 30.504 C 38.863 30.692,37.892 30.963,37.250 31.105 C 35.760 31.436,32.468 32.878,30.421 34.096 C 24.513 37.612,20.273 43.683,18.447 51.236 L 17.759 54.083 17.764 58.083 C 17.769 61.963,17.785 62.159,18.311 64.583 C 19.585 70.469,20.898 73.237,24.750 78.165 C 26.135 79.936,30.509 83.217,32.564 84.024 C 33.033 84.209,33.653 84.505,33.942 84.683 C 37.117 86.639,42.988 87.499,53.183 87.499 L 59.950 87.500 60.642 86.999 L 61.333 86.498 61.333 80.845 L 61.333 75.193 60.783 74.471 L 60.234 73.750 52.908 73.646 C 42.836 73.503,41.101 73.128,37.548 70.327 C 31.500 65.558,30.198 54.983,34.944 49.171 C 39.038 44.157,42.047 43.167,53.192 43.167 C 62.143 43.167,61.333 43.853,61.333 36.267 C 61.333 30.293,61.337 30.324,60.502 29.855 C 59.907 29.520,47.509 29.331,44.833 29.615 " stroke="none" fill="#18e857" fill-rule="evenodd"></path><path id="path2" d="M0.000 56.750 L 0.000 113.500 200.000 113.500 L 400.000 113.500 400.000 56.750 L 400.000 0.000 200.000 0.000 L 0.000 0.000 0.000 56.750 M217.667 26.152 C 218.076 26.349,218.392 26.705,218.726 27.342 L 219.202 28.250 219.098 54.250 C 219.011 75.998,218.956 80.378,218.758 81.033 C 218.151 83.041,218.014 83.087,212.750 83.068 C 208.061 83.050,207.480 82.949,206.959 82.055 C 206.655 81.532,206.470 28.642,206.769 27.713 C 207.329 25.976,207.428 25.938,211.667 25.828 C 215.782 25.720,216.900 25.781,217.667 26.152 M235.477 26.108 C 236.965 26.655,236.844 24.134,236.835 54.452 C 236.830 69.099,236.780 81.271,236.724 81.500 C 236.392 82.843,235.737 83.007,230.559 83.049 C 225.771 83.087,225.530 83.042,224.667 81.955 L 224.250 81.430 224.250 54.836 L 224.250 28.241 224.668 27.429 C 225.488 25.835,225.959 25.721,231.417 25.795 C 233.972 25.830,234.920 25.903,235.477 26.108 M251.167 26.374 C 254.387 27.981,256.327 31.970,255.038 34.333 C 254.863 34.654,254.539 35.245,254.318 35.646 C 253.803 36.582,252.479 37.775,251.787 37.926 C 251.492 37.990,251.042 38.218,250.787 38.432 C 249.849 39.218,246.877 39.238,245.709 38.465 C 245.334 38.216,244.835 37.965,244.601 37.906 C 243.941 37.741,242.736 36.581,242.313 35.706 C 242.103 35.272,241.759 34.662,241.549 34.352 C 241.049 33.614,240.996 31.392,241.459 30.557 C 241.619 30.267,241.991 29.580,242.286 29.030 C 242.582 28.480,243.069 27.861,243.370 27.655 C 243.671 27.449,244.119 27.094,244.366 26.867 C 245.613 25.723,249.323 25.454,251.167 26.374 M330.119 26.117 C 330.613 26.272,331.295 26.631,331.634 26.914 C 331.973 27.197,332.456 27.558,332.707 27.717 C 333.120 27.978,333.374 28.363,334.402 30.291 C 335.614 32.564,333.760 37.314,331.433 37.898 C 331.180 37.961,330.666 38.216,330.290 38.465 C 329.353 39.084,326.178 39.151,325.389 38.568 C 325.129 38.376,324.557 38.060,324.117 37.865 C 323.073 37.404,322.216 36.600,321.772 35.667 C 321.576 35.254,321.235 34.627,321.016 34.273 C 320.050 32.717,321.034 29.048,322.771 27.722 C 323.102 27.470,323.596 27.055,323.870 26.799 C 324.881 25.854,328.154 25.497,330.119 26.117 M60.741 28.879 C 62.457 29.544,62.407 29.355,62.474 35.435 C 62.513 38.932,62.467 41.051,62.338 41.795 C 61.956 43.987,62.330 43.897,53.083 44.010 L 45.417 44.104 43.917 44.622 C 43.092 44.908,41.909 45.298,41.289 45.490 C 40.669 45.682,39.820 46.101,39.401 46.420 C 38.983 46.739,38.573 47.000,38.491 47.000 C 38.324 47.000,36.386 48.952,35.539 49.973 C 35.240 50.334,34.625 51.547,34.173 52.667 C 33.433 54.502,33.205 55.429,32.940 57.667 C 32.831 58.585,33.156 61.317,33.483 62.242 C 34.567 65.302,34.925 66.128,35.357 66.561 C 35.619 66.824,35.833 67.112,35.833 67.201 C 35.833 67.495,37.906 69.529,38.531 69.848 C 38.868 70.021,39.243 70.298,39.364 70.464 C 39.485 70.631,40.183 70.983,40.917 71.248 C 41.650 71.513,42.482 71.866,42.766 72.033 C 43.631 72.541,45.457 72.656,52.761 72.662 C 63.231 72.669,62.500 72.049,62.500 80.930 C 62.500 89.162,63.110 88.658,53.143 88.663 C 46.184 88.667,43.583 88.531,41.785 88.069 C 41.254 87.932,40.041 87.680,39.089 87.509 C 38.007 87.314,36.861 86.972,36.033 86.598 C 35.304 86.269,34.605 86.000,34.479 86.000 C 33.790 85.999,28.638 83.063,27.534 82.042 C 27.212 81.744,26.888 81.500,26.813 81.500 C 26.576 81.500,23.149 77.948,22.876 77.421 C 22.733 77.144,22.508 76.838,22.376 76.741 C 21.439 76.055,18.997 71.114,18.056 68.000 C 16.230 61.959,16.178 54.412,17.925 49.023 C 18.241 48.048,18.500 47.173,18.500 47.079 C 18.500 46.985,18.922 46.047,19.438 44.996 C 20.290 43.258,21.056 42.020,22.806 39.558 C 23.539 38.527,26.512 35.589,27.163 35.252 C 27.418 35.120,27.669 34.901,27.721 34.765 C 27.773 34.629,28.064 34.390,28.366 34.235 C 28.669 34.080,29.464 33.593,30.132 33.154 C 30.800 32.714,31.625 32.264,31.965 32.152 C 32.305 32.041,32.846 31.772,33.167 31.555 C 33.487 31.337,34.275 31.007,34.917 30.823 C 35.558 30.638,36.683 30.269,37.417 30.004 C 39.558 29.229,40.844 29.036,46.667 28.613 C 50.409 28.341,59.811 28.519,60.741 28.879 M84.622 28.917 C 87.880 29.210,88.661 29.354,90.096 29.928 C 90.677 30.160,91.700 30.502,92.368 30.687 C 93.037 30.872,93.921 31.229,94.333 31.480 C 94.746 31.732,95.420 32.071,95.832 32.233 C 96.697 32.576,98.789 33.897,99.733 34.699 C 100.090 35.002,100.581 35.371,100.824 35.518 C 103.622 37.221,108.131 43.578,109.322 47.502 C 109.530 48.186,109.841 49.022,110.014 49.360 C 111.534 52.341,111.538 65.285,110.020 68.303 C 109.850 68.641,109.479 69.667,109.195 70.583 C 108.911 71.500,108.547 72.436,108.387 72.662 C 108.227 72.889,107.847 73.564,107.544 74.162 C 105.997 77.212,102.092 81.521,99.686 82.833 C 99.434 82.971,98.966 83.287,98.647 83.537 C 98.327 83.786,97.769 84.112,97.408 84.262 C 97.046 84.411,96.337 84.781,95.833 85.083 C 95.329 85.386,94.429 85.784,93.833 85.969 C 93.237 86.154,92.337 86.494,91.833 86.725 C 91.329 86.957,90.279 87.266,89.500 87.413 C 88.721 87.559,87.379 87.835,86.518 88.024 C 84.129 88.550,82.302 88.654,75.405 88.661 L 69.060 88.667 68.158 88.208 C 66.495 87.363,66.492 87.343,66.636 80.250 C 66.801 72.166,66.255 72.765,73.416 72.812 C 81.142 72.863,84.251 72.643,85.720 71.939 C 86.378 71.623,87.217 71.285,87.583 71.187 C 87.950 71.089,88.773 70.631,89.412 70.171 C 90.051 69.710,90.619 69.333,90.675 69.333 C 90.991 69.333,92.957 66.556,93.608 65.190 C 95.777 60.640,95.077 52.997,92.199 49.793 C 91.149 48.624,89.490 47.000,89.347 47.000 C 89.262 47.000,88.840 46.731,88.410 46.403 C 87.859 45.982,86.884 45.555,85.106 44.956 L 82.583 44.105 75.500 44.011 C 65.819 43.882,66.613 44.451,66.538 37.583 C 66.454 29.948,66.580 29.321,68.287 28.868 C 69.334 28.590,81.380 28.626,84.622 28.917 M148.073 40.347 C 148.534 40.435,149.251 40.683,149.664 40.899 C 150.078 41.115,150.863 41.391,151.409 41.513 C 151.963 41.637,152.772 41.985,153.242 42.302 C 153.705 42.613,154.440 43.049,154.875 43.271 C 155.311 43.492,155.761 43.828,155.875 44.017 C 155.990 44.206,156.363 44.506,156.705 44.682 C 157.047 44.859,157.433 45.209,157.564 45.460 C 157.694 45.711,158.033 46.087,158.316 46.296 C 158.599 46.504,158.985 46.977,159.173 47.345 C 159.361 47.714,159.622 48.057,159.752 48.107 C 160.002 48.203,161.000 50.065,161.000 50.435 C 161.000 50.553,161.177 50.840,161.393 51.073 C 162.289 52.041,162.814 55.080,162.266 56.133 C 161.611 57.392,161.543 57.411,157.372 57.473 C 152.156 57.550,151.148 57.289,150.420 55.673 C 150.255 55.308,149.983 54.885,149.814 54.733 C 149.646 54.581,149.357 54.142,149.171 53.759 C 148.759 52.909,147.486 51.624,146.583 51.148 C 146.217 50.955,145.692 50.673,145.417 50.523 C 144.407 49.971,141.108 50.145,140.000 50.809 C 138.576 51.661,137.852 52.215,137.538 52.694 C 137.380 52.935,136.974 53.534,136.637 54.025 C 136.300 54.515,135.860 55.442,135.660 56.083 C 135.460 56.725,135.187 57.602,135.054 58.033 C 134.342 60.339,134.487 64.431,135.393 67.583 C 136.130 70.149,136.194 70.303,136.816 71.000 C 137.103 71.321,137.382 71.752,137.436 71.958 C 137.491 72.164,137.820 72.492,138.168 72.687 C 138.515 72.883,138.895 73.221,139.012 73.439 C 139.525 74.398,143.303 74.774,145.584 74.093 C 146.690 73.764,148.386 72.323,149.064 71.138 C 149.350 70.639,149.752 70.019,149.958 69.760 C 150.165 69.500,150.333 69.196,150.333 69.083 C 150.333 68.673,151.043 67.992,152.068 67.419 L 153.115 66.833 156.516 66.841 C 161.214 66.851,161.994 67.076,162.448 68.555 C 162.808 69.728,162.165 72.797,161.411 73.505 C 161.185 73.718,161.000 73.996,161.000 74.123 C 161.000 74.558,160.142 76.168,159.818 76.341 C 159.640 76.437,159.337 76.851,159.143 77.263 C 158.950 77.675,158.618 78.103,158.406 78.214 C 158.195 78.325,157.845 78.679,157.630 79.000 C 157.414 79.321,157.043 79.677,156.805 79.792 C 156.567 79.906,156.249 80.187,156.100 80.415 C 155.950 80.644,155.468 81.013,155.028 81.236 C 154.589 81.458,154.126 81.764,154.001 81.916 C 153.702 82.276,152.733 82.761,152.000 82.917 C 151.679 82.985,151.065 83.218,150.636 83.434 C 147.858 84.834,139.802 84.995,136.417 83.718 C 136.050 83.580,135.054 83.224,134.204 82.927 C 133.354 82.631,132.454 82.197,132.204 81.965 C 131.954 81.732,131.533 81.472,131.268 81.388 C 130.112 81.019,126.109 77.039,125.557 75.710 C 125.414 75.365,125.185 75.019,125.048 74.941 C 124.761 74.776,124.102 73.355,123.916 72.500 C 123.847 72.179,123.648 71.736,123.475 71.515 C 121.755 69.321,121.812 55.053,123.549 53.023 C 123.678 52.873,123.881 52.375,124.001 51.917 C 124.269 50.894,124.714 49.973,125.094 49.658 C 125.251 49.528,125.524 49.083,125.701 48.669 C 125.878 48.255,126.240 47.692,126.505 47.417 C 129.614 44.194,130.472 43.435,131.418 43.074 C 131.830 42.917,132.167 42.729,132.167 42.658 C 132.167 42.397,133.302 41.835,134.347 41.578 C 134.935 41.433,135.874 41.088,136.434 40.811 C 137.967 40.053,145.035 39.771,148.073 40.347 M189.917 40.353 C 190.467 40.450,191.254 40.705,191.667 40.920 C 192.079 41.136,192.929 41.428,193.555 41.569 C 194.246 41.725,194.935 42.012,195.305 42.298 C 195.642 42.557,196.310 43.016,196.792 43.318 C 197.273 43.621,197.667 43.922,197.667 43.988 C 197.667 44.054,197.970 44.403,198.340 44.762 C 199.072 45.473,199.833 46.629,199.833 47.030 C 199.833 47.168,200.021 47.499,200.250 47.766 C 201.284 48.967,201.500 51.122,201.500 60.258 C 201.500 66.775,201.693 70.791,202.157 73.917 C 202.239 74.467,202.350 75.442,202.404 76.083 C 202.458 76.725,202.628 78.195,202.782 79.349 C 203.272 83.026,203.197 83.079,197.500 83.081 C 192.340 83.084,191.670 82.818,190.775 80.417 C 190.740 80.325,190.533 80.410,190.315 80.606 C 190.096 80.802,189.729 81.016,189.500 81.083 C 189.271 81.150,188.677 81.508,188.181 81.878 C 187.685 82.249,186.822 82.690,186.264 82.859 C 185.707 83.028,185.063 83.271,184.833 83.400 C 182.245 84.857,174.064 84.928,171.773 83.515 C 171.485 83.337,170.819 83.031,170.293 82.835 C 169.767 82.638,169.228 82.323,169.097 82.135 C 168.965 81.947,168.601 81.634,168.289 81.438 C 167.534 80.967,166.035 79.280,165.902 78.752 C 165.845 78.522,165.729 78.333,165.646 78.333 C 165.343 78.333,164.832 77.223,164.572 76.002 C 164.425 75.313,164.168 74.337,164.001 73.833 C 163.833 73.329,163.609 72.279,163.503 71.500 C 163.396 70.721,163.242 69.873,163.160 69.616 C 163.025 69.193,163.066 69.116,163.590 68.807 C 163.908 68.619,164.201 68.305,164.241 68.108 C 164.631 66.165,164.933 65.229,165.315 64.771 C 165.554 64.485,165.894 63.967,166.070 63.621 C 166.466 62.842,168.730 60.670,169.603 60.231 C 169.959 60.052,170.550 59.707,170.917 59.465 C 171.283 59.223,172.146 58.857,172.833 58.652 C 173.521 58.448,174.242 58.178,174.435 58.053 C 174.944 57.724,176.823 57.365,179.985 56.991 C 181.506 56.812,183.275 56.592,183.917 56.502 C 184.558 56.413,185.978 56.263,187.071 56.169 C 189.803 55.935,190.024 55.639,189.451 52.985 C 188.693 49.472,182.156 48.268,179.239 51.103 C 178.825 51.505,178.420 51.833,178.337 51.833 C 178.255 51.833,177.954 52.308,177.668 52.888 C 176.986 54.275,175.830 55.583,175.039 55.863 C 173.899 56.267,167.309 56.169,166.721 55.740 C 166.160 55.331,165.476 54.053,165.565 53.583 C 166.099 50.780,166.379 49.713,166.739 49.116 C 166.970 48.731,167.354 48.004,167.594 47.500 C 167.833 46.996,168.247 46.358,168.514 46.083 C 168.781 45.808,169.281 45.294,169.625 44.941 C 170.783 43.749,171.247 43.365,171.947 43.018 C 172.330 42.827,172.692 42.594,172.750 42.500 C 172.927 42.214,174.030 41.724,175.000 41.501 C 175.504 41.386,176.378 41.071,176.941 40.803 C 178.530 40.047,186.579 39.768,189.917 40.353 M286.829 40.164 C 288.424 40.296,288.909 40.405,289.746 40.820 C 290.298 41.095,291.186 41.441,291.720 41.591 C 292.253 41.741,292.928 42.066,293.220 42.314 C 293.511 42.562,293.966 42.901,294.230 43.067 C 295.244 43.706,297.667 46.388,297.667 46.872 C 297.667 46.975,297.927 47.589,298.245 48.238 C 299.315 50.417,299.346 50.821,299.525 65.083 C 299.743 82.416,299.763 82.127,298.259 82.786 C 297.344 83.187,289.106 83.150,288.317 82.741 C 287.212 82.170,287.260 82.749,287.155 68.750 C 287.093 60.599,286.996 55.875,286.883 55.500 C 286.099 52.906,285.625 51.667,285.417 51.667 C 285.288 51.667,284.922 51.399,284.604 51.071 C 283.311 49.739,276.543 49.493,276.057 50.759 C 276.008 50.887,275.604 51.215,275.160 51.488 C 274.717 51.761,274.266 52.157,274.160 52.367 C 274.053 52.578,273.745 52.938,273.475 53.169 C 273.059 53.524,272.896 53.928,272.401 55.822 C 272.080 57.052,271.765 58.138,271.700 58.237 C 271.636 58.336,271.546 63.592,271.500 69.917 C 271.394 84.553,272.055 83.062,265.667 83.075 C 259.932 83.087,259.526 82.949,259.170 80.873 C 258.778 78.590,259.011 42.874,259.423 42.167 C 260.038 41.107,261.409 40.800,265.167 40.880 C 269.416 40.970,270.614 41.486,270.916 43.362 C 270.980 43.759,271.145 44.261,271.283 44.478 L 271.534 44.873 272.225 44.145 C 273.199 43.119,275.266 41.695,276.071 41.494 C 276.444 41.401,276.938 41.210,277.167 41.070 C 278.777 40.084,282.100 39.772,286.829 40.164 M364.417 40.362 C 364.875 40.456,365.550 40.702,365.917 40.908 C 366.283 41.114,367.061 41.381,367.646 41.502 C 368.320 41.641,369.015 41.932,369.547 42.298 C 370.008 42.615,370.783 43.051,371.269 43.265 C 371.755 43.480,372.274 43.843,372.424 44.071 C 372.574 44.300,372.853 44.537,373.043 44.597 C 373.347 44.693,373.829 45.160,376.142 47.592 C 376.408 47.872,376.795 48.434,377.002 48.842 C 377.210 49.250,377.549 49.787,377.756 50.035 C 377.964 50.284,378.263 50.846,378.422 51.285 C 378.580 51.724,378.933 52.564,379.206 53.151 C 380.914 56.827,380.901 68.050,379.184 70.903 C 379.014 71.185,378.748 71.807,378.593 72.285 C 378.438 72.762,378.145 73.400,377.942 73.701 C 377.740 74.003,377.358 74.625,377.095 75.083 C 376.831 75.542,376.327 76.234,375.975 76.621 C 375.622 77.009,375.333 77.402,375.333 77.494 C 375.333 77.587,375.052 77.840,374.708 78.058 C 374.363 78.275,373.981 78.641,373.857 78.872 C 373.734 79.102,373.341 79.455,372.983 79.656 C 372.626 79.857,372.257 80.164,372.164 80.339 C 372.070 80.514,371.440 80.923,370.765 81.248 C 370.089 81.573,369.446 81.948,369.336 82.080 C 369.118 82.342,367.485 83.000,367.051 83.000 C 366.903 83.000,366.383 83.189,365.895 83.420 C 362.917 84.828,354.561 84.928,351.750 83.588 C 351.292 83.369,350.429 83.068,349.833 82.919 C 349.238 82.770,348.450 82.437,348.083 82.179 C 347.717 81.921,347.004 81.505,346.500 81.253 C 345.996 81.001,345.358 80.578,345.083 80.312 C 341.096 76.458,339.574 74.564,339.007 72.750 C 338.893 72.383,338.582 71.628,338.317 71.072 C 336.575 67.417,336.517 56.474,338.222 53.183 C 338.440 52.761,338.746 52.028,338.902 51.554 C 339.058 51.079,339.398 50.397,339.658 50.038 C 339.919 49.679,340.259 49.129,340.415 48.817 C 340.719 48.209,340.909 47.990,342.969 45.875 C 343.706 45.119,344.418 44.500,344.552 44.500 C 344.686 44.500,344.922 44.307,345.076 44.070 C 345.231 43.834,345.784 43.439,346.306 43.193 C 346.827 42.946,347.519 42.542,347.844 42.294 C 348.204 42.019,348.959 41.719,349.780 41.523 C 350.520 41.346,351.313 41.078,351.542 40.928 C 352.822 40.090,361.282 39.718,364.417 40.362 M252.516 41.171 C 253.400 41.435,253.735 41.628,254.034 42.046 L 254.417 42.583 254.417 62.091 C 254.417 83.988,254.521 82.228,253.195 82.785 C 251.647 83.436,243.830 83.202,243.063 82.481 C 242.385 81.844,242.369 81.447,242.268 62.000 C 242.163 41.997,242.161 42.063,242.941 41.552 C 244.165 40.750,250.285 40.507,252.516 41.171 M332.038 41.165 C 334.121 41.808,334.020 41.223,334.194 53.750 C 334.542 78.973,334.403 82.013,332.868 82.775 C 331.988 83.212,323.940 83.233,322.971 82.801 C 321.648 82.210,321.755 83.967,321.706 62.174 C 321.655 39.734,321.492 41.837,323.333 41.221 C 324.901 40.696,330.405 40.660,332.038 41.165 M357.917 49.764 C 357.733 49.806,357.133 49.926,356.583 50.032 C 355.251 50.288,354.688 50.536,353.856 51.231 C 353.473 51.551,353.026 51.856,352.862 51.907 C 352.699 51.959,352.403 52.320,352.204 52.709 C 352.006 53.098,351.612 53.723,351.329 54.097 C 350.624 55.029,349.821 58.150,349.508 61.173 C 349.226 63.902,350.331 69.042,351.525 70.549 C 351.902 71.026,352.282 71.617,352.368 71.863 C 352.455 72.111,352.723 72.382,352.970 72.474 C 353.216 72.565,353.642 72.841,353.917 73.088 C 354.749 73.837,355.041 73.978,356.306 74.244 C 358.209 74.645,361.418 74.462,362.357 73.900 C 363.383 73.287,365.053 71.855,365.265 71.408 C 365.406 71.111,365.782 70.563,366.102 70.190 C 366.584 69.627,366.764 69.175,367.172 67.508 C 367.441 66.405,367.782 65.221,367.929 64.876 C 368.369 63.851,368.322 59.834,367.858 58.784 C 367.664 58.344,367.325 57.237,367.105 56.324 C 366.788 55.007,366.583 54.515,366.112 53.940 C 365.785 53.542,365.388 52.943,365.229 52.610 C 365.070 52.276,364.805 51.961,364.640 51.908 C 364.476 51.856,364.022 51.547,363.632 51.221 C 362.453 50.236,359.338 49.442,357.917 49.764 M185.750 65.279 C 184.833 65.404,183.287 65.612,182.314 65.742 C 180.882 65.934,180.395 66.074,179.755 66.480 C 179.320 66.756,178.756 67.027,178.502 67.083 C 178.024 67.188,177.863 67.325,176.998 68.363 C 175.438 70.234,176.464 73.605,178.870 74.514 C 181.124 75.365,185.220 74.748,186.390 73.380 C 186.650 73.075,187.082 72.714,187.348 72.576 C 187.615 72.438,187.833 72.229,187.833 72.112 C 187.833 71.995,188.138 71.431,188.509 70.859 C 189.535 69.280,190.012 66.351,189.371 65.563 C 188.981 65.083,187.849 64.994,185.750 65.279 M312.522 70.410 C 312.831 70.568,313.427 70.802,313.848 70.930 C 314.787 71.217,316.418 72.748,316.583 73.497 C 316.643 73.774,316.761 74.000,316.843 74.000 C 317.697 74.000,318.052 77.677,317.323 78.971 C 317.099 79.367,316.766 79.981,316.581 80.335 C 316.037 81.381,314.559 82.632,313.500 82.944 C 312.996 83.093,312.433 83.311,312.250 83.430 C 310.128 84.807,304.971 82.443,303.494 79.417 C 302.030 76.417,304.439 70.842,307.203 70.833 C 307.320 70.832,307.792 70.638,308.250 70.401 C 309.249 69.885,311.505 69.890,312.522 70.410 " stroke="none" fill="#fafbfb" fill-rule="evenodd"></path><path id="path3" d="M211.667 25.828 C 207.428 25.938,207.329 25.976,206.769 27.713 C 206.470 28.642,206.655 81.532,206.959 82.055 C 207.480 82.949,208.061 83.050,212.750 83.068 C 218.014 83.087,218.151 83.041,218.758 81.033 C 218.956 80.378,219.011 75.998,219.098 54.250 L 219.202 28.250 218.726 27.342 C 217.913 25.791,217.388 25.678,211.667 25.828 M227.031 25.851 C 225.758 25.972,225.239 26.319,224.668 27.429 L 224.250 28.241 224.250 54.836 L 224.250 81.430 224.667 81.955 C 225.530 83.042,225.771 83.087,230.559 83.049 C 235.737 83.007,236.392 82.843,236.724 81.500 C 236.780 81.271,236.830 69.099,236.835 54.452 C 236.844 24.134,236.965 26.655,235.477 26.108 C 234.692 25.820,229.127 25.650,227.031 25.851 M245.699 26.143 C 245.213 26.314,244.613 26.640,244.366 26.867 C 244.119 27.094,243.671 27.449,243.370 27.655 C 243.069 27.861,242.582 28.480,242.286 29.030 C 241.991 29.580,241.619 30.267,241.459 30.557 C 240.996 31.392,241.049 33.614,241.549 34.352 C 241.759 34.662,242.103 35.272,242.313 35.706 C 242.736 36.581,243.941 37.741,244.601 37.906 C 244.835 37.965,245.334 38.216,245.709 38.465 C 246.877 39.238,249.849 39.218,250.787 38.432 C 251.042 38.218,251.492 37.990,251.787 37.926 C 252.479 37.775,253.803 36.582,254.318 35.646 C 254.539 35.245,254.863 34.654,255.038 34.333 C 255.301 33.851,255.346 33.487,255.297 32.239 C 255.121 27.775,250.102 24.587,245.699 26.143 M325.143 26.095 C 324.717 26.226,324.145 26.543,323.870 26.799 C 323.596 27.055,323.102 27.470,322.771 27.722 C 321.034 29.048,320.050 32.717,321.016 34.273 C 321.235 34.627,321.576 35.254,321.772 35.667 C 322.216 36.600,323.073 37.404,324.117 37.865 C 324.557 38.060,325.129 38.376,325.389 38.568 C 326.178 39.151,329.353 39.084,330.290 38.465 C 330.666 38.216,331.180 37.961,331.433 37.898 C 333.760 37.314,335.614 32.564,334.402 30.291 C 333.374 28.363,333.120 27.978,332.707 27.717 C 332.456 27.558,331.973 27.197,331.634 26.914 C 330.404 25.887,327.150 25.477,325.143 26.095 M216.434 26.689 C 216.972 26.824,217.310 27.044,217.633 27.467 L 218.083 28.057 218.119 54.070 C 218.158 83.463,218.246 81.419,216.917 82.083 C 215.980 82.552,210.119 82.677,208.850 82.256 C 207.060 81.661,207.180 83.804,207.277 54.250 C 207.372 25.092,207.228 27.239,209.132 26.665 C 209.829 26.455,215.580 26.473,216.434 26.689 M234.786 26.851 C 236.304 27.586,236.176 24.918,236.127 54.621 C 236.079 83.517,236.166 81.392,235.000 82.075 C 234.095 82.605,226.770 82.599,226.054 82.068 C 225.151 81.398,225.186 82.497,225.178 54.667 L 225.170 28.750 225.568 27.895 C 226.183 26.575,226.294 26.546,230.822 26.519 C 233.797 26.502,234.121 26.529,234.786 26.851 M250.917 27.293 C 254.688 29.176,255.515 33.450,252.666 36.334 C 250.435 38.593,245.981 38.565,243.745 36.278 C 239.151 31.579,244.950 24.314,250.917 27.293 M330.417 27.280 C 332.701 28.403,333.825 30.124,333.831 32.509 C 333.849 39.421,322.523 39.964,321.663 33.093 C 321.078 28.417,326.034 25.125,330.417 27.280 M46.667 28.613 C 40.844 29.036,39.558 29.229,37.417 30.004 C 36.683 30.269,35.558 30.638,34.917 30.823 C 34.275 31.007,33.487 31.337,33.167 31.555 C 32.846 31.772,32.305 32.041,31.965 32.152 C 31.625 32.264,30.800 32.714,30.132 33.154 C 29.464 33.593,28.669 34.080,28.366 34.235 C 28.064 34.390,27.773 34.629,27.721 34.765 C 27.669 34.901,27.418 35.120,27.163 35.252 C 26.512 35.589,23.539 38.527,22.806 39.558 C 21.056 42.020,20.290 43.258,19.438 44.996 C 18.922 46.047,18.500 46.985,18.500 47.079 C 18.500 47.173,18.241 48.048,17.925 49.023 C 16.178 54.412,16.230 61.959,18.056 68.000 C 18.997 71.114,21.439 76.055,22.376 76.741 C 22.508 76.838,22.733 77.144,22.876 77.421 C 23.149 77.948,26.576 81.500,26.813 81.500 C 26.888 81.500,27.212 81.744,27.534 82.042 C 28.638 83.063,33.790 85.999,34.479 86.000 C 34.605 86.000,35.304 86.269,36.033 86.598 C 36.861 86.972,38.007 87.314,39.089 87.509 C 40.041 87.680,41.254 87.932,41.785 88.069 C 43.583 88.531,46.184 88.667,53.143 88.663 C 63.110 88.658,62.500 89.162,62.500 80.930 C 62.500 72.049,63.231 72.669,52.761 72.662 C 45.457 72.656,43.631 72.541,42.766 72.033 C 42.482 71.866,41.650 71.513,40.917 71.248 C 40.183 70.983,39.485 70.631,39.364 70.464 C 39.243 70.298,38.868 70.021,38.531 69.848 C 37.906 69.529,35.833 67.495,35.833 67.201 C 35.833 67.112,35.619 66.824,35.357 66.561 C 34.925 66.128,34.567 65.302,33.483 62.242 C 33.156 61.317,32.831 58.585,32.940 57.667 C 33.205 55.429,33.433 54.502,34.173 52.667 C 34.625 51.547,35.240 50.334,35.539 49.973 C 36.386 48.952,38.324 47.000,38.491 47.000 C 38.573 47.000,38.983 46.739,39.401 46.420 C 39.820 46.101,40.669 45.682,41.289 45.490 C 41.909 45.298,43.092 44.908,43.917 44.622 L 45.417 44.104 53.083 44.010 C 61.159 43.912,61.326 43.895,61.959 43.133 C 62.652 42.298,62.747 30.633,62.069 29.725 C 61.229 28.600,54.012 28.079,46.667 28.613 M68.287 28.868 C 66.580 29.321,66.454 29.948,66.538 37.583 C 66.613 44.451,65.819 43.882,75.500 44.011 L 82.583 44.105 85.106 44.956 C 86.884 45.555,87.859 45.982,88.410 46.403 C 88.840 46.731,89.262 47.000,89.347 47.000 C 89.490 47.000,91.149 48.624,92.199 49.793 C 95.077 52.997,95.777 60.640,93.608 65.190 C 92.957 66.556,90.991 69.333,90.675 69.333 C 90.619 69.333,90.051 69.710,89.412 70.171 C 88.773 70.631,87.950 71.089,87.583 71.187 C 87.217 71.285,86.378 71.623,85.720 71.939 C 84.251 72.643,81.142 72.863,73.416 72.812 C 66.255 72.765,66.801 72.166,66.636 80.250 C 66.492 87.343,66.495 87.363,68.158 88.208 L 69.060 88.667 75.405 88.661 C 82.302 88.654,84.129 88.550,86.518 88.024 C 87.379 87.835,88.721 87.559,89.500 87.413 C 90.279 87.266,91.329 86.957,91.833 86.725 C 92.337 86.494,93.237 86.154,93.833 85.969 C 94.429 85.784,95.329 85.386,95.833 85.083 C 96.337 84.781,97.046 84.411,97.408 84.262 C 97.769 84.112,98.327 83.786,98.647 83.537 C 98.966 83.287,99.434 82.971,99.686 82.833 C 102.092 81.521,105.997 77.212,107.544 74.162 C 107.847 73.564,108.227 72.889,108.387 72.662 C 108.547 72.436,108.911 71.500,109.195 70.583 C 109.479 69.667,109.850 68.641,110.020 68.303 C 111.538 65.285,111.534 52.341,110.014 49.360 C 109.841 49.022,109.530 48.186,109.322 47.502 C 108.131 43.578,103.622 37.221,100.824 35.518 C 100.581 35.371,100.090 35.002,99.733 34.699 C 98.789 33.897,96.697 32.576,95.832 32.233 C 95.420 32.071,94.746 31.732,94.333 31.480 C 93.921 31.229,93.037 30.872,92.368 30.687 C 91.700 30.502,90.677 30.160,90.096 29.928 C 88.661 29.354,87.880 29.210,84.622 28.917 C 81.380 28.626,69.334 28.590,68.287 28.868 M60.502 29.855 C 61.337 30.324,61.333 30.293,61.333 36.267 C 61.333 43.853,62.143 43.167,53.192 43.167 C 47.306 43.167,46.308 43.205,44.593 43.498 C 38.368 44.562,33.596 48.962,32.496 54.650 C 30.970 62.540,33.947 68.990,40.577 72.156 C 43.232 73.424,44.027 73.520,52.908 73.646 L 60.234 73.750 60.783 74.471 L 61.333 75.193 61.333 80.845 L 61.333 86.498 60.642 86.999 L 59.950 87.500 53.183 87.499 C 42.988 87.499,37.117 86.639,33.942 84.683 C 33.653 84.505,33.033 84.209,32.564 84.024 C 30.509 83.217,26.135 79.936,24.750 78.165 C 20.898 73.237,19.585 70.469,18.311 64.583 C 17.785 62.159,17.769 61.963,17.764 58.083 L 17.759 54.083 18.447 51.236 C 20.273 43.683,24.513 37.612,30.421 34.096 C 32.468 32.878,35.760 31.436,37.250 31.105 C 37.892 30.963,38.863 30.692,39.409 30.504 C 40.246 30.215,42.191 29.896,44.833 29.615 C 47.509 29.331,59.907 29.520,60.502 29.855 M83.459 30.546 C 83.783 30.723,85.163 31.013,86.876 31.265 C 90.536 31.802,90.882 31.882,91.294 32.294 C 91.608 32.608,92.634 32.975,93.970 33.251 C 94.274 33.313,94.564 33.474,94.616 33.607 C 94.717 33.872,96.508 34.833,96.901 34.833 C 97.034 34.833,97.310 35.067,97.513 35.352 C 97.717 35.638,98.133 35.976,98.439 36.103 C 99.000 36.338,99.583 36.841,101.438 38.690 C 103.176 40.424,103.641 40.963,103.991 41.649 C 104.177 42.013,104.469 42.410,104.641 42.531 C 104.812 42.651,105.194 43.313,105.490 44.000 C 105.786 44.688,106.154 45.362,106.308 45.500 C 106.462 45.637,106.769 46.350,106.992 47.083 C 107.214 47.817,107.570 48.772,107.783 49.206 C 109.518 52.744,109.565 65.405,107.854 68.353 C 107.674 68.663,107.325 69.592,107.079 70.417 C 106.832 71.242,106.492 72.067,106.324 72.252 C 106.155 72.436,105.823 73.026,105.586 73.562 C 105.348 74.099,104.819 74.949,104.410 75.451 C 104.001 75.953,103.667 76.461,103.667 76.579 C 103.667 76.697,103.404 76.994,103.083 77.239 C 102.762 77.484,102.386 77.904,102.247 78.172 C 102.108 78.441,101.780 78.772,101.517 78.908 C 101.255 79.043,100.884 79.420,100.692 79.744 C 100.479 80.106,100.216 80.333,100.012 80.333 C 99.829 80.333,99.395 80.628,99.048 80.988 C 98.681 81.368,98.033 81.789,97.500 81.994 C 96.996 82.187,96.418 82.530,96.217 82.755 C 95.996 83.003,95.346 83.325,94.579 83.569 C 93.879 83.791,93.032 84.163,92.695 84.395 C 92.246 84.705,91.552 84.912,90.083 85.172 C 88.983 85.366,87.671 85.706,87.167 85.927 C 85.640 86.595,70.085 87.081,68.989 86.494 C 68.519 86.243,68.496 75.629,68.964 75.083 C 69.241 74.760,69.458 74.750,76.083 74.747 C 82.827 74.744,82.930 74.739,83.917 74.357 C 84.467 74.145,85.517 73.839,86.250 73.677 C 87.843 73.326,88.642 73.001,89.059 72.532 C 89.229 72.342,89.591 72.137,89.864 72.077 C 90.638 71.907,94.000 68.981,94.000 68.477 C 94.000 68.416,94.256 68.058,94.570 67.683 C 94.883 67.308,95.270 66.607,95.430 66.125 C 95.589 65.644,95.856 65.063,96.022 64.833 C 97.357 62.989,97.286 54.019,95.923 52.506 C 95.796 52.365,95.639 52.025,95.572 51.750 C 95.406 51.055,94.748 49.775,94.417 49.501 C 94.266 49.375,93.993 48.980,93.811 48.622 C 93.628 48.265,93.278 47.856,93.031 47.713 C 92.785 47.571,92.432 47.221,92.247 46.936 C 92.061 46.650,91.674 46.304,91.385 46.167 C 91.097 46.029,90.707 45.720,90.518 45.480 C 90.330 45.239,89.743 44.871,89.213 44.662 C 88.683 44.452,88.099 44.146,87.914 43.982 C 87.364 43.491,86.504 43.213,84.898 43.006 C 83.945 42.884,83.080 42.660,82.578 42.405 L 81.777 42.000 75.491 42.000 L 69.205 42.000 68.922 41.568 C 68.612 41.095,68.584 30.841,68.891 30.365 C 69.137 29.985,82.741 30.154,83.459 30.546 M139.267 40.167 C 137.757 40.284,137.280 40.393,136.434 40.811 C 135.874 41.088,134.935 41.433,134.347 41.578 C 133.302 41.835,132.167 42.397,132.167 42.658 C 132.167 42.729,131.830 42.917,131.418 43.074 C 130.472 43.435,129.614 44.194,126.505 47.417 C 126.240 47.692,125.878 48.255,125.701 48.669 C 125.524 49.083,125.251 49.528,125.094 49.658 C 124.714 49.973,124.269 50.894,124.001 51.917 C 123.881 52.375,123.678 52.873,123.549 53.023 C 121.812 55.053,121.755 69.321,123.475 71.515 C 123.648 71.736,123.847 72.179,123.916 72.500 C 124.102 73.355,124.761 74.776,125.048 74.941 C 125.185 75.019,125.414 75.365,125.557 75.710 C 126.109 77.039,130.112 81.019,131.268 81.388 C 131.533 81.472,131.954 81.732,132.204 81.965 C 132.454 82.197,133.354 82.631,134.204 82.927 C 135.054 83.224,136.050 83.580,136.417 83.718 C 139.802 84.995,147.858 84.834,150.636 83.434 C 151.065 83.218,151.679 82.985,152.000 82.917 C 152.733 82.761,153.702 82.276,154.001 81.916 C 154.126 81.764,154.589 81.458,155.028 81.236 C 155.468 81.013,155.950 80.644,156.100 80.415 C 156.249 80.187,156.567 79.906,156.805 79.792 C 157.043 79.677,157.414 79.321,157.630 79.000 C 157.845 78.679,158.195 78.325,158.406 78.214 C 158.618 78.103,158.950 77.675,159.143 77.263 C 159.337 76.851,159.640 76.437,159.818 76.341 C 160.142 76.168,161.000 74.558,161.000 74.123 C 161.000 73.996,161.185 73.718,161.411 73.505 C 162.165 72.797,162.808 69.728,162.448 68.555 C 161.994 67.076,161.214 66.851,156.516 66.841 L 153.115 66.833 152.068 67.419 C 151.043 67.992,150.333 68.673,150.333 69.083 C 150.333 69.196,150.165 69.500,149.958 69.760 C 149.752 70.019,149.350 70.639,149.064 71.138 C 148.386 72.323,146.690 73.764,145.584 74.093 C 143.303 74.774,139.525 74.398,139.012 73.439 C 138.895 73.221,138.515 72.883,138.168 72.687 C 137.820 72.492,137.491 72.164,137.436 71.958 C 137.382 71.752,137.103 71.321,136.816 71.000 C 136.194 70.303,136.130 70.149,135.393 67.583 C 134.487 64.431,134.342 60.339,135.054 58.033 C 135.187 57.602,135.460 56.725,135.660 56.083 C 135.860 55.442,136.300 54.515,136.637 54.025 C 136.974 53.534,137.380 52.935,137.538 52.694 C 137.852 52.215,138.576 51.661,140.000 50.809 C 141.108 50.145,144.407 49.971,145.417 50.523 C 145.692 50.673,146.217 50.955,146.583 51.148 C 147.486 51.624,148.759 52.909,149.171 53.759 C 149.357 54.142,149.646 54.581,149.814 54.733 C 149.983 54.885,150.255 55.308,150.420 55.673 C 151.148 57.289,152.156 57.550,157.372 57.473 C 161.543 57.411,161.611 57.392,162.266 56.133 C 162.814 55.080,162.289 52.041,161.393 51.073 C 161.177 50.840,161.000 50.553,161.000 50.435 C 161.000 50.065,160.002 48.203,159.752 48.107 C 159.622 48.057,159.361 47.714,159.173 47.345 C 158.985 46.977,158.599 46.504,158.316 46.296 C 158.033 46.087,157.694 45.711,157.564 45.460 C 157.433 45.209,157.047 44.859,156.705 44.682 C 156.363 44.506,155.990 44.206,155.875 44.017 C 155.761 43.828,155.311 43.492,154.875 43.271 C 154.440 43.049,153.705 42.613,153.242 42.302 C 152.772 41.985,151.963 41.637,151.409 41.513 C 150.863 41.391,150.078 41.115,149.664 40.899 C 148.298 40.186,143.425 39.842,139.267 40.167 M179.941 40.170 C 178.286 40.292,177.799 40.394,176.941 40.803 C 176.378 41.071,175.504 41.386,175.000 41.501 C 174.030 41.724,172.927 42.214,172.750 42.500 C 172.692 42.594,172.330 42.827,171.947 43.018 C 171.247 43.365,170.783 43.749,169.625 44.941 C 169.281 45.294,168.781 45.808,168.514 46.083 C 168.247 46.358,167.833 46.996,167.594 47.500 C 167.354 48.004,166.970 48.731,166.739 49.116 C 166.379 49.713,166.099 50.780,165.565 53.583 C 165.476 54.053,166.160 55.331,166.721 55.740 C 167.309 56.169,173.899 56.267,175.039 55.863 C 175.830 55.583,176.986 54.275,177.668 52.888 C 177.954 52.308,178.255 51.833,178.337 51.833 C 178.420 51.833,178.825 51.505,179.239 51.103 C 182.156 48.268,188.693 49.472,189.451 52.985 C 190.024 55.639,189.803 55.935,187.071 56.169 C 185.978 56.263,184.558 56.413,183.917 56.502 C 183.275 56.592,181.506 56.812,179.985 56.991 C 176.823 57.365,174.944 57.724,174.435 58.053 C 174.242 58.178,173.521 58.448,172.833 58.652 C 172.146 58.857,171.283 59.223,170.917 59.465 C 170.550 59.707,169.959 60.052,169.603 60.231 C 168.730 60.670,166.466 62.842,166.070 63.621 C 165.894 63.967,165.554 64.485,165.315 64.771 C 164.933 65.229,164.631 66.165,164.241 68.108 C 164.201 68.305,163.908 68.619,163.590 68.807 C 163.066 69.116,163.025 69.193,163.160 69.616 C 163.242 69.873,163.396 70.721,163.503 71.500 C 163.609 72.279,163.833 73.329,164.001 73.833 C 164.168 74.337,164.425 75.313,164.572 76.002 C 164.832 77.223,165.343 78.333,165.646 78.333 C 165.729 78.333,165.845 78.522,165.902 78.752 C 166.035 79.280,167.534 80.967,168.289 81.438 C 168.601 81.634,168.965 81.947,169.097 82.135 C 169.228 82.323,169.767 82.638,170.293 82.835 C 170.819 83.031,171.485 83.337,171.773 83.515 C 174.064 84.928,182.245 84.857,184.833 83.400 C 185.063 83.271,185.707 83.028,186.264 82.859 C 186.822 82.690,187.685 82.249,188.181 81.878 C 188.677 81.508,189.271 81.150,189.500 81.083 C 189.729 81.016,190.096 80.802,190.315 80.606 C 190.533 80.410,190.740 80.325,190.775 80.417 C 191.670 82.818,192.340 83.084,197.500 83.081 C 203.197 83.079,203.272 83.026,202.782 79.349 C 202.628 78.195,202.458 76.725,202.404 76.083 C 202.350 75.442,202.239 74.467,202.157 73.917 C 201.693 70.791,201.500 66.775,201.500 60.258 C 201.500 51.122,201.284 48.967,200.250 47.766 C 200.021 47.499,199.833 47.168,199.833 47.030 C 199.833 46.629,199.072 45.473,198.340 44.762 C 197.970 44.403,197.667 44.054,197.667 43.988 C 197.667 43.922,197.273 43.621,196.792 43.318 C 196.310 43.016,195.642 42.557,195.305 42.298 C 194.935 42.012,194.246 41.725,193.555 41.569 C 192.929 41.428,192.079 41.136,191.667 40.920 C 190.267 40.190,184.602 39.827,179.941 40.170 M280.083 40.168 C 278.812 40.282,278.089 40.506,277.167 41.070 C 276.938 41.210,276.444 41.401,276.071 41.494 C 275.266 41.695,273.199 43.119,272.225 44.145 L 271.534 44.873 271.283 44.478 C 271.145 44.261,270.980 43.759,270.916 43.362 C 270.614 41.486,269.416 40.970,265.167 40.880 C 261.409 40.800,260.038 41.107,259.423 42.167 C 259.011 42.874,258.778 78.590,259.170 80.873 C 259.526 82.949,259.932 83.087,265.667 83.075 C 272.055 83.062,271.394 84.553,271.500 69.917 C 271.546 63.592,271.636 58.336,271.700 58.237 C 271.765 58.138,272.080 57.052,272.401 55.822 C 272.896 53.928,273.059 53.524,273.475 53.169 C 273.745 52.938,274.053 52.578,274.160 52.367 C 274.266 52.157,274.717 51.761,275.160 51.488 C 275.604 51.215,276.008 50.887,276.057 50.759 C 276.543 49.493,283.311 49.739,284.604 51.071 C 284.922 51.399,285.288 51.667,285.417 51.667 C 285.625 51.667,286.099 52.906,286.883 55.500 C 286.996 55.875,287.093 60.599,287.155 68.750 C 287.260 82.749,287.212 82.170,288.317 82.741 C 289.106 83.150,297.344 83.187,298.259 82.786 C 299.763 82.127,299.743 82.416,299.525 65.083 C 299.346 50.821,299.315 50.417,298.245 48.238 C 297.927 47.589,297.667 46.975,297.667 46.872 C 297.667 46.388,295.244 43.706,294.230 43.067 C 293.966 42.901,293.511 42.562,293.220 42.314 C 292.928 42.066,292.253 41.741,291.720 41.591 C 291.186 41.441,290.298 41.095,289.746 40.820 C 288.271 40.088,284.104 39.806,280.083 40.168 M355.000 40.166 C 352.988 40.310,352.232 40.476,351.542 40.928 C 351.313 41.078,350.520 41.346,349.780 41.523 C 348.959 41.719,348.204 42.019,347.844 42.294 C 347.519 42.542,346.827 42.946,346.306 43.193 C 345.784 43.439,345.231 43.834,345.076 44.070 C 344.922 44.307,344.686 44.500,344.552 44.500 C 344.418 44.500,343.706 45.119,342.969 45.875 C 340.909 47.990,340.719 48.209,340.415 48.817 C 340.259 49.129,339.919 49.679,339.658 50.038 C 339.398 50.397,339.058 51.079,338.902 51.554 C 338.746 52.028,338.440 52.761,338.222 53.183 C 336.517 56.474,336.575 67.417,338.317 71.072 C 338.582 71.628,338.893 72.383,339.007 72.750 C 339.574 74.564,341.096 76.458,345.083 80.312 C 345.358 80.578,345.996 81.001,346.500 81.253 C 347.004 81.505,347.717 81.921,348.083 82.179 C 348.450 82.437,349.238 82.770,349.833 82.919 C 350.429 83.068,351.292 83.369,351.750 83.588 C 354.561 84.928,362.917 84.828,365.895 83.420 C 366.383 83.189,366.903 83.000,367.051 83.000 C 367.485 83.000,369.118 82.342,369.336 82.080 C 369.446 81.948,370.089 81.573,370.765 81.248 C 371.440 80.923,372.070 80.514,372.164 80.339 C 372.257 80.164,372.626 79.857,372.983 79.656 C 373.341 79.455,373.734 79.102,373.857 78.872 C 373.981 78.641,374.363 78.275,374.708 78.058 C 375.052 77.840,375.333 77.587,375.333 77.494 C 375.333 77.402,375.622 77.009,375.975 76.621 C 376.327 76.234,376.831 75.542,377.095 75.083 C 377.358 74.625,377.740 74.003,377.942 73.701 C 378.145 73.400,378.438 72.762,378.593 72.285 C 378.748 71.807,379.014 71.185,379.184 70.903 C 380.901 68.050,380.914 56.827,379.206 53.151 C 378.933 52.564,378.580 51.724,378.422 51.285 C 378.263 50.846,377.964 50.284,377.756 50.035 C 377.549 49.787,377.210 49.250,377.002 48.842 C 376.795 48.434,376.408 47.872,376.142 47.592 C 373.829 45.160,373.347 44.693,373.043 44.597 C 372.853 44.537,372.574 44.300,372.424 44.071 C 372.274 43.843,371.755 43.480,371.269 43.265 C 370.783 43.051,370.008 42.615,369.547 42.298 C 369.015 41.932,368.320 41.641,367.646 41.502 C 367.061 41.381,366.283 41.114,365.917 40.908 C 364.643 40.192,359.517 39.844,355.000 40.166 M288.123 41.271 C 294.787 42.883,297.827 46.485,298.660 53.758 C 298.966 56.432,298.888 80.357,298.570 81.150 C 298.123 82.269,297.628 82.407,293.833 82.472 C 290.416 82.530,288.884 82.354,288.440 81.854 C 287.876 81.219,287.835 80.338,287.831 68.750 C 287.827 54.327,287.799 54.046,286.146 51.469 C 283.537 47.400,275.124 48.403,272.609 53.083 C 270.968 56.137,270.973 56.084,270.885 69.000 C 270.798 81.656,270.808 81.538,269.738 82.083 C 268.787 82.567,261.933 82.591,260.974 82.113 C 259.857 81.558,259.917 82.702,259.917 61.805 L 259.917 42.860 260.305 42.446 C 260.883 41.831,261.854 41.666,264.865 41.671 C 268.973 41.677,269.477 41.893,269.932 43.844 C 270.477 46.181,271.065 46.429,272.547 44.947 C 273.145 44.349,273.960 43.650,274.359 43.393 C 274.757 43.137,275.286 42.765,275.533 42.565 C 277.554 40.937,284.002 40.274,288.123 41.271 M149.100 41.546 C 154.224 42.935,158.695 46.659,160.522 51.062 C 160.784 51.692,161.155 52.462,161.348 52.774 C 161.908 53.679,161.973 55.153,161.479 55.726 C 160.915 56.379,160.184 56.492,156.479 56.496 C 152.109 56.501,151.622 56.335,150.639 54.500 C 146.845 47.419,138.926 47.508,135.331 54.672 C 134.071 57.182,133.930 57.938,133.934 62.167 C 133.941 69.513,135.939 73.298,140.714 75.008 C 143.696 76.076,147.699 74.712,149.480 72.023 C 149.700 71.689,150.010 71.267,150.168 71.083 C 150.326 70.900,150.586 70.400,150.745 69.973 C 151.421 68.157,152.302 67.830,156.479 67.843 C 162.306 67.862,162.867 68.380,161.158 72.167 C 160.807 72.946,160.448 73.771,160.361 74.000 C 159.183 77.115,154.095 81.604,150.667 82.553 C 150.162 82.693,149.000 83.017,148.083 83.275 C 145.721 83.937,141.563 84.047,139.466 83.502 C 138.706 83.304,137.328 82.967,136.404 82.753 C 129.663 81.191,123.867 74.245,123.001 66.692 C 121.397 52.692,127.304 43.381,139.333 40.947 C 141.038 40.602,146.956 40.965,149.100 41.546 M190.583 41.465 C 196.170 42.813,198.629 45.021,200.457 50.333 C 200.671 50.955,200.737 52.649,200.842 60.250 C 201.019 72.972,201.222 76.777,201.838 78.859 C 202.814 82.158,202.474 82.417,197.167 82.417 C 193.041 82.417,193.102 82.436,192.159 80.833 C 191.159 79.133,190.871 79.050,189.440 80.046 C 187.624 81.310,185.774 82.306,184.750 82.571 C 179.181 84.011,176.470 84.213,174.167 83.362 C 173.662 83.175,172.725 82.869,172.083 82.681 C 171.442 82.494,170.723 82.207,170.485 82.045 C 170.248 81.883,169.689 81.505,169.242 81.207 C 163.898 77.632,162.933 68.124,167.417 63.206 C 170.694 59.611,175.893 57.870,184.946 57.335 C 189.551 57.062,189.393 57.094,190.078 56.294 C 191.455 54.686,190.286 51.030,187.976 49.715 C 183.789 47.332,179.354 48.609,176.586 52.996 C 175.275 55.073,175.249 55.083,171.167 55.083 C 166.509 55.083,166.117 54.855,166.486 52.366 C 167.341 46.594,172.758 42.043,180.083 40.943 C 182.110 40.639,188.468 40.955,190.583 41.465 M244.141 41.065 C 241.999 41.642,242.152 39.928,242.268 62.000 C 242.369 81.447,242.385 81.844,243.063 82.481 C 243.830 83.202,251.647 83.436,253.195 82.785 C 254.521 82.228,254.417 83.988,254.417 62.091 L 254.417 42.583 254.034 42.046 C 253.243 40.938,246.935 40.312,244.141 41.065 M323.333 41.221 C 321.492 41.837,321.655 39.734,321.706 62.174 C 321.755 83.967,321.648 82.210,322.971 82.801 C 323.940 83.233,331.988 83.212,332.868 82.775 C 334.403 82.013,334.542 78.973,334.194 53.750 C 334.020 41.223,334.121 41.808,332.038 41.165 C 330.405 40.660,324.901 40.696,323.333 41.221 M365.402 41.573 C 374.725 44.070,380.240 52.365,379.775 63.191 C 379.477 70.145,376.152 76.830,371.556 79.717 C 371.174 79.957,370.813 80.232,370.753 80.328 C 370.501 80.736,366.537 82.472,365.250 82.739 C 364.517 82.890,363.354 83.180,362.667 83.382 C 360.837 83.921,356.523 83.919,354.583 83.379 C 353.850 83.175,352.677 82.890,351.976 82.746 C 346.579 81.640,340.810 76.153,338.989 70.397 C 338.790 69.766,338.492 68.837,338.328 68.333 C 338.164 67.829,337.949 66.742,337.849 65.917 C 336.378 53.749,341.990 44.169,352.089 41.607 C 355.225 40.811,354.769 40.856,359.167 40.907 L 363.083 40.952 365.402 41.573 M252.417 41.977 C 253.798 42.605,253.795 42.556,253.810 66.000 C 253.821 84.182,254.410 82.417,248.333 82.417 C 245.083 82.417,244.688 82.386,244.083 82.083 C 242.930 81.507,242.990 82.526,242.884 61.667 L 242.789 42.917 243.150 42.467 C 243.816 41.636,250.850 41.264,252.417 41.977 M331.816 41.927 C 333.362 42.386,333.243 40.699,333.247 62.279 L 333.250 81.142 332.900 81.612 C 332.338 82.370,331.409 82.516,327.500 82.463 C 323.384 82.407,322.905 82.266,322.543 81.000 C 322.217 79.858,322.316 42.839,322.646 42.441 C 323.287 41.669,329.731 41.308,331.816 41.927 M357.221 48.841 C 351.825 49.908,348.831 54.670,348.835 62.180 C 348.837 67.503,349.854 70.413,352.652 73.105 C 353.680 74.094,353.711 74.112,355.783 74.916 C 359.818 76.484,364.638 74.534,366.864 70.434 C 370.936 62.934,368.634 52.294,362.352 49.572 C 360.367 48.712,358.918 48.505,357.221 48.841 M361.167 50.077 C 362.482 50.392,362.837 50.557,363.632 51.221 C 364.022 51.547,364.476 51.856,364.640 51.908 C 364.805 51.961,365.070 52.276,365.229 52.610 C 365.388 52.943,365.785 53.542,366.112 53.940 C 366.583 54.515,366.788 55.007,367.105 56.324 C 367.325 57.237,367.664 58.344,367.858 58.784 C 368.322 59.834,368.369 63.851,367.929 64.876 C 367.782 65.221,367.441 66.405,367.172 67.508 C 366.764 69.175,366.584 69.627,366.102 70.190 C 365.782 70.563,365.406 71.111,365.265 71.408 C 365.053 71.855,363.383 73.287,362.357 73.900 C 361.418 74.462,358.209 74.645,356.306 74.244 C 355.041 73.978,354.749 73.837,353.917 73.088 C 353.642 72.841,353.216 72.565,352.970 72.474 C 352.723 72.382,352.455 72.111,352.368 71.863 C 352.282 71.617,351.902 71.026,351.525 70.549 C 350.331 69.042,349.226 63.902,349.508 61.173 C 349.821 58.150,350.624 55.029,351.329 54.097 C 351.612 53.723,352.006 53.098,352.204 52.709 C 352.403 52.320,352.699 51.959,352.862 51.907 C 353.026 51.856,353.473 51.551,353.856 51.231 C 354.688 50.536,355.251 50.288,356.583 50.032 C 357.133 49.926,357.733 49.806,357.917 49.764 C 358.392 49.656,360.092 49.820,361.167 50.077 M183.047 64.845 C 177.365 65.988,175.597 67.369,175.587 70.667 C 175.577 74.195,177.711 75.950,181.830 75.803 C 185.862 75.659,188.799 73.343,190.081 69.296 C 191.693 64.205,190.374 63.370,183.047 64.845 M189.371 65.563 C 190.012 66.351,189.535 69.280,188.509 70.859 C 188.138 71.431,187.833 71.995,187.833 72.112 C 187.833 72.229,187.615 72.438,187.348 72.576 C 187.082 72.714,186.650 73.075,186.390 73.380 C 185.220 74.748,181.124 75.365,178.870 74.514 C 176.464 73.605,175.438 70.234,176.998 68.363 C 177.863 67.325,178.024 67.188,178.502 67.083 C 178.756 67.027,179.320 66.756,179.755 66.480 C 180.395 66.074,180.882 65.934,182.314 65.742 C 183.287 65.612,184.833 65.404,185.750 65.279 C 187.849 64.994,188.981 65.083,189.371 65.563 M308.250 70.401 C 307.792 70.638,307.320 70.832,307.203 70.833 C 304.439 70.842,302.030 76.417,303.494 79.417 C 304.971 82.443,310.128 84.807,312.250 83.430 C 312.433 83.311,312.996 83.093,313.500 82.944 C 314.559 82.632,316.037 81.381,316.581 80.335 C 316.766 79.981,317.099 79.367,317.323 78.971 C 318.052 77.677,317.697 74.000,316.843 74.000 C 316.761 74.000,316.643 73.774,316.583 73.497 C 316.418 72.748,314.787 71.217,313.848 70.930 C 313.427 70.802,312.831 70.568,312.522 70.410 C 311.505 69.890,309.249 69.885,308.250 70.401 M313.030 71.391 C 315.587 72.165,317.469 75.638,316.671 78.109 C 315.654 81.257,313.665 82.731,310.417 82.744 C 303.909 82.770,301.464 75.279,306.839 71.783 C 308.002 71.027,311.165 70.826,313.030 71.391 " stroke="none" fill="#a0b4bd" fill-rule="evenodd"></path><path id="path4" d="M209.132 26.665 C 207.228 27.239,207.372 25.092,207.277 54.250 C 207.180 83.804,207.060 81.661,208.850 82.256 C 210.119 82.677,215.980 82.552,216.917 82.083 C 218.246 81.419,218.158 83.463,218.119 54.070 L 218.083 28.057 217.633 27.467 C 217.310 27.044,216.972 26.824,216.434 26.689 C 215.580 26.473,209.829 26.455,209.132 26.665 M226.994 26.654 C 226.152 26.819,226.013 26.940,225.568 27.895 L 225.170 28.750 225.178 54.667 C 225.186 82.497,225.151 81.398,226.054 82.068 C 226.770 82.599,234.095 82.605,235.000 82.075 C 236.166 81.392,236.079 83.517,236.127 54.621 C 236.176 24.918,236.304 27.586,234.786 26.851 C 234.034 26.487,228.554 26.348,226.994 26.654 M247.167 26.654 C 242.473 27.378,240.492 32.951,243.745 36.278 C 246.696 39.297,252.556 38.215,254.001 34.384 C 255.534 30.320,251.678 25.958,247.167 26.654 M326.570 26.648 C 321.825 27.466,319.944 33.228,323.371 36.447 C 325.602 38.544,330.023 38.497,332.159 36.354 C 336.154 32.347,332.304 25.659,326.570 26.648 M216.156 27.661 C 216.509 27.842,216.919 28.109,217.066 28.256 C 217.309 28.500,217.333 30.871,217.333 54.369 L 217.333 80.214 216.542 80.997 L 215.750 81.779 213.250 81.728 C 211.875 81.700,210.397 81.675,209.966 81.672 C 209.229 81.667,209.153 81.623,208.675 80.928 L 208.167 80.190 208.167 54.434 L 208.167 28.678 208.752 28.093 L 209.337 27.508 212.210 27.458 C 213.790 27.431,215.180 27.391,215.298 27.371 C 215.417 27.350,215.802 27.481,216.156 27.661 M234.777 28.100 L 235.342 28.700 235.296 54.392 L 235.250 80.083 234.795 80.857 L 234.340 81.631 231.129 81.697 C 227.259 81.777,226.603 81.677,226.212 80.944 C 225.819 80.208,225.877 28.816,226.271 28.252 C 226.698 27.643,227.432 27.526,230.897 27.513 L 234.211 27.500 234.777 28.100 M250.933 28.174 C 251.520 28.455,252.000 28.755,252.000 28.841 C 252.000 28.928,252.268 29.296,252.597 29.659 C 254.542 31.813,253.340 35.973,250.499 36.917 C 246.635 38.200,242.823 35.915,242.835 32.322 C 242.848 28.585,247.163 26.375,250.933 28.174 M330.072 27.969 C 332.370 28.870,333.520 31.456,332.752 33.995 C 331.436 38.339,324.020 38.327,322.576 33.978 C 321.167 29.735,325.571 26.205,330.072 27.969 M68.891 30.365 C 68.584 30.841,68.612 41.095,68.922 41.568 L 69.205 42.000 75.491 42.000 L 81.777 42.000 82.578 42.405 C 83.080 42.660,83.945 42.884,84.898 43.006 C 86.504 43.213,87.364 43.491,87.914 43.982 C 88.099 44.146,88.683 44.452,89.213 44.662 C 89.743 44.871,90.330 45.239,90.518 45.480 C 90.707 45.720,91.097 46.029,91.385 46.167 C 91.674 46.304,92.061 46.650,92.247 46.936 C 92.432 47.221,92.785 47.571,93.031 47.713 C 93.278 47.856,93.628 48.265,93.811 48.622 C 93.993 48.980,94.266 49.375,94.417 49.501 C 94.748 49.775,95.406 51.055,95.572 51.750 C 95.639 52.025,95.796 52.365,95.923 52.506 C 97.286 54.019,97.357 62.989,96.022 64.833 C 95.856 65.063,95.589 65.644,95.430 66.125 C 95.270 66.607,94.883 67.308,94.570 67.683 C 94.256 68.058,94.000 68.416,94.000 68.477 C 94.000 68.981,90.638 71.907,89.864 72.077 C 89.591 72.137,89.229 72.342,89.059 72.532 C 88.642 73.001,87.843 73.326,86.250 73.677 C 85.517 73.839,84.467 74.145,83.917 74.357 C 82.930 74.739,82.827 74.744,76.083 74.747 C 69.458 74.750,69.241 74.760,68.964 75.083 C 68.496 75.629,68.519 86.243,68.989 86.494 C 70.085 87.081,85.640 86.595,87.167 85.927 C 87.671 85.706,88.983 85.366,90.083 85.172 C 91.552 84.912,92.246 84.705,92.695 84.395 C 93.032 84.163,93.879 83.791,94.579 83.569 C 95.346 83.325,95.996 83.003,96.217 82.755 C 96.418 82.530,96.996 82.187,97.500 81.994 C 98.033 81.789,98.681 81.368,99.048 80.988 C 99.395 80.628,99.829 80.333,100.012 80.333 C 100.216 80.333,100.479 80.106,100.692 79.744 C 100.884 79.420,101.255 79.043,101.517 78.908 C 101.780 78.772,102.108 78.441,102.247 78.172 C 102.386 77.904,102.762 77.484,103.083 77.239 C 103.404 76.994,103.667 76.697,103.667 76.579 C 103.667 76.461,104.001 75.953,104.410 75.451 C 104.819 74.949,105.348 74.099,105.586 73.562 C 105.823 73.026,106.155 72.436,106.324 72.252 C 106.492 72.067,106.832 71.242,107.079 70.417 C 107.325 69.592,107.674 68.663,107.854 68.353 C 109.565 65.405,109.518 52.744,107.783 49.206 C 107.570 48.772,107.214 47.817,106.992 47.083 C 106.769 46.350,106.462 45.637,106.308 45.500 C 106.154 45.362,105.786 44.688,105.490 44.000 C 105.194 43.313,104.812 42.651,104.641 42.531 C 104.469 42.410,104.177 42.013,103.991 41.649 C 103.641 40.963,103.176 40.424,101.438 38.690 C 99.583 36.841,99.000 36.338,98.439 36.103 C 98.133 35.976,97.717 35.638,97.513 35.352 C 97.310 35.067,97.034 34.833,96.901 34.833 C 96.508 34.833,94.717 33.872,94.616 33.607 C 94.564 33.474,94.274 33.313,93.970 33.251 C 92.634 32.975,91.608 32.608,91.294 32.294 C 90.882 31.882,90.536 31.802,86.876 31.265 C 85.163 31.013,83.783 30.723,83.459 30.546 C 82.741 30.154,69.137 29.985,68.891 30.365 M281.583 40.830 C 279.702 40.963,276.316 41.934,275.533 42.565 C 275.286 42.765,274.757 43.137,274.359 43.393 C 273.960 43.650,273.145 44.349,272.547 44.947 C 271.065 46.429,270.477 46.181,269.932 43.844 C 269.477 41.893,268.973 41.677,264.865 41.671 C 261.854 41.666,260.883 41.831,260.305 42.446 L 259.917 42.860 259.917 61.805 C 259.917 82.702,259.857 81.558,260.974 82.113 C 261.933 82.591,268.787 82.567,269.738 82.083 C 270.808 81.538,270.798 81.656,270.885 69.000 C 270.973 56.084,270.968 56.137,272.609 53.083 C 275.124 48.403,283.537 47.400,286.146 51.469 C 287.799 54.046,287.827 54.327,287.831 68.750 C 287.836 82.480,287.763 81.930,289.631 82.326 C 291.175 82.653,296.915 82.501,297.695 82.112 C 298.873 81.526,298.833 82.021,298.832 67.872 C 298.830 53.258,298.677 51.267,297.317 48.177 C 295.039 43.004,289.227 40.290,281.583 40.830 M139.333 40.947 C 127.304 43.381,121.397 52.692,123.001 66.692 C 123.867 74.245,129.663 81.191,136.404 82.753 C 137.328 82.967,138.706 83.304,139.466 83.502 C 141.563 84.047,145.721 83.937,148.083 83.275 C 149.000 83.017,150.162 82.693,150.667 82.553 C 154.095 81.604,159.183 77.115,160.361 74.000 C 160.448 73.771,160.807 72.946,161.158 72.167 C 162.867 68.380,162.306 67.862,156.479 67.843 C 152.302 67.830,151.421 68.157,150.745 69.973 C 150.586 70.400,150.326 70.900,150.168 71.083 C 150.010 71.267,149.700 71.689,149.480 72.023 C 147.699 74.712,143.696 76.076,140.714 75.008 C 135.939 73.298,133.941 69.513,133.934 62.167 C 133.930 57.938,134.071 57.182,135.331 54.672 C 138.926 47.508,146.845 47.419,150.639 54.500 C 151.622 56.335,152.109 56.501,156.479 56.496 C 160.184 56.492,160.915 56.379,161.479 55.726 C 161.973 55.153,161.908 53.679,161.348 52.774 C 161.155 52.462,160.784 51.692,160.522 51.062 C 158.695 46.659,154.224 42.935,149.100 41.546 C 146.956 40.965,141.038 40.602,139.333 40.947 M180.083 40.943 C 172.758 42.043,167.341 46.594,166.486 52.366 C 166.117 54.855,166.509 55.083,171.167 55.083 C 175.249 55.083,175.275 55.073,176.586 52.996 C 179.354 48.609,183.789 47.332,187.976 49.715 C 190.286 51.030,191.455 54.686,190.078 56.294 C 189.393 57.094,189.551 57.062,184.946 57.335 C 175.893 57.870,170.694 59.611,167.417 63.206 C 162.933 68.124,163.898 77.632,169.242 81.207 C 169.689 81.505,170.248 81.883,170.485 82.045 C 170.723 82.207,171.442 82.494,172.083 82.681 C 172.725 82.869,173.662 83.175,174.167 83.362 C 176.470 84.213,179.181 84.011,184.750 82.571 C 185.774 82.306,187.624 81.310,189.440 80.046 C 190.871 79.050,191.159 79.133,192.159 80.833 C 193.102 82.436,193.041 82.417,197.167 82.417 C 202.474 82.417,202.814 82.158,201.838 78.859 C 201.222 76.777,201.019 72.972,200.842 60.250 C 200.737 52.649,200.671 50.955,200.457 50.333 C 198.629 45.021,196.170 42.813,190.583 41.465 C 188.468 40.955,182.110 40.639,180.083 40.943 M354.833 40.939 C 346.247 42.531,340.895 47.139,338.598 54.917 C 337.436 58.853,337.308 65.196,338.328 68.333 C 338.492 68.837,338.790 69.766,338.989 70.397 C 340.810 76.153,346.579 81.640,351.976 82.746 C 352.677 82.890,353.850 83.175,354.583 83.379 C 356.523 83.919,360.837 83.921,362.667 83.382 C 363.354 83.180,364.517 82.890,365.250 82.739 C 366.537 82.472,370.501 80.736,370.753 80.328 C 370.813 80.232,371.174 79.957,371.556 79.717 C 374.533 77.847,377.679 73.275,378.814 69.167 C 382.347 56.387,376.605 44.574,365.402 41.573 L 363.083 40.952 359.167 40.907 C 357.012 40.882,355.063 40.897,354.833 40.939 M145.500 41.825 C 151.103 42.265,156.657 45.385,158.587 49.177 C 158.800 49.595,159.086 50.030,159.222 50.144 C 159.697 50.538,160.857 53.768,160.801 54.540 C 160.728 55.551,160.346 55.646,156.333 55.655 C 152.368 55.663,152.116 55.573,151.156 53.816 C 147.179 46.541,138.812 46.580,134.780 53.891 C 132.430 58.153,132.392 66.342,134.701 70.700 C 137.130 75.285,142.036 77.402,145.981 75.568 C 148.122 74.572,148.431 74.366,149.456 73.248 C 150.057 72.593,150.833 71.496,151.222 70.750 C 152.307 68.673,152.324 68.666,156.483 68.668 C 158.422 68.668,160.198 68.747,160.563 68.848 L 161.210 69.028 161.111 69.865 C 161.056 70.325,160.940 70.788,160.852 70.894 C 160.764 71.000,160.462 71.718,160.180 72.490 C 159.898 73.262,159.526 74.049,159.353 74.239 C 159.179 74.428,158.887 74.883,158.702 75.250 C 157.992 76.659,153.811 80.667,153.050 80.667 C 152.962 80.667,152.333 80.960,151.653 81.318 C 146.903 83.819,138.392 83.398,132.583 80.374 C 131.313 79.713,128.415 77.276,128.019 76.536 C 127.925 76.360,127.587 75.903,127.268 75.521 C 126.949 75.140,126.461 74.347,126.184 73.761 C 125.907 73.175,125.603 72.647,125.509 72.589 C 125.415 72.531,125.192 71.981,125.014 71.367 C 124.836 70.752,124.441 69.387,124.137 68.333 L 123.583 66.417 123.583 62.250 C 123.583 58.405,123.611 58.000,123.948 57.000 C 124.149 56.404,124.507 55.167,124.744 54.250 C 124.981 53.333,125.326 52.376,125.511 52.122 C 125.696 51.868,126.000 51.306,126.185 50.872 C 127.146 48.625,130.586 45.096,132.940 43.941 C 135.399 42.734,136.028 42.482,137.167 42.243 C 139.567 41.741,142.531 41.592,145.500 41.825 M186.933 41.832 C 190.144 42.051,192.371 42.501,193.478 43.154 C 193.962 43.439,194.596 43.773,194.887 43.896 C 195.415 44.119,197.114 45.729,198.105 46.944 C 198.450 47.367,198.893 48.371,199.418 49.917 L 200.210 52.250 200.343 63.417 C 200.478 74.831,200.625 77.932,201.098 79.438 C 201.316 80.134,201.328 80.367,201.162 80.688 C 200.644 81.688,200.735 81.667,197.065 81.667 L 193.681 81.667 193.216 80.875 C 192.960 80.440,192.638 79.749,192.500 79.339 C 191.976 77.781,190.423 77.941,188.500 79.752 C 186.162 81.955,179.312 83.472,175.250 82.687 C 171.670 81.995,170.121 81.256,168.216 79.333 C 165.242 76.331,164.379 70.311,166.351 66.318 C 166.708 65.595,167.000 64.946,167.000 64.877 C 167.001 64.361,171.235 60.833,171.852 60.833 C 171.943 60.833,172.707 60.541,173.550 60.183 C 175.739 59.255,181.732 58.281,186.833 58.026 C 190.719 57.832,191.509 57.293,191.497 54.845 C 191.457 46.531,180.048 45.128,175.663 52.898 C 175.225 53.673,175.035 53.847,174.378 54.071 C 173.315 54.433,169.243 54.437,168.030 54.077 L 167.167 53.820 167.167 52.905 C 167.167 52.213,167.293 51.741,167.686 50.962 C 167.971 50.397,168.306 49.647,168.430 49.296 C 168.766 48.344,170.399 46.269,171.681 45.166 C 174.956 42.347,179.602 41.331,186.933 41.832 M244.214 41.860 C 243.780 41.957,243.372 42.190,243.150 42.467 L 242.789 42.917 242.884 61.667 C 242.990 82.526,242.930 81.507,244.083 82.083 C 244.688 82.386,245.083 82.417,248.333 82.417 C 252.677 82.417,253.060 82.306,253.534 80.917 C 254.072 79.341,253.883 43.246,253.333 42.582 C 252.622 41.724,246.859 41.267,244.214 41.860 M288.167 42.070 C 289.883 42.419,290.705 42.662,291.000 42.908 C 291.137 43.023,291.726 43.372,292.307 43.683 C 294.381 44.795,296.478 47.586,297.055 50.000 C 297.748 52.903,297.811 54.170,297.918 67.424 L 298.021 80.264 297.269 81.072 C 296.562 81.831,296.479 81.873,295.883 81.775 C 295.535 81.717,294.044 81.670,292.569 81.669 L 289.889 81.667 289.194 81.026 L 288.500 80.385 288.499 68.484 C 288.497 53.647,288.499 53.674,286.963 51.333 C 283.653 46.287,274.914 47.201,271.820 52.917 C 270.221 55.871,270.299 55.118,270.183 68.706 L 270.083 80.329 269.417 80.986 L 268.750 81.643 265.355 81.696 L 261.960 81.749 261.314 81.000 L 260.668 80.250 260.667 62.172 C 260.667 41.830,260.607 42.848,261.826 42.483 C 262.499 42.281,267.882 42.351,268.363 42.567 C 268.720 42.728,268.969 43.445,269.178 44.914 C 269.525 47.359,270.810 48.092,272.083 46.573 C 273.059 45.409,274.426 44.146,275.083 43.802 C 275.450 43.609,275.976 43.280,276.252 43.070 C 277.863 41.843,284.367 41.298,288.167 42.070 M323.646 41.927 C 322.308 42.339,322.422 40.595,322.373 61.484 C 322.324 82.454,322.276 81.508,323.420 82.083 C 325.097 82.926,332.186 82.574,332.900 81.612 L 333.250 81.142 333.247 62.279 C 333.243 40.699,333.362 42.386,331.816 41.927 C 330.630 41.575,324.790 41.575,323.646 41.927 M364.394 42.163 C 370.705 43.242,376.399 48.631,377.980 55.021 C 380.684 65.948,376.897 76.663,369.000 80.429 C 365.653 82.025,365.875 81.954,362.503 82.515 C 359.455 83.022,358.031 83.101,356.500 82.845 C 352.321 82.147,351.525 81.959,350.333 81.388 C 349.646 81.059,348.818 80.696,348.493 80.581 C 344.866 79.299,340.656 73.655,339.209 68.135 L 338.584 65.750 338.597 62.000 L 338.610 58.250 339.224 55.923 C 342.130 44.903,351.253 39.916,364.394 42.163 M251.901 42.523 C 252.881 42.970,252.857 42.528,252.952 62.167 L 253.039 80.083 252.428 80.875 C 252.093 81.310,251.690 81.675,251.534 81.686 C 251.378 81.696,249.862 81.693,248.167 81.679 L 245.083 81.653 244.484 81.000 L 243.884 80.348 243.776 73.799 C 243.717 70.197,243.619 61.962,243.559 55.499 C 243.437 42.412,243.400 42.906,244.532 42.544 C 245.302 42.297,251.368 42.280,251.901 42.523 M331.314 42.518 C 332.520 42.939,332.588 44.390,332.647 70.850 C 332.673 82.697,333.089 81.771,327.766 81.700 L 324.417 81.656 323.817 81.002 L 323.218 80.349 323.125 62.387 C 323.021 42.319,322.990 42.943,324.133 42.524 C 324.765 42.293,330.653 42.288,331.314 42.518 M358.333 47.921 C 358.196 47.948,357.521 48.062,356.833 48.174 C 352.891 48.816,349.221 52.832,348.312 57.500 C 348.044 58.878,348.029 65.366,348.291 66.792 C 348.874 69.973,351.618 73.913,353.967 74.942 C 354.489 75.171,355.292 75.535,355.750 75.752 C 359.425 77.491,365.708 74.799,367.597 70.676 C 367.831 70.167,368.204 69.403,368.427 68.978 C 369.256 67.401,369.723 63.194,369.452 59.750 C 369.067 54.860,366.868 51.050,363.329 49.143 C 361.870 48.357,359.312 47.732,358.333 47.921 M360.156 48.831 C 366.173 49.972,369.735 56.625,368.682 64.750 C 367.674 72.521,361.712 77.219,355.783 74.916 C 353.711 74.112,353.680 74.094,352.652 73.105 C 347.250 67.909,347.398 55.726,352.922 50.863 C 354.693 49.304,357.900 48.403,360.156 48.831 M184.415 63.666 C 183.315 63.833,181.965 64.117,181.415 64.297 C 180.866 64.478,179.892 64.782,179.250 64.973 C 174.223 66.471,172.906 72.210,176.888 75.269 C 178.638 76.613,182.949 77.016,185.000 76.027 C 188.586 74.298,190.800 71.451,191.349 67.865 C 191.996 63.640,190.513 62.742,184.415 63.666 M189.534 64.341 C 191.725 65.342,190.365 71.134,187.334 73.706 C 183.634 76.846,177.444 76.478,175.984 73.030 C 175.064 70.857,175.614 68.149,177.212 66.983 C 179.603 65.239,187.698 63.503,189.534 64.341 M308.256 71.257 C 302.641 72.679,302.483 80.508,308.031 82.441 C 314.624 84.739,319.933 76.848,314.761 72.438 C 313.273 71.169,310.552 70.675,308.256 71.257 M312.667 72.035 C 312.987 72.129,313.475 72.410,313.750 72.660 C 314.025 72.910,314.484 73.274,314.769 73.469 C 316.550 74.687,316.300 79.151,314.373 80.546 C 312.504 81.899,312.083 82.061,310.434 82.058 C 303.547 82.047,302.673 72.433,309.500 71.783 C 310.335 71.703,311.985 71.835,312.667 72.035 " stroke="none" fill="#7c7c7c" fill-rule="evenodd"></path></g></svg>