<svg id="svg" version="1.1" xmlns="http://www.w3.org/2000/svg" xmlns:xlink="http://www.w3.org/1999/xlink" width="400" height="80.93385214007782" viewBox="0, 0, 400,80.93385214007782"><g id="svgg"><path id="path0" d="M199.167 34.556 L 198.417 34.765 198.326 38.758 C 198.276 40.953,198.263 42.840,198.299 42.950 C 198.551 43.739,205.836 44.017,206.390 43.258 C 206.739 42.781,206.782 35.221,206.438 34.751 C 206.140 34.344,200.472 34.191,199.167 34.556 M216.208 34.601 L 215.500 34.861 215.470 38.514 C 215.454 40.523,215.435 42.335,215.429 42.542 C 215.392 43.679,222.658 44.282,223.468 43.209 C 223.960 42.558,223.797 34.918,223.286 34.634 C 222.684 34.299,217.101 34.274,216.208 34.601 M234.662 34.519 C 233.195 34.638,232.625 34.791,232.709 35.042 C 233.032 36.013,239.667 35.971,239.667 34.999 C 239.667 34.601,236.905 34.336,234.662 34.519 M311.881 34.502 C 310.136 34.599,309.681 34.831,310.279 35.320 C 311.181 36.058,316.947 35.798,316.799 35.026 C 316.713 34.582,314.561 34.353,311.881 34.502 M233.042 37.287 C 232.252 37.385,232.153 37.729,232.142 40.422 C 232.134 42.386,232.183 42.916,232.403 43.253 L 232.674 43.667 235.882 43.667 C 238.980 43.667,239.109 43.653,239.670 43.272 L 240.250 42.878 240.241 40.421 L 240.232 37.964 239.574 37.566 C 238.930 37.176,235.215 37.017,233.042 37.287 M310.122 37.499 L 309.667 37.858 309.667 40.400 C 309.667 43.869,309.422 43.667,313.626 43.667 C 317.618 43.667,317.333 43.917,317.333 40.405 C 317.333 37.054,317.581 37.267,313.605 37.196 C 310.717 37.144,310.556 37.158,310.122 37.499 M129.500 37.514 C 127.084 37.699,125.850 37.935,124.807 38.412 C 124.317 38.636,123.512 38.923,123.018 39.049 C 121.322 39.483,121.017 41.388,122.584 41.758 C 122.859 41.822,123.616 42.124,124.267 42.428 C 126.333 43.393,132.092 43.809,133.583 43.100 L 134.250 42.783 132.708 42.479 C 130.199 41.984,129.839 41.655,130.076 40.072 C 130.253 38.892,131.058 38.576,134.795 38.218 C 136.057 38.097,136.045 38.073,134.574 37.774 C 132.905 37.435,131.491 37.362,129.500 37.514 M144.250 37.511 C 143.792 37.585,142.967 37.740,142.417 37.856 L 141.417 38.067 143.000 38.280 C 143.871 38.397,145.221 38.578,146.000 38.683 C 148.583 39.030,152.772 38.535,151.818 37.996 C 151.183 37.637,145.665 37.283,144.250 37.511 M181.417 37.483 C 181.050 37.548,180.581 37.694,180.373 37.808 L 179.997 38.013 180.674 39.010 C 181.046 39.559,181.458 40.310,181.588 40.680 L 181.826 41.353 181.088 42.070 L 180.351 42.786 181.687 43.227 C 182.940 43.639,183.219 43.667,186.149 43.667 L 189.275 43.667 189.670 43.246 C 190.695 42.156,190.034 39.109,188.590 38.263 C 187.577 37.669,183.105 37.183,181.417 37.483 M248.333 37.549 C 247.919 37.758,247.916 37.775,247.871 40.342 C 247.809 43.840,247.514 43.569,251.463 43.640 C 255.598 43.715,256.430 43.398,256.018 41.904 C 255.847 41.287,255.968 40.641,256.538 39.119 C 256.784 38.463,257.114 38.339,258.916 38.220 C 260.970 38.086,260.861 38.031,258.326 37.928 C 257.184 37.881,255.875 37.729,255.417 37.590 C 254.329 37.260,248.966 37.229,248.333 37.549 M268.203 37.644 C 266.984 38.007,266.749 38.167,267.431 38.167 C 268.119 38.167,270.452 38.629,270.858 38.847 C 271.496 39.188,272.057 40.741,271.941 41.848 C 271.767 43.517,272.116 43.667,276.184 43.667 C 280.101 43.667,279.893 43.804,279.916 41.196 C 279.934 39.257,279.888 39.165,278.471 38.301 C 277.054 37.436,270.339 37.007,268.203 37.644 M331.681 37.516 C 329.514 37.674,328.104 37.929,327.500 38.274 C 327.271 38.405,326.446 38.716,325.667 38.965 L 324.250 39.418 324.094 40.225 C 323.891 41.275,324.050 41.504,325.221 41.852 C 325.739 42.005,326.416 42.281,326.726 42.464 C 328.327 43.409,334.743 43.828,336.167 43.081 L 336.750 42.775 334.973 42.427 C 332.782 41.997,332.500 41.787,332.500 40.580 C 332.500 38.999,332.803 38.810,336.083 38.341 L 338.083 38.055 336.833 37.787 C 335.110 37.418,333.902 37.354,331.681 37.516 M347.333 37.446 C 347.104 37.481,346.354 37.632,345.667 37.780 L 344.417 38.051 346.476 38.352 C 349.777 38.834,350.167 39.064,350.167 40.531 C 350.167 41.793,349.951 41.919,346.685 42.562 L 345.619 42.772 346.518 43.159 C 348.060 43.823,353.777 43.379,355.728 42.443 C 356.199 42.218,356.940 41.877,357.375 41.686 L 358.167 41.338 358.167 40.434 C 358.167 39.529,357.451 38.833,356.520 38.833 C 356.406 38.833,355.917 38.646,355.434 38.418 C 354.340 37.900,353.251 37.689,351.097 37.577 C 350.173 37.529,349.042 37.466,348.583 37.436 C 348.125 37.407,347.563 37.411,347.333 37.446 M165.333 37.683 C 164.554 37.769,163.579 37.899,163.167 37.972 L 162.417 38.104 163.500 38.310 C 165.657 38.721,169.004 38.758,169.743 38.379 L 170.395 38.045 169.989 37.824 C 169.478 37.547,167.189 37.477,165.333 37.683 M163.208 40.683 C 160.620 40.914,159.647 41.346,159.406 42.372 C 159.263 42.980,159.702 43.142,161.995 43.330 C 168.290 43.847,168.522 43.799,168.342 41.999 C 168.192 40.504,167.424 40.308,163.208 40.683 M144.333 42.487 L 143.083 42.788 143.833 43.140 C 144.374 43.395,144.908 43.492,145.750 43.491 C 147.637 43.490,151.115 43.196,151.848 42.976 L 152.526 42.773 152.055 42.511 C 151.314 42.100,146.008 42.084,144.333 42.487 M291.167 42.434 C 289.689 42.704,289.706 42.844,291.275 43.329 C 293.696 44.077,299.522 43.421,298.125 42.557 C 297.908 42.423,291.818 42.315,291.167 42.434 " stroke="none" fill="#152237" fill-rule="evenodd"></path><path id="path1" d="M0.000 40.417 L 0.000 80.833 200.000 80.833 L 400.000 80.833 400.000 40.417 L 400.000 0.000 200.000 0.000 L 0.000 0.000 0.000 40.417 M239.167 33.456 C 241.303 33.865,241.950 34.677,241.165 35.964 L 240.832 36.511 241.191 36.997 C 241.526 37.451,241.550 37.674,241.550 40.391 C 241.550 45.144,241.412 45.266,236.083 45.196 C 232.008 45.142,232.130 45.165,231.633 44.366 C 231.110 43.525,230.955 38.435,231.416 37.228 C 231.677 36.545,231.676 36.453,231.406 35.745 C 230.931 34.502,231.540 33.740,233.229 33.460 C 233.699 33.383,234.421 33.254,234.833 33.174 C 235.754 32.997,237.294 33.097,239.167 33.456 M315.636 33.354 C 315.848 33.434,316.208 33.500,316.436 33.500 C 317.026 33.500,317.750 33.915,318.157 34.486 L 318.507 34.977 318.144 35.723 L 317.782 36.469 318.152 37.256 C 318.995 39.050,318.461 44.263,317.364 44.944 C 316.729 45.337,310.094 45.302,309.559 44.902 C 307.766 43.564,307.205 37.913,308.765 36.892 L 309.182 36.618 308.778 36.184 C 307.269 34.564,308.271 33.717,312.417 33.111 C 313.080 33.014,315.150 33.170,315.636 33.354 M206.724 33.685 C 207.442 34.012,207.500 34.419,207.496 39.050 C 207.491 45.489,207.734 45.188,202.523 45.207 C 197.054 45.228,197.250 45.460,197.250 38.976 C 197.250 34.151,197.267 34.060,198.250 33.658 C 198.773 33.444,206.247 33.468,206.724 33.685 M223.747 33.666 C 224.601 33.990,224.697 34.601,224.637 39.316 C 224.560 45.431,224.752 45.198,219.791 45.210 C 214.220 45.223,214.417 45.448,214.417 39.059 C 214.417 34.143,214.432 34.061,215.417 33.658 C 215.898 33.460,223.226 33.468,223.747 33.666 M72.997 34.688 C 74.105 35.364,74.668 36.369,74.220 36.871 C 73.554 37.620,73.154 37.666,67.380 37.671 C 57.827 37.680,53.300 38.144,51.468 39.304 L 50.998 39.602 51.457 40.039 C 52.840 41.353,55.156 41.629,65.792 41.746 C 74.322 41.840,74.548 41.887,74.187 43.493 C 73.798 45.225,73.728 45.238,65.009 45.099 C 57.976 44.987,54.741 44.825,53.152 44.503 C 52.732 44.418,50.594 44.154,48.402 43.916 C 44.235 43.464,43.467 43.328,42.916 42.940 C 42.732 42.811,42.042 42.544,41.381 42.348 C 37.398 41.161,37.804 38.025,42.083 36.919 C 42.725 36.754,43.512 36.489,43.833 36.330 C 44.654 35.926,46.050 35.725,50.167 35.419 C 52.137 35.273,54.950 35.033,56.417 34.887 C 57.975 34.731,61.750 34.573,65.500 34.506 C 69.029 34.444,72.029 34.379,72.167 34.363 C 72.304 34.348,72.678 34.494,72.997 34.688 M91.833 34.661 C 92.888 34.744,95.138 34.931,96.833 35.075 C 98.529 35.218,101.247 35.448,102.873 35.585 C 104.590 35.729,106.126 35.946,106.539 36.102 C 107.699 36.541,109.037 36.980,109.771 37.163 C 113.134 38.003,113.174 41.338,109.833 42.333 C 109.199 42.522,108.639 42.744,108.588 42.826 C 108.366 43.186,106.651 43.525,103.083 43.916 C 100.975 44.146,98.537 44.449,97.667 44.587 C 94.321 45.120,79.016 45.387,77.925 44.931 C 76.950 44.523,76.521 43.017,77.200 42.381 C 77.892 41.733,78.277 41.702,85.674 41.678 C 95.940 41.646,97.893 41.420,99.580 40.073 C 100.347 39.461,100.042 39.284,96.833 38.479 C 94.466 37.885,93.857 37.844,85.833 37.732 C 77.727 37.618,77.617 37.608,76.940 36.860 C 76.556 36.434,77.071 35.329,77.921 34.756 C 78.479 34.380,87.518 34.318,91.833 34.661 M142.949 35.666 C 144.106 35.756,145.399 35.964,145.949 36.148 C 147.203 36.568,147.633 36.635,150.347 36.827 C 154.021 37.087,154.418 37.362,154.248 39.523 C 154.173 40.469,154.206 41.280,154.342 41.892 C 154.679 43.398,154.162 43.741,151.138 44.015 C 149.936 44.124,148.563 44.365,147.829 44.596 C 144.281 45.713,132.196 45.670,129.000 44.528 C 128.496 44.348,127.156 44.113,126.022 44.005 C 123.682 43.784,123.337 43.686,122.893 43.121 C 122.718 42.899,122.305 42.628,121.974 42.519 C 120.078 41.893,120.209 38.861,122.155 38.336 C 122.525 38.237,122.903 38.014,122.995 37.842 C 123.281 37.309,124.472 37.016,127.417 36.755 C 129.321 36.586,130.578 36.389,131.250 36.153 C 132.893 35.575,138.683 35.334,142.949 35.666 M180.671 35.675 C 181.448 35.771,182.833 36.030,183.750 36.251 C 184.667 36.472,186.235 36.736,187.236 36.837 C 189.266 37.041,189.876 37.276,190.249 37.998 C 190.389 38.269,190.659 38.573,190.849 38.675 C 192.088 39.338,191.994 43.050,190.704 44.377 C 189.870 45.235,189.562 45.285,185.719 45.177 L 182.354 45.083 181.876 44.625 C 181.281 44.054,181.300 44.054,179.721 44.702 L 178.417 45.238 173.250 45.303 C 167.485 45.375,164.454 45.178,163.099 44.645 C 162.632 44.461,161.512 44.210,160.609 44.086 C 158.248 43.763,157.807 43.219,158.343 41.290 C 158.575 40.453,159.008 40.207,160.857 39.859 C 162.360 39.576,162.392 39.561,161.724 39.450 C 161.024 39.333,160.167 38.580,160.167 38.083 C 160.167 37.412,161.497 36.992,164.417 36.738 C 165.150 36.675,166.176 36.488,166.696 36.322 C 167.541 36.054,169.176 35.773,170.833 35.610 C 172.266 35.470,179.395 35.517,180.671 35.675 M271.978 35.837 C 272.746 35.935,273.683 36.126,274.062 36.262 C 274.440 36.397,275.623 36.615,276.690 36.744 C 280.350 37.189,280.750 37.641,280.750 41.321 C 280.750 45.186,280.829 45.120,276.079 45.190 C 271.022 45.265,270.508 44.923,270.503 41.479 C 270.499 39.056,271.063 39.260,264.355 39.255 C 256.774 39.248,257.369 39.025,257.183 41.942 C 256.981 45.128,256.779 45.244,251.536 45.199 C 246.978 45.161,247.010 45.194,247.004 40.450 C 246.998 35.891,247.012 35.876,251.333 35.829 C 255.086 35.788,254.703 35.745,255.330 36.273 C 256.180 36.988,257.658 37.009,259.667 36.335 C 262.080 35.525,267.743 35.296,271.978 35.837 M346.000 35.669 C 347.054 35.760,348.404 35.977,349.000 36.152 C 350.486 36.587,350.757 36.630,353.398 36.841 C 355.904 37.041,356.364 37.155,357.000 37.733 C 357.229 37.941,357.762 38.239,358.183 38.393 C 360.205 39.136,360.375 41.465,358.471 42.339 C 357.983 42.563,357.523 42.841,357.449 42.958 C 357.111 43.492,356.017 43.817,353.913 44.007 C 352.614 44.124,351.309 44.352,350.591 44.586 C 347.220 45.686,334.931 45.682,331.552 44.578 C 330.836 44.345,329.523 44.109,328.310 43.998 C 326.251 43.808,325.533 43.589,325.135 43.026 C 325.015 42.857,324.644 42.628,324.312 42.519 C 322.558 41.944,322.575 39.001,324.335 38.416 C 324.766 38.273,325.293 37.970,325.507 37.743 C 326.015 37.202,326.664 37.042,329.172 36.837 C 331.737 36.627,332.123 36.565,333.583 36.136 C 335.554 35.555,341.923 35.316,346.000 35.669 M133.458 39.320 C 131.203 39.465,131.309 39.410,131.207 40.471 C 131.142 41.151,131.180 41.304,131.440 41.410 C 132.505 41.846,146.262 41.638,146.721 41.179 C 147.074 40.826,145.952 39.591,145.161 39.463 C 144.029 39.279,135.675 39.177,133.458 39.320 M335.696 39.325 C 333.737 39.477,333.734 39.480,333.582 40.518 C 333.429 41.564,333.212 41.525,339.667 41.618 C 345.085 41.696,348.181 41.553,348.527 41.207 C 348.832 40.901,348.513 39.543,348.108 39.428 C 347.527 39.261,337.570 39.179,335.696 39.325 M298.714 41.729 C 299.009 41.854,299.420 42.142,299.628 42.367 L 300.005 42.777 299.524 43.680 C 298.711 45.206,298.561 45.250,294.137 45.250 C 289.767 45.250,289.749 45.244,288.973 43.664 L 288.529 42.761 288.858 42.299 C 289.038 42.045,289.426 41.769,289.718 41.684 C 290.618 41.424,298.085 41.461,298.714 41.729 " stroke="none" fill="#fbfbfb" fill-rule="evenodd"></path><path id="path2" d="M64.333 35.345 C 53.331 35.525,47.477 35.942,44.917 36.729 C 44.183 36.954,43.007 37.261,42.302 37.412 C 38.927 38.131,38.130 40.584,40.936 41.618 C 41.442 41.805,45.013 42.916,45.583 43.064 C 45.954 43.161,51.304 43.670,56.417 44.095 C 60.466 44.432,72.278 44.667,72.714 44.419 C 72.878 44.326,73.112 43.913,73.233 43.500 C 73.620 42.189,73.741 42.211,65.943 42.183 C 54.327 42.141,52.405 41.910,50.792 40.364 C 50.029 39.634,50.029 39.622,50.736 39.082 C 52.628 37.640,54.937 37.344,65.138 37.238 C 74.233 37.143,74.382 37.115,73.105 35.762 C 72.734 35.368,72.410 35.176,72.147 35.195 C 71.929 35.211,68.412 35.278,64.333 35.345 " stroke="none" fill="#33ee74" fill-rule="evenodd"></path><path id="path3" d="M234.833 33.174 C 234.421 33.254,233.699 33.383,233.229 33.460 C 231.540 33.740,230.931 34.502,231.406 35.745 C 231.676 36.453,231.677 36.545,231.416 37.228 C 230.955 38.435,231.110 43.525,231.633 44.366 C 232.130 45.165,232.008 45.142,236.083 45.196 C 241.412 45.266,241.550 45.144,241.550 40.391 C 241.550 37.674,241.526 37.451,241.191 36.997 L 240.832 36.511 241.165 35.964 C 241.950 34.677,241.303 33.865,239.167 33.456 C 237.294 33.097,235.754 32.997,234.833 33.174 M312.417 33.111 C 308.271 33.717,307.269 34.564,308.778 36.184 L 309.182 36.618 308.765 36.892 C 307.205 37.913,307.766 43.564,309.559 44.902 C 310.094 45.302,316.729 45.337,317.364 44.944 C 318.461 44.263,318.995 39.050,318.152 37.256 L 317.782 36.469 318.144 35.723 L 318.507 34.977 318.157 34.486 C 317.750 33.915,317.026 33.500,316.436 33.500 C 316.208 33.500,315.848 33.434,315.636 33.354 C 315.150 33.170,313.080 33.014,312.417 33.111 M198.250 33.658 C 197.267 34.060,197.250 34.151,197.250 38.976 C 197.250 45.460,197.054 45.228,202.523 45.207 C 207.734 45.188,207.491 45.489,207.496 39.050 C 207.500 34.419,207.442 34.012,206.724 33.685 C 206.247 33.468,198.773 33.444,198.250 33.658 M215.417 33.658 C 214.432 34.061,214.417 34.143,214.417 39.059 C 214.417 45.448,214.220 45.223,219.791 45.210 C 224.752 45.198,224.560 45.431,224.637 39.316 C 224.697 34.601,224.601 33.990,223.747 33.666 C 223.226 33.468,215.898 33.460,215.417 33.658 M206.381 34.076 C 207.081 34.385,207.171 34.954,207.160 39.019 C 207.145 44.583,207.329 44.342,203.000 44.458 C 197.667 44.602,197.667 44.602,197.667 38.985 C 197.667 33.588,197.426 33.822,202.917 33.899 C 204.658 33.924,206.217 34.003,206.381 34.076 M223.769 34.390 C 224.165 34.850,224.167 34.871,224.166 38.968 C 224.165 44.635,224.284 44.497,219.417 44.475 C 214.855 44.455,214.835 44.431,214.834 38.981 C 214.833 33.614,214.616 33.822,220.144 33.889 L 223.372 33.928 223.769 34.390 M239.853 34.279 C 241.077 34.834,241.051 35.394,239.771 36.084 C 239.011 36.493,239.016 36.548,239.845 36.922 C 240.941 37.416,241.000 37.592,241.000 40.363 C 241.000 44.324,240.778 44.500,235.860 44.450 L 232.674 44.417 232.212 43.955 L 231.750 43.493 231.698 40.605 L 231.646 37.717 232.088 37.192 C 232.401 36.820,232.674 36.667,233.025 36.667 C 233.312 36.667,233.477 36.597,233.417 36.500 C 233.360 36.408,233.172 36.333,232.999 36.333 C 232.694 36.333,231.833 35.389,231.833 35.055 C 231.833 33.907,237.768 33.333,239.853 34.279 M316.779 34.137 C 317.846 34.710,317.898 35.165,316.993 36.026 C 316.450 36.543,316.382 36.667,316.645 36.667 C 316.979 36.667,317.829 37.537,317.838 37.888 C 318.013 44.581,318.059 44.510,313.542 44.480 C 309.041 44.451,308.961 44.381,308.931 40.423 L 308.912 37.917 309.622 37.187 L 310.332 36.457 309.583 35.798 C 308.677 35.001,308.673 34.960,309.444 34.483 C 310.488 33.838,315.760 33.589,316.779 34.137 M65.500 34.506 C 61.750 34.573,57.975 34.731,56.417 34.887 C 54.950 35.033,52.137 35.273,50.167 35.419 C 46.050 35.725,44.654 35.926,43.833 36.330 C 43.512 36.489,42.725 36.754,42.083 36.919 C 37.804 38.025,37.398 41.161,41.381 42.348 C 42.042 42.544,42.732 42.811,42.916 42.940 C 43.467 43.328,44.235 43.464,48.402 43.916 C 50.594 44.154,52.732 44.418,53.152 44.503 C 54.741 44.825,57.976 44.987,65.009 45.099 C 73.728 45.238,73.798 45.225,74.187 43.493 C 74.548 41.887,74.322 41.840,65.792 41.746 C 55.156 41.629,52.840 41.353,51.457 40.039 L 50.998 39.602 51.468 39.304 C 53.300 38.144,57.827 37.680,67.380 37.671 C 73.154 37.666,73.554 37.620,74.220 36.871 C 74.792 36.230,73.169 34.248,72.167 34.363 C 72.029 34.379,69.029 34.444,65.500 34.506 M77.921 34.756 C 77.071 35.329,76.556 36.434,76.940 36.860 C 77.617 37.608,77.727 37.618,85.833 37.732 C 93.857 37.844,94.466 37.885,96.833 38.479 C 100.042 39.284,100.347 39.461,99.580 40.073 C 97.893 41.420,95.940 41.646,85.674 41.678 C 78.277 41.702,77.892 41.733,77.200 42.381 C 76.521 43.017,76.950 44.523,77.925 44.931 C 79.016 45.387,94.321 45.120,97.667 44.587 C 98.537 44.449,100.975 44.146,103.083 43.916 C 106.651 43.525,108.366 43.186,108.588 42.826 C 108.639 42.744,109.199 42.522,109.833 42.333 C 113.174 41.338,113.134 38.003,109.771 37.163 C 109.037 36.980,107.699 36.541,106.539 36.102 C 106.126 35.946,104.590 35.729,102.873 35.585 C 101.247 35.448,98.529 35.218,96.833 35.075 C 95.138 34.931,92.888 34.744,91.833 34.661 C 87.518 34.318,78.479 34.380,77.921 34.756 M73.105 35.762 C 74.382 37.115,74.233 37.143,65.138 37.238 C 54.937 37.344,52.628 37.640,50.736 39.082 C 50.029 39.622,50.029 39.634,50.792 40.364 C 52.405 41.910,54.327 42.141,65.943 42.183 C 73.741 42.211,73.620 42.189,73.233 43.500 C 73.112 43.913,72.878 44.326,72.714 44.419 C 72.278 44.667,60.466 44.432,56.417 44.095 C 51.304 43.670,45.954 43.161,45.583 43.064 C 45.013 42.916,41.442 41.805,40.936 41.618 C 39.825 41.209,38.838 39.948,39.159 39.348 C 39.579 38.563,40.995 37.690,42.302 37.412 C 43.007 37.261,44.183 36.954,44.917 36.729 C 47.477 35.942,53.331 35.525,64.333 35.345 C 68.412 35.278,71.929 35.211,72.147 35.195 C 72.410 35.176,72.734 35.368,73.105 35.762 M134.000 35.675 C 132.950 35.750,131.850 35.941,131.250 36.153 C 130.578 36.389,129.321 36.586,127.417 36.755 C 124.472 37.016,123.281 37.309,122.995 37.842 C 122.903 38.014,122.525 38.237,122.155 38.336 C 120.209 38.861,120.078 41.893,121.974 42.519 C 122.305 42.628,122.718 42.899,122.893 43.121 C 123.337 43.686,123.682 43.784,126.022 44.005 C 127.156 44.113,128.496 44.348,129.000 44.528 C 132.196 45.670,144.281 45.713,147.829 44.596 C 148.563 44.365,149.936 44.124,151.138 44.015 C 154.162 43.741,154.679 43.398,154.342 41.892 C 154.206 41.280,154.173 40.469,154.248 39.523 C 154.418 37.362,154.021 37.087,150.347 36.827 C 147.633 36.635,147.203 36.568,145.949 36.148 C 144.229 35.571,138.549 35.346,134.000 35.675 M170.833 35.610 C 169.176 35.773,167.541 36.054,166.696 36.322 C 166.176 36.488,165.150 36.675,164.417 36.738 C 161.497 36.992,160.167 37.412,160.167 38.083 C 160.167 38.580,161.024 39.333,161.724 39.450 C 162.392 39.561,162.360 39.576,160.857 39.859 C 159.008 40.207,158.575 40.453,158.343 41.290 C 157.807 43.219,158.248 43.763,160.609 44.086 C 161.512 44.210,162.632 44.461,163.099 44.645 C 164.454 45.178,167.485 45.375,173.250 45.303 L 178.417 45.238 179.721 44.702 C 181.300 44.054,181.281 44.054,181.876 44.625 L 182.354 45.083 185.719 45.177 C 189.562 45.285,189.870 45.235,190.704 44.377 C 191.994 43.050,192.088 39.338,190.849 38.675 C 190.659 38.573,190.389 38.269,190.249 37.998 C 189.876 37.276,189.266 37.041,187.236 36.837 C 186.235 36.736,184.667 36.472,183.750 36.251 C 180.951 35.576,174.470 35.255,170.833 35.610 M263.000 35.664 C 261.767 35.762,260.782 35.961,259.667 36.335 C 257.658 37.009,256.180 36.988,255.330 36.273 C 254.703 35.745,255.086 35.788,251.333 35.829 C 247.012 35.876,246.998 35.891,247.004 40.450 C 247.010 45.194,246.978 45.161,251.536 45.199 C 256.779 45.244,256.981 45.128,257.183 41.942 C 257.369 39.025,256.774 39.248,264.355 39.255 C 271.063 39.260,270.499 39.056,270.503 41.479 C 270.508 44.923,271.022 45.265,276.079 45.190 C 280.829 45.120,280.750 45.186,280.750 41.321 C 280.750 37.641,280.350 37.189,276.690 36.744 C 275.623 36.615,274.440 36.397,274.062 36.262 C 272.499 35.702,266.541 35.380,263.000 35.664 M336.333 35.670 C 335.462 35.737,334.225 35.947,333.583 36.136 C 332.123 36.565,331.737 36.627,329.172 36.837 C 326.664 37.042,326.015 37.202,325.507 37.743 C 325.293 37.970,324.766 38.273,324.335 38.416 C 322.575 39.001,322.558 41.944,324.312 42.519 C 324.644 42.628,325.015 42.857,325.135 43.026 C 325.533 43.589,326.251 43.808,328.310 43.998 C 329.523 44.109,330.836 44.345,331.552 44.578 C 334.931 45.682,347.220 45.686,350.591 44.586 C 351.309 44.352,352.614 44.124,353.913 44.007 C 356.017 43.817,357.111 43.492,357.449 42.958 C 357.523 42.841,357.983 42.563,358.471 42.339 C 360.375 41.465,360.205 39.136,358.183 38.393 C 357.762 38.239,357.229 37.941,357.000 37.733 C 356.364 37.155,355.904 37.041,353.398 36.841 C 350.757 36.630,350.486 36.587,349.000 36.152 C 346.982 35.560,340.809 35.326,336.333 35.670 M94.608 36.375 C 100.338 36.413,100.996 36.445,101.280 36.702 C 102.002 37.356,103.087 37.567,107.544 37.925 C 108.556 38.006,108.872 38.095,109.000 38.333 C 109.244 38.790,110.223 39.333,110.802 39.333 C 111.678 39.333,111.647 39.789,110.750 40.087 C 110.440 40.190,110.164 40.448,110.023 40.766 L 109.796 41.279 107.690 41.471 C 105.173 41.699,104.429 41.890,103.872 42.446 L 103.453 42.865 98.185 42.943 C 95.287 42.986,91.829 42.952,90.500 42.868 L 88.083 42.716 91.000 42.690 C 99.929 42.610,101.677 42.124,101.661 39.724 C 101.655 38.771,101.400 38.372,100.709 38.234 C 100.398 38.171,100.134 37.978,100.021 37.730 C 99.631 36.873,97.047 36.685,85.458 36.674 C 79.173 36.668,78.109 36.614,78.403 36.319 C 78.441 36.281,80.672 36.269,83.361 36.291 C 86.050 36.314,91.111 36.351,94.608 36.375 M180.401 36.497 C 180.798 36.585,182.389 36.773,183.936 36.914 C 188.921 37.368,189.212 37.468,190.351 39.113 C 190.802 39.765,190.833 39.915,190.833 41.434 L 190.833 43.057 190.083 43.776 L 189.333 44.494 186.125 44.442 C 183.247 44.395,182.837 44.352,182.142 44.028 C 181.057 43.521,179.154 43.490,178.507 43.969 C 177.392 44.793,171.054 45.111,167.333 44.530 C 166.096 44.336,164.033 44.062,162.750 43.919 C 158.902 43.493,158.565 43.347,158.760 42.197 C 159.044 40.522,160.056 40.228,166.671 39.900 C 168.792 39.795,168.969 39.811,169.653 40.159 C 170.301 40.490,170.881 40.672,172.583 41.078 L 173.083 41.197 172.472 41.512 C 172.135 41.686,171.702 42.049,171.510 42.320 L 171.159 42.812 171.895 42.922 C 173.634 43.183,175.863 42.951,176.634 42.429 C 177.237 42.021,177.562 41.932,178.669 41.868 C 180.387 41.768,180.723 41.483,180.172 40.591 C 179.906 40.162,179.689 40.000,179.377 40.000 C 179.141 40.000,178.121 39.764,177.110 39.476 C 175.097 38.903,171.988 38.862,169.860 39.380 C 169.246 39.529,168.576 39.557,167.694 39.469 C 166.991 39.399,165.559 39.259,164.511 39.158 C 159.834 38.710,160.252 37.689,165.333 37.151 C 166.938 36.981,169.075 36.725,170.083 36.581 C 173.050 36.160,178.693 36.114,180.401 36.497 M142.917 36.504 C 143.467 36.598,145.641 36.823,147.749 37.005 C 151.724 37.349,151.903 37.377,152.779 37.781 C 153.391 38.064,153.318 38.711,152.622 39.168 C 151.939 39.615,148.057 39.602,145.634 39.143 C 143.763 38.789,143.145 38.756,138.583 38.765 C 131.447 38.780,130.667 38.953,130.667 40.522 C 130.667 41.611,130.930 41.751,133.583 42.065 C 138.172 42.609,140.190 42.580,144.876 41.900 C 149.051 41.295,153.667 41.717,153.667 42.705 C 153.667 43.095,152.107 43.500,149.656 43.748 C 148.241 43.891,146.258 44.171,145.250 44.369 C 142.471 44.917,134.628 44.921,131.833 44.377 C 130.779 44.172,128.753 43.866,127.332 43.699 C 124.606 43.377,121.783 42.340,121.331 41.495 C 120.810 40.522,121.510 38.667,122.397 38.667 C 122.539 38.667,123.201 38.409,123.869 38.094 C 125.200 37.466,125.936 37.336,130.583 36.910 C 132.142 36.768,133.829 36.589,134.333 36.513 C 135.666 36.312,141.746 36.306,142.917 36.504 M270.917 36.586 C 278.301 37.332,278.419 37.356,279.582 38.376 L 280.247 38.959 280.357 40.855 C 280.554 44.254,280.398 44.386,276.117 44.441 C 271.595 44.500,271.158 44.234,271.092 41.382 C 271.035 38.927,270.900 38.863,265.497 38.718 C 257.177 38.495,256.571 38.718,256.652 41.978 C 256.707 44.154,255.988 44.499,251.523 44.441 C 247.313 44.386,247.333 44.406,247.334 40.391 C 247.335 36.613,247.271 36.667,251.776 36.667 C 254.122 36.667,254.658 36.717,255.547 37.019 C 256.736 37.423,258.816 37.377,261.472 36.888 C 262.266 36.742,263.217 36.567,263.583 36.499 C 264.751 36.282,268.334 36.324,270.917 36.586 M345.744 36.498 C 346.291 36.588,348.053 36.777,349.661 36.919 C 355.032 37.393,356.593 37.799,358.542 39.227 C 359.111 39.644,359.217 41.097,358.708 41.531 C 357.353 42.687,355.537 43.334,352.705 43.669 C 351.171 43.850,349.017 44.168,347.917 44.374 C 345.207 44.883,336.718 44.933,334.667 44.452 C 333.979 44.291,331.977 43.980,330.217 43.761 C 325.522 43.177,323.500 42.185,323.500 40.465 C 323.500 39.506,323.823 39.091,324.876 38.694 C 325.357 38.513,326.125 38.173,326.583 37.939 C 327.496 37.473,328.451 37.318,332.917 36.913 C 334.475 36.772,336.125 36.592,336.583 36.514 C 337.758 36.314,344.549 36.302,345.744 36.498 M335.848 38.861 C 333.639 39.070,333.237 39.291,333.093 40.376 C 332.911 41.751,333.002 41.782,338.833 42.348 C 341.559 42.613,347.347 42.159,348.835 41.563 C 349.880 41.145,349.854 39.803,348.792 39.338 C 347.389 38.724,340.117 38.456,335.848 38.861 M145.161 39.463 C 145.952 39.591,147.074 40.826,146.721 41.179 C 146.262 41.638,132.505 41.846,131.440 41.410 C 131.132 41.284,131.095 39.849,131.392 39.553 C 131.732 39.213,143.157 39.138,145.161 39.463 M348.108 39.428 C 348.513 39.543,348.832 40.901,348.527 41.207 C 348.082 41.652,334.813 41.836,333.776 41.412 C 333.456 41.281,333.499 39.953,333.834 39.604 C 334.190 39.235,346.886 39.078,348.108 39.428 M289.718 41.684 C 289.426 41.769,289.038 42.045,288.858 42.299 L 288.529 42.761 288.973 43.664 C 289.749 45.244,289.767 45.250,294.137 45.250 C 298.561 45.250,298.711 45.206,299.524 43.680 L 300.005 42.777 299.628 42.367 C 298.888 41.564,298.472 41.499,294.214 41.515 C 292.034 41.523,290.011 41.599,289.718 41.684 M297.350 41.978 C 297.863 42.043,298.486 42.228,298.734 42.391 L 299.186 42.687 298.884 43.201 C 297.779 45.088,290.913 45.287,289.709 43.467 L 289.277 42.815 289.639 42.454 C 290.182 41.911,294.623 41.637,297.350 41.978 M79.333 42.833 C 79.006 43.045,78.500 43.045,78.500 42.833 C 78.500 42.742,78.744 42.668,79.042 42.669 C 79.453 42.671,79.523 42.711,79.333 42.833 " stroke="none" fill="#9cafaf" fill-rule="evenodd"></path><path id="path4" d="M199.093 33.990 C 197.722 34.271,197.667 34.465,197.667 38.985 C 197.667 44.602,197.667 44.602,203.000 44.458 C 207.329 44.342,207.145 44.583,207.160 39.019 C 207.171 34.954,207.081 34.385,206.381 34.076 C 205.971 33.894,199.904 33.823,199.093 33.990 M216.214 34.017 C 214.873 34.336,214.833 34.479,214.834 38.981 C 214.835 44.431,214.855 44.455,219.417 44.475 C 224.284 44.497,224.165 44.635,224.166 38.968 C 224.167 34.871,224.165 34.850,223.769 34.390 L 223.372 33.928 220.144 33.889 C 218.369 33.867,216.600 33.925,216.214 34.017 M233.349 34.006 C 232.643 34.152,231.833 34.713,231.833 35.055 C 231.833 35.389,232.694 36.333,232.999 36.333 C 233.172 36.333,233.360 36.408,233.417 36.500 C 233.477 36.597,233.312 36.667,233.025 36.667 C 232.674 36.667,232.401 36.820,232.088 37.192 L 231.646 37.717 231.698 40.605 L 231.750 43.493 232.212 43.955 L 232.674 44.417 235.860 44.450 C 240.778 44.500,241.000 44.324,241.000 40.363 C 241.000 37.592,240.941 37.416,239.845 36.922 C 239.016 36.548,239.011 36.493,239.771 36.084 C 241.970 34.900,240.594 33.953,236.583 33.891 C 235.208 33.870,233.753 33.922,233.349 34.006 M310.653 33.978 C 310.006 34.116,308.833 34.774,308.833 34.999 C 308.833 35.076,309.171 35.435,309.583 35.798 L 310.332 36.457 309.622 37.187 L 308.912 37.917 308.931 40.423 C 308.961 44.381,309.041 44.451,313.542 44.480 C 318.059 44.510,318.013 44.581,317.838 37.888 C 317.829 37.537,316.979 36.667,316.645 36.667 C 316.382 36.667,316.450 36.543,316.993 36.026 C 317.898 35.165,317.846 34.710,316.779 34.137 C 316.355 33.909,311.560 33.785,310.653 33.978 M206.438 34.751 C 206.782 35.221,206.739 42.781,206.390 43.258 C 205.836 44.017,198.551 43.739,198.299 42.950 C 198.263 42.840,198.276 40.953,198.326 38.758 L 198.417 34.765 199.167 34.556 C 200.472 34.191,206.140 34.344,206.438 34.751 M223.286 34.634 C 223.797 34.918,223.960 42.558,223.468 43.209 C 222.658 44.282,215.392 43.679,215.429 42.542 C 215.435 42.335,215.454 40.523,215.470 38.514 L 215.500 34.861 216.208 34.601 C 217.101 34.274,222.684 34.299,223.286 34.634 M239.375 34.736 C 241.032 35.493,235.371 36.189,233.426 35.467 C 232.146 34.992,232.536 34.692,234.662 34.519 C 236.083 34.403,238.935 34.534,239.375 34.736 M316.082 34.649 C 316.899 34.784,317.077 35.234,316.383 35.414 C 313.700 36.110,309.272 35.679,310.131 34.806 C 310.498 34.433,314.188 34.336,316.082 34.649 M78.403 36.319 C 78.109 36.614,79.173 36.668,85.458 36.674 C 97.047 36.685,99.631 36.873,100.021 37.730 C 100.134 37.978,100.398 38.171,100.709 38.234 C 101.400 38.372,101.655 38.771,101.661 39.724 C 101.677 42.124,99.929 42.610,91.000 42.690 L 88.083 42.716 90.500 42.868 C 91.829 42.952,95.287 42.986,98.185 42.943 L 103.453 42.865 103.872 42.446 C 104.429 41.890,105.173 41.699,107.690 41.471 L 109.796 41.279 110.023 40.766 C 110.164 40.448,110.440 40.190,110.750 40.087 C 111.647 39.789,111.678 39.333,110.802 39.333 C 110.223 39.333,109.244 38.790,109.000 38.333 C 108.872 38.095,108.556 38.006,107.544 37.925 C 103.087 37.567,102.002 37.356,101.280 36.702 C 100.996 36.445,100.338 36.413,94.608 36.375 C 91.111 36.351,86.050 36.314,83.361 36.291 C 80.672 36.269,78.441 36.281,78.403 36.319 M172.917 36.263 C 172.367 36.295,171.092 36.438,170.083 36.581 C 169.075 36.725,166.938 36.981,165.333 37.151 C 160.252 37.689,159.834 38.710,164.511 39.158 C 165.559 39.259,166.991 39.399,167.694 39.469 C 168.576 39.557,169.246 39.529,169.860 39.380 C 171.988 38.862,175.097 38.903,177.110 39.476 C 178.121 39.764,179.141 40.000,179.377 40.000 C 179.689 40.000,179.906 40.162,180.172 40.591 C 180.723 41.483,180.387 41.768,178.669 41.868 C 177.562 41.932,177.237 42.021,176.634 42.429 C 175.863 42.951,173.634 43.183,171.895 42.922 L 171.159 42.812 171.510 42.320 C 171.702 42.049,172.135 41.686,172.472 41.512 L 173.083 41.197 172.583 41.078 C 170.881 40.672,170.301 40.490,169.653 40.159 C 168.969 39.811,168.792 39.795,166.671 39.900 C 160.056 40.228,159.044 40.522,158.760 42.197 C 158.565 43.347,158.902 43.493,162.750 43.919 C 164.033 44.062,166.096 44.336,167.333 44.530 C 171.054 45.111,177.392 44.793,178.507 43.969 C 179.154 43.490,181.057 43.521,182.142 44.028 C 182.837 44.352,183.247 44.395,186.125 44.442 L 189.333 44.494 190.083 43.776 L 190.833 43.057 190.833 41.434 C 190.833 39.915,190.802 39.765,190.351 39.113 C 189.212 37.468,188.921 37.368,183.936 36.914 C 182.389 36.773,180.798 36.585,180.401 36.497 C 179.631 36.324,174.582 36.167,172.917 36.263 M134.333 36.513 C 133.829 36.589,132.142 36.768,130.583 36.910 C 125.936 37.336,125.200 37.466,123.869 38.094 C 123.201 38.409,122.539 38.667,122.397 38.667 C 121.510 38.667,120.810 40.522,121.331 41.495 C 121.783 42.340,124.606 43.377,127.332 43.699 C 128.753 43.866,130.779 44.172,131.833 44.377 C 134.628 44.921,142.471 44.917,145.250 44.369 C 146.258 44.171,148.241 43.891,149.656 43.748 C 152.107 43.500,153.667 43.095,153.667 42.705 C 153.667 41.717,149.051 41.295,144.876 41.900 C 140.190 42.580,138.172 42.609,133.583 42.065 C 130.930 41.751,130.667 41.611,130.667 40.522 C 130.667 38.953,131.447 38.780,138.583 38.765 C 143.145 38.756,143.763 38.789,145.634 39.143 C 148.057 39.602,151.939 39.615,152.622 39.168 C 153.318 38.711,153.391 38.064,152.779 37.781 C 151.903 37.377,151.724 37.349,147.749 37.005 C 145.641 36.823,143.467 36.598,142.917 36.504 C 141.746 36.306,135.666 36.312,134.333 36.513 M263.583 36.499 C 263.217 36.567,262.266 36.742,261.472 36.888 C 258.816 37.377,256.736 37.423,255.547 37.019 C 254.658 36.717,254.122 36.667,251.776 36.667 C 247.271 36.667,247.335 36.613,247.334 40.391 C 247.333 44.406,247.313 44.386,251.523 44.441 C 255.988 44.499,256.707 44.154,256.652 41.978 C 256.571 38.718,257.177 38.495,265.497 38.718 C 270.900 38.863,271.035 38.927,271.092 41.382 C 271.158 44.234,271.595 44.500,276.117 44.441 C 280.398 44.386,280.554 44.254,280.357 40.855 L 280.247 38.959 279.582 38.376 C 278.419 37.356,278.301 37.332,270.917 36.586 C 268.334 36.324,264.751 36.282,263.583 36.499 M336.583 36.514 C 336.125 36.592,334.475 36.772,332.917 36.913 C 328.451 37.318,327.496 37.473,326.583 37.939 C 326.125 38.173,325.357 38.513,324.876 38.694 C 323.823 39.091,323.500 39.506,323.500 40.465 C 323.500 42.185,325.522 43.177,330.217 43.761 C 331.977 43.980,333.979 44.291,334.667 44.452 C 336.718 44.933,345.207 44.883,347.917 44.374 C 349.017 44.168,351.171 43.850,352.705 43.669 C 355.537 43.334,357.353 42.687,358.708 41.531 C 359.217 41.097,359.111 39.644,358.542 39.227 C 356.593 37.799,355.032 37.393,349.661 36.919 C 348.053 36.777,346.291 36.588,345.744 36.498 C 344.549 36.302,337.758 36.314,336.583 36.514 M239.574 37.566 L 240.232 37.964 240.241 40.421 L 240.250 42.878 239.670 43.272 C 239.109 43.653,238.980 43.667,235.882 43.667 L 232.674 43.667 232.403 43.253 C 232.084 42.766,232.022 38.248,232.326 37.680 C 232.544 37.273,232.916 37.226,236.250 37.194 C 238.790 37.170,238.948 37.187,239.574 37.566 M316.983 37.567 C 317.310 37.863,317.333 38.056,317.333 40.405 C 317.333 43.917,317.618 43.667,313.626 43.667 C 309.422 43.667,309.667 43.869,309.667 40.400 L 309.667 37.858 310.122 37.499 C 310.772 36.988,316.405 37.044,316.983 37.567 M134.574 37.774 C 136.045 38.073,136.057 38.097,134.795 38.218 C 131.058 38.576,130.253 38.892,130.076 40.072 C 129.839 41.655,130.199 41.984,132.708 42.479 L 134.250 42.783 133.583 43.100 C 132.092 43.809,126.333 43.393,124.267 42.428 C 123.616 42.124,122.859 41.822,122.584 41.758 C 121.017 41.388,121.322 39.483,123.018 39.049 C 123.512 38.923,124.317 38.636,124.807 38.412 C 126.888 37.459,131.534 37.156,134.574 37.774 M150.068 37.684 C 152.011 37.897,152.299 38.055,151.417 38.426 C 150.535 38.797,147.810 38.926,146.000 38.683 C 145.221 38.578,143.871 38.397,143.000 38.280 L 141.417 38.067 142.417 37.856 C 144.873 37.337,146.564 37.299,150.068 37.684 M186.667 37.694 C 188.048 37.887,189.059 38.381,189.618 39.136 C 190.186 39.904,190.221 42.660,189.670 43.246 L 189.275 43.667 186.149 43.667 C 183.219 43.667,182.940 43.639,181.687 43.227 L 180.351 42.786 181.088 42.070 L 181.826 41.353 181.588 40.680 C 181.458 40.310,181.046 39.559,180.674 39.010 L 179.997 38.013 180.373 37.808 C 181.238 37.335,183.767 37.289,186.667 37.694 M255.417 37.590 C 255.875 37.729,257.184 37.881,258.326 37.928 C 260.861 38.031,260.970 38.086,258.916 38.220 C 257.114 38.339,256.784 38.463,256.538 39.119 C 255.968 40.641,255.847 41.287,256.018 41.904 C 256.430 43.398,255.598 43.715,251.463 43.640 C 247.514 43.569,247.809 43.840,247.871 40.342 C 247.916 37.775,247.919 37.758,248.333 37.549 C 248.966 37.229,254.329 37.260,255.417 37.590 M276.659 37.672 C 277.732 37.851,278.875 38.417,279.570 39.112 C 279.897 39.440,279.930 39.641,279.916 41.196 C 279.893 43.804,280.101 43.667,276.184 43.667 C 272.116 43.667,271.767 43.517,271.941 41.848 C 272.057 40.741,271.496 39.188,270.858 38.847 C 270.452 38.629,268.119 38.167,267.431 38.167 C 266.749 38.167,266.984 38.007,268.203 37.644 C 269.376 37.294,274.504 37.311,276.659 37.672 M336.833 37.787 L 338.083 38.055 336.083 38.341 C 332.803 38.810,332.500 38.999,332.500 40.580 C 332.500 41.787,332.782 41.997,334.973 42.427 L 336.750 42.775 336.167 43.081 C 334.743 43.828,328.327 43.409,326.726 42.464 C 326.416 42.281,325.739 42.005,325.221 41.852 C 324.050 41.504,323.891 41.275,324.094 40.225 L 324.250 39.418 325.667 38.965 C 326.446 38.716,327.271 38.405,327.500 38.274 C 328.941 37.452,334.028 37.186,336.833 37.787 M351.097 37.577 C 353.251 37.689,354.340 37.900,355.434 38.418 C 355.917 38.646,356.406 38.833,356.520 38.833 C 357.451 38.833,358.167 39.529,358.167 40.434 L 358.167 41.338 357.375 41.686 C 356.940 41.877,356.199 42.218,355.728 42.443 C 353.777 43.379,348.060 43.823,346.518 43.159 L 345.619 42.772 346.685 42.562 C 349.951 41.919,350.167 41.793,350.167 40.531 C 350.167 39.064,349.777 38.834,346.476 38.352 L 344.417 38.051 345.667 37.780 C 347.414 37.402,347.642 37.376,348.583 37.436 C 349.042 37.466,350.173 37.529,351.097 37.577 M169.989 37.824 L 170.395 38.045 169.743 38.379 C 169.004 38.758,165.657 38.721,163.500 38.310 L 162.417 38.104 163.167 37.972 C 165.852 37.499,169.255 37.426,169.989 37.824 M346.263 38.847 C 348.909 39.110,349.500 39.406,349.500 40.473 C 349.500 41.677,348.143 42.051,342.417 42.426 C 339.978 42.585,333.968 41.979,333.347 41.510 C 332.750 41.060,333.005 39.615,333.744 39.264 C 334.869 38.730,342.515 38.476,346.263 38.847 M167.667 40.792 C 168.204 41.060,168.257 41.156,168.342 41.999 C 168.522 43.799,168.290 43.847,161.995 43.330 C 159.241 43.104,158.703 42.640,159.926 41.547 C 160.888 40.687,166.383 40.151,167.667 40.792 M290.875 41.986 C 290.305 42.056,289.874 42.218,289.639 42.454 L 289.277 42.815 289.709 43.467 C 290.913 45.287,297.779 45.088,298.884 43.201 L 299.186 42.687 298.734 42.391 C 297.981 41.897,293.508 41.667,290.875 41.986 M152.055 42.511 L 152.526 42.773 151.848 42.976 C 151.115 43.196,147.637 43.490,145.750 43.491 C 144.908 43.492,144.374 43.395,143.833 43.140 L 143.083 42.788 144.333 42.487 C 146.008 42.084,151.314 42.100,152.055 42.511 M298.125 42.557 C 299.522 43.421,293.696 44.077,291.275 43.329 C 289.706 42.844,289.689 42.704,291.167 42.434 C 291.818 42.315,297.908 42.423,298.125 42.557 M78.500 42.833 C 78.500 43.045,79.006 43.045,79.333 42.833 C 79.523 42.711,79.453 42.671,79.042 42.669 C 78.744 42.668,78.500 42.742,78.500 42.833 " stroke="none" fill="#848484" fill-rule="evenodd"></path></g></svg>